<mxfile host="app.diagrams.net" modified="2024-02-23T00:48:11.043Z" agent="Mozilla/5.0 (Windows NT 10.0; Win64; x64) AppleWebKit/537.36 (KHTML, like Gecko) Chrome/121.0.0.0 Safari/537.36" etag="j8XdX0fz45NKT9YKyRr2" version="23.1.6" type="device">
  <diagram name="Page-1" id="03018318-947c-dd8e-b7a3-06fadd420f32">
    <mxGraphModel dx="1354" dy="735" grid="1" gridSize="10" guides="1" tooltips="1" connect="1" arrows="1" fold="1" page="1" pageScale="1" pageWidth="1100" pageHeight="850" background="none" math="0" shadow="0">
      <root>
        <mxCell id="0" />
        <mxCell id="1" parent="0" />
        <mxCell id="cgG15gPhDWwo4B0szn4L-179" value="" style="rounded=0;whiteSpace=wrap;html=1;fillColor=none;" vertex="1" parent="1">
          <mxGeometry x="160" y="610" width="790" height="440" as="geometry" />
        </mxCell>
        <mxCell id="cgG15gPhDWwo4B0szn4L-180" value="" style="rounded=0;whiteSpace=wrap;html=1;fillColor=none;" vertex="1" parent="1">
          <mxGeometry x="160" y="1140" width="790" height="530" as="geometry" />
        </mxCell>
        <mxCell id="cgG15gPhDWwo4B0szn4L-2" value="" style="shape=image;verticalLabelPosition=bottom;labelBackgroundColor=default;verticalAlign=top;aspect=fixed;imageAspect=0;image=data:image/png,iVBORw0KGgoAAAANSUhEUgAAAlYAAAHoCAYAAACLjaGHAAAAAXNSR0IArs4c6QAAAARnQU1BAACxjwv8YQUAAAAJcEhZcwAADsMAAA7DAcdvqGQAAPlaSURBVHhe7P0HYCPXde+PH/YG9t7b9qpdtVXvzSoukiX3OI5TnDhO8l76S/4/v5T30uPkOc12bMtFtmRJtnrvfSVtb1z23itIAiBA8n++BxgSBAESIAEQBM5ndQRiMJgZzNzyvfeee27cPEOKoiiKoijKuol3vSqKoiiKoijrRIWVoiiKoihKkFBhpSiKoiiKEiRUWCmKoiiKogQJFVaKoiiKoihBQoWVoiiKoihKkFBhpSiKoiiKEiRUWCmKoiiKogQJFVaKoiiKoihBQoWVoiiKoihKkFBhpSiKoiiKEiRUWCmKoiiKogQJFVaKoiiKoihBQoWVoiiKoihKkFBhpSiKoiiKEiRUWCmKoiiKogQJFVaKoiiKoihBQoWVoiiKoihKkFBhpSiKoiiKEiRUWCmKoiiKogQJFVaKoiiKoihBQoWVoiiKoihKkFBhpSiKoiiKEiRUWCmKoiiKogQJFVaKoiiKoihBQoWVoiiKoihKkFBhpSiKoiiKEiRUWCmKoiiKogQJFVaKoiiKoihBQoWVoiiKoihKkFBhpSiKoiiKEiRUWCmKoiiKogQJFVaKoiiKoihBQoWVoiiKoihKkFBhpSiKoiiKEiRUWCmKoiiKogQJFVaKoiiKoihBQoWVoiiKoihKkFBhpSiKoiiKEiTi5hnX34oSURhJc25uTl4VRVGCQVxc3IIpSrBRYaVELEias7OzZLPP4J1zo6IoyhqZn+NyhP9LSUmhxMREFVZKSFBhpUQsEFWDQ4PU2tbG70KVTOMoISGe/x+8AhaF9+z8rOudoiiRgiGs6rfUU0FBASXEJ7g+UZTgocJKiVgcDgd1dnXSyVMnWfwkUFJikuuT4DHP/+Li4/nY3HoNkrjC0KVj1rFuLWh32KXgj4sPfqsaFQyuMyExNBULjo2iBc8tmKJVUdbDjH2G5hxztP+C/VReXk6JCYmuTxQleKiwUiIWCKuOjg46deoUmTJNlJWV5fokeNi5oLXPzpIpw0Tx3oYFPDYhsxib3P92R3qs+JjrZXxinFKSU5yCMsjaxG63i6WlpYVkOMRms4m4ysjI0OEWJWIYGxuj6alpFVZKSFFhpUQshrA6e+4sVVdXU21NreuT4DEyOkIDg4NUUlJCCXHeJ8mKMPAiDrzKBd4I3w0IovXS3NpM6WnplJHO4mS1XqvVcrH713nfacs0mSfNVJhfSPEJq0wODuTYgPeHKETRUl5WTvHxOvlYiQwamxupu7Ob9u7bK2kTPaqKEmxUWCkRiyGszjWcE5+IbVu2uT4JHgNDg9TT00NpaanOXibP3MCiwZRuoszMTNcGFyy0RE8Yr24kJSdRWur6eoIwRNlwvoEy0jLIZDKtKE4w7Dg8PCyGnrex8TERiug5Gx4Zpm3bti1pmSPLT05N0gQLq+LCohVb7eh1wr5DQ0Py3mKxSC9UdlY2C9IBKioqkr/drw/XPjo6Kn9XVVZp5aVEBEj3ZxvOUltrG+3dq8JKCR3alFQ2BYZ8gVgJpgEUuBACEAr9g/1LDNsGh4aptb2HWtoWrb2jl0ZGJ+S7S3BpKW/nCsiWyTXf4Bp6+3qprb1N7HzjeRofH+frH6DOzk5y2B2uPb2x8nkgkiYmJqirq2vh2P39/WS1WWloeIisVqtrz0WcVx+a56Wmth5TlHCgwkqJeSAeZmZmRCx4msVqoZ6+AXroFy/TTx99kX7ChtdHn3iVjp9slF61kBBAHYBW99jYuAxBQgjOOmYpKSmJpqamKMOUIQ67ayU+Ll6GDeFIPzk5KcdMSk6WHrwybvHjVYf6FEVRFtESUVFWAL1BIyPj9Mqr79LLr7xDr7Dh9elnXqPv//BxOnz4tGvPjYPb4lRaUkJbt2ylLfVb6MILL6TCgkIqKymVIUnE7FkraOVnmTLFx23Lli104MBBqq6qpuSkZJlMkMSviqIoyiIqrBRlBTDSZ5uZoeHhERphGx4aFusfGKRzDS10tqF1+XBgiMBppqetLPQmaJjFnmFW2wwVFxVTcXExVVZUUkV5BaWnp1N+fr5s8zdMhd3uILN5isbGzE4bN9PUtIXSM0ziiwWflKrKSsrJzpbeMVN6hrwqiqIoi6iwUpRViI+PY6GSTBlspowUp6WnUFzcPPX1DYZFWOEcEDpnzrXQB0fP0vtHnPYh/93Q2E5JyanSOwUxlZqaKj1NcHqHyPJnqM5itVFnVx+dONVIR4+fc1kDnT7bQlNTNkpNS6eszGzKNGXK0COOiZ6wBB0GVDYpcAFQlFCgswKViMV9ViCGoTDUFWwHVDh4d3V30aTZTNPW6WUiaW5unnp7R+lf/+MhmnMsxqaa5e3zc3F0yw1X0v/3Z7+2OLuILw/+TQiTsJ5rRaGP323MCsR1/eznL9F37n9MepWMq8QZsjIz6Ot/9ut0+SV7/TonjrU4K7BYxNGps830ne/9gt7/8IzMBDRIS02hj915Ld13z81UXJTn92/CZAD8Bgwb6swrJRJAuj9z7szCrMCy0jJNmxFIsMv4jUCFlRKxRLKwwvY5FlY3X38Fff3Pfz3kwmraYqPf/f1/oHc/OM6fQvg4j43/Oxxz9Mm7b6X/709/1a8eJE9hBWf3x59+nf7l3x6gkZHRJXGt5mbnaf/eHfR7v/1ZuvjCXSqslE0L0v3pM6epra1NgoPm5OToxItIgote+G3m5ua6NmxeVFgpEYsKq0VhNTpmprvu+T0WWJOUmoLFY107MuZJK9XV1NIjP/k7WaJmtbN6CisLi7b//v4v6D+//RAXbKmUmBiPMk6wWGYoLc1Ef/oHv0K333qF3xWRCisl0kC6xyoO7e3tlJqWSskpyZxXglueKGtlnp9EPJWVlVFdXZ1r2+ZFhZUSsaiwWhRWQyOj9NF7/ief0ybCxx07X1d+bhE9/vA/iTP5aqf1FFYYWvyv7zxC3//Bzyk3D8FIFw9gm3HQ7Gw8/cnvf4nu/tj1foskT2GlxUxsEuz8uh6QBrHuaGdHpyznFEGXFvPg2cTHJ1BtXS3t3bPXtXXzosJKiVgi2sdqdo4/i6c7b7uW/tcf/8piTw5fXiiE1aBLWM37EFZ5uYX0xIKwWvm8+I3uwmpiYoq+BWH1Qx/CyhFHfwxh9fEbKHENwgrX09PbQzO2tcfTimYkxXmku0gSJGsFMdQQ9iNShtuQ7geHBmW5Jdx07a2KDIzyCEGI62rraPfu3a5PNi8qrJSIJVKEVU/3CP3dN34swsr4FNvTWfR8+Ysfp1/6/J00PTUlAUWzs7NFCIVbWOWysHpyHcIKPVb3h0hYgeMnjvM9npS/ldigoLCAtm3dJmkyUrDN2KS3CqiwigxQHg2NDNGpE6eovr6Odu7c5fpk86LCSolYIkFY4X1f7zj98zcfFidvSB6D8rIS+r2vfZYuPLBdlo7BGn0I0In18zZbj5UvYTXDwsoRBGF1+P3DNDE+IX8ry8F6j/YZu0wcQNDV+CCn83CCWaU2m038ZQ4cOCA9uIriC6SX/oF+OvLhhyysttCOHTtcn2xeVFgpEUskCCthLolOnOyiudnFMAQpKYlUW1dOl160m69zho6dOCbr5l100UVUUlwSOh+reRZWbrP2gN0xR/ksrJw+VgmBCyuzcyjw/h/+goVVxpLvz8zMcqXvElYfu37NQ4EDg4N8LBtvUbwxNjZGPV3dskRQSWmJLBu0WcGyRy1NzVRYVEgHDxxUYaWsCIQVluL68AMIq3oVVooSSiJBWOF8OZl5LFgyFj7DFSSwuMnKzqC83Czx2Tj8/vvcSrfS1VdfLX4lwRRWGRkZNMIV72/+zt+S3W6hhPi4BYGCMzhm56kgv5D+/Rt/JD1W8GlZ6dxLhVURmSct9JOHnqGHH32BMrOcwUUNHPZZ3j+BfuPL99AtN14mws0fnxl3YYX9Eb3ePT6WYuB8kv0DA9R4vpHy8nJlVlRqappsjwzcU9tKOPeDSDx29BjlF+SrsFJWRYWVooSRcAor+EhhwWWIAXewCDF6dbBUjBPn+Y3LQPYxmyfo2PHj8v1LL7mUCguDK6ySkpNoaHiEfvjAUzRjt/I1La3qoFfg2/XZ+z4iPUro9VipMnMXVgV5BTQ+PkFvvP0hvf/BaUpOTVysP/kk8CWLpwS67pqLaM+uLWRikWdEdl8Jd2Gl4RZWBvepp7eXzp4+QwUFBbRt+zZJP5uV4ZFhOvzeYcrLz1NhpayKCitFCSPhElbd3d18Lrs4n3tmB/S2QHyUlpS6tizHYrFQZ1cnTU9PS+BB+JYEU1jZ7Dbq7ukWvxVf2RUCEP45iQmJVF9bL+LKF+7CKjszS/wbUBmigPN2dDj54j4g+Ch+X2F+4apiSYVVYHT39qiwUmKSaBRWkTEPVlE2EIgGCKfa6lqqq6lbYrVVtZSXm+fa0zuGszeEFfysgg2EEJybUQDNzXu32blZEaLYD4LGX7DnLB8X38dx5r2Y8/jOY+MaFEVRFN+osFIUBj0EWGDY0+A4jsWGVyIhIZFyc3KpuLiY0tJD4BvD6gfiaiXBhM+cIov/8tGr5R05+CrfcX4uPVrYF99RFEVRvKLCSlHWCYa6sL5VeVm5rHWlKIqixC4qrBRlnaAnZ8I8QcPDwxKLSFEURYldVFgpyjpBJGc4a0Nczc4uLnujKDFLcOeYKMqmQoWVogSBpMQkSktNkzhSihLLYGg8LS1NfBODPYtXiVKizG1ThZWirBPEdaqqqqKamhpKT9+80+QVJRggvALCRiC2mgqr9SGTRaLc5HdGmbJSYaUoUURIqzGtIxU/SE1JpZrqGiopKZFQJkrgQHAgbh1i5CGMS7QbXCgMkRUNaIBQJWIJV4DQ3t5eqiyvCE4gS748tNiDFSAUx0H8KATxxP1YDQQIraqsooz0DNeW5SDLI0CoGQFCs7IloCOW5VkN/J7iomLKy8lb9V7B5wz3QgOE+kc0BQgFSGPaW7V2MCGmt6+XJicno0pwGOA3oTxDOYcyC2Vmw7kGKec18rqihBAVVuek0MExJ1kE+ROcMy4uXmJqJSetvIjvtGWapqanJDwEWsVYjmelq0Uhgc9Npiz+bWkS6X0l4MifkppC1ZUqrPwh2oSVsj7QmDrfeJ5GRkeiMiivw+6g5pZmib2HtVXr6+qpo71DyngVVooSQmJdWJ1tOEujo2M0zwUrCiB/wfDLaudGYQ3Db0YR4G8xAEElx17lpzlmZ6mirFyGhBLiVVithgorxR2shIDwLVjJAWVBKPF2dPfsLZ/jf17yvLHJ8xgrFQ8oakZGhunP/uzPREDeeMONdOstt1J7e7sKK0UJNbEurMbGxqQ3yZlB/c+mWNtvNYzC2tjX38Lbn2MDFCuIWp+VmRX0ZxaNqLBS3EGjB0P1COUSQNYPiMAOi739yceL+3nb2zhnf38ffe7znyP7rJ3u+cQ9dPcn7lZhpSjhINzCKp6FVTCOnpS8fmEFULiGMnvi+kJ9fHVe9g8VVoo7yPsYqp91hC4uHvK+3WGXoMZoWEnPMudZlFrIu4bBuRxlMRqMCCeTkJgggg/uBnNzuL44Z883/xscHBRXBITbwHe9gfP2cJn7ibs/RjN8/s986tN0372fiiphpaWeonBGx6yUWS48UICsx2R2y1xwxApECQqsUFk4jq8oSmQC8QbR1D/YT339/TQ4PERDI0M0PDpCY+NjYvi8q6tL/L26urtocGiQxsfHqa+vz7naxMgIDfH3MPkFjvZHjhyRY6zkumAIroVecn6Jtv4d7bFSIhYIlVD3WA1wQdHU1EipyanOY6/z8BATeXl5sm6gCgvFX7THSnEnXD1WcI5va2+THqiJCTM3DB1kyjDRjM1GcQnxMqvXbDZT/8AAN5bipUyDnyV8wAryC8QHrLunh1JSkqm6ulp6/xHPr7a6dsVgyfjOx+/+KNm5jP/MfZ+me++9T8p67bFSlCggPt6ppKwzVrLYnLPj1mNWm1UEoaIoSkTDRR/ED4btIOQTExPkPcRTHJeLEFiInm/KzKTcnBx5D1EFQYZhwempaTkMZgnLcVLTnBH3kzXivgorJaaBR0FycrKEBkAE9VUtbXVL4uOtt+dLURQllKDsgwhCuAMEc60or5AYeLm5uZSTk0sVFRXyd0F+Pv9dKe9LS0rZSqistIzSM9IpPy+ftm7dSnU1dVRUWER5uXkSwiXWe+t1KFCJWMIyFAjn9b4eLkDyg1IY4BgZXOBkmrhwifFWm+I/OhSouBOOoUCA6l8M/1y+oX39fTL0ByFVxKLL2Ac4X2HOiS/u5THKPlw3XlcrS3UoUFGiGCki4uJFxMHPwJuhkEhLSfXLUlNSJKinSqrIBRUCKgCZsLBBhvMrykYDYeQUQs7JJnhvNk9Sd3cPTU1OSTpFfjEmpGDILzHROTvQmCVoGL5vvMY62mOlRCzh6LFCuAXEVJnj1hocMj1Bd3l2FqKNm/jdYlaJ48IjKYkLEQmY6drI4PowFJiW6nKGVyIOiGXECENwwo0CSw5lZGRIZQW0x0pxJ1w9VgZWm406uzppeHiMOjp7qbGpmXbv2knFRflUkJdD1dVV4jIRLKK9x0qFlRKxhEtY9XKlhvXyZmZmFrq8DXC+vJwClldJLlmF/8dJyywvL5uyMlE5LrbQVFhFPpgW3nC+QSYbBFb6rbbzas/blYL4pPBRgT+LUVlFk7DC75N8xLdjtaWPFO+EW1ih/Hvy6Wfo8AcnacaRwo3NQSopLqCEOBsdumQffeyuOyk7O9u19/pRYaUoG0RYhdXwMNnsNtfWReB30Nc7Qd/69uPILQsVMZzUL7vsAvrSF+7iVl2ecyOjwso7kVTMYObmwMAAzdjt/C6w6/L1M/x91Pj++MQYZWdmU1VVlTgPAwRMPHv2DOXn59O2bZtbWKFHEFP0MVSUmZmp+WANhFtYTU1P0+NPPk8PPPgU5485bmTaWfQnUUZaIn3q3o/Qx+68RSbvBAsVVoqyQUSCsMIQYVtrP/3139zPucW1kYFPQl1dFf32b3yKbr7xkGurCitvzHER08fCwWZbfn83AkwlxzTyQHxB8BvM5gkZMvFUVwmJiTIVHf51q4HjDAz2k91mlx4AWWSbGRsflxhAJlMGC/XioA67hBsIq4mJCcrJyaHa2tqF4U7Ff8ItrMYnzPSznz9LP3rgCX5+i+dMTU2iz336Trr3E7fJpJxgocJKUTaISBFWnZ1D9I1v/pTPvVinOrjAi4tLpM/ddzv9zlc/s3BdKqyWgwWZjxz5kMxceEcCaelpUuEj7o6/wOG8q6dLolF7gl4nTEPPzlp9qAQRqXs4vfX390tvKHz4AJYWsVltIkKSU5I39RAafBUt0xYqKyujAwcOSM+VEhjhFlb9gyP04wefpEd//vyS3uX4hHj65N230Oc/dRfl5mS5tq4fnRWoKDEO9BF6NxIw64ULGliSBNOLp2lZJFnbJquB+4SKYnJqckNtamrKubA1i5pAwDOGD960ZXqZIbAshFcg2O0OmmbxYVwXIlijMp2xz8hsLAylbVZD4EgISM0Xm4d5FsNY0ssTiCyIO28Te9aL0ajAS7Q1QrXHSolYIqXHqqtriP713x4SgWWA7WiX3H7rNfSnf/grC8NK2mO1HAiG7p5u6ZGJBLCIbFZmVkBDVEiLre2tNDg86NqySFpKmiz9geCIqyE9Vn29ZJmellhnia5rGJ+YoP6+PhFY0UJ5RTkdPHBQe6zWQLh7rMzmKXrksefp/h8/RjM2+B46SUtLpc9/9k765MdvIURYDxbwKfz43R+TntpP34dFmO/TRZgVJebwopEgrbRVsjoQmEVFRRJwMBIM14JZnb6AiLKwCHQ3DFn487TxXfgXoedmJUwmE5WVlsr1lJeXi9N6IgsQ3CsIvk1tLFxhGs8oNKAvxGabIYvFKjbterVyOl1rN0lc3DwlxM1ScuI8pSQn8bODH2ISJSfNUzxvD3YTEekE6R6zYxF2JNrQlK8o/qAKas1ALMAPadnyQBtkSVxx+OpNtM7Yqa9/mNrae6i1rVsMfw8NLfetcgeVHXoZ4KCP3rm+vl7Z5mtAABULHOhxPVhfDdeESP0QJPCxwhJLm9b4d8HwG9EjgeHNYBgWCI714UWksbGxCWrv7KOW1m5qZjNe2zt75fNAEaE2Y+O0a6b8nDQqLS0Qf6qSkgLKy0khu21yIRSN57+1ksrp5NChQ3TxxRfLcjrRhg4FKhHLZhgKvOO2a+hPMBTocjbG9elQYGQz45gh67TTp8kdFIWHPzxD//Wdh6lvYASlo2xPSkykKy6/gD52xyEaGh6Sbe6kpqRSZXklmUyZNGk205GjR0VYXH75ZSLIMRRmpAVjKDCZt1VXVst+wIhjhZ4xrMHmHhtts4LfjUCoQckHfAgM36ISTkqM/qFFpE3z1CTNzc4t6S0aHzfTf3z7EXrn/RNknbK5iZs4ysvNou/8x59zOvR/9h7SPNIkZrt2dXVy+uYGRFwSmc3TfL9xHAcfN5uqq6qkR9UdXBfKvbX0TCI4by/ng0HkJ76GgrwCHQpUlFgCTQ+7Y5aF3qy8wmbsDi4c5ik9PZ0LGGfRJy067KxsShC754mnX6fjJ89RV3cPVzQu4797evqcCcELeOaIi/X8Cy/SCy+/RW+/d4reff8UPf3si/Th0SPSQPAX9Fwh5ALiP63HMNSIHiO8Gu+NHjtjH6OnzHiPIRkIPWw3tskC5bzNeI/0jvfY19gGAYXtxnuj1wrnQqUNx2fzpFleDUNwVsQTM96jZ8t9H1S82Ed6qvg9hAZCVcQKSFPj42OcJhcbe9h27FQjvfbmh9Ta1kVdvb3UzemyuxfWS739/XyvAuuxQmiM4ZERtiGZAZifn035eSYqLc2lPH5FEGSIfAggrCHoafADW0svGcKMlJWUybA80lu0ocJKUVaDy3OHHTO25rggctrcfBzl5GRRdWWpFGaoFMYnxgOqRJXIAj4qr73xIdm4wk9PQ3BEp6WlJskwlE84fYyOjvF336XnXnyLjhw7Tx8cbaBnnnuVzp1rDGjGYHJSMplYnGRlZ63LIKTQk5CV5XzvFDypInhkHyzTxGII58vMcp4vg79jCCv5HhtEUzK+4zqOiK9kp7AyjpOYwPcJ713fwTHwHfwOHBvnxj0yZbLIc72HoMN+xnt8H70v8p4NvXaJSYlOkefaJ5Z6gXEvENvMczWIU2daqK2jmwVvPD9j3GM2vLKlZ6QEfH/sjhkaGRuRxehRfmFVgsnJCbLPWOR1EuWaeVxir/UPYHFmd+t3CisWzwDX6c1WIlqfpgorRVkFjPrZ7XGL5oBjZ7os9XDVlQfIarFQY1MjnTlzRqbzK5sTq22GK5JpFhyplBBvLE7LtkplhcosJTWdS9N0am3r4wpxkvr7R2loxEKmLKdTur+kpCSzYMmknNycdVkWi370NmXnZMt7vEK8ZJgynO9z+X1mhsT0Mr6TzUIJgsaUZVrYJ5XvRXpGmvyNbfgMggyiyvgeZo5B/Bjv8XkavsPXgPf4bhL/LgQMNd5jH1yP8R18H2LLeI/jYx+IsYXv8LXFirACCH/gHhYEImV8YloC3Ca5wr64G9JsILDsEZcGh9214PyM89Xdr819uzeTHjK+RENESc+ip7mEVyyhwkpRVgCxq3Zsq6X/879/y2lfd9rX//RX6VP33ELZXNGg8JgYn6C+/n4Z0lA2L2hgB1p3o0KZtthoeMRMs7OoTJwVzPSUjSa4IsTf/gLhEBHGlbTX7WzoZli2HfsbtrANC5Q7//b22xaOY3wH/9w/9/iO7I//xQgQPvjnjvQAwYIBDuV8keN6PZ/xD597Mee3SWKxnTl3ho4eP7rUThwVP9lA8kA0oMJKWRecvVz/NjmuQt4TFPqFBbl0842X0s03sLler7/mYtq1o5aSktym7fPXN/19UAKuvJH64X9ntc64tjiBL57NZndVQIoSnSB1I/5aV3eXxHpbYm2tNDg0GHN5QIWVsmZQoVgcNhqxmmnKbqHZTdzlC2dKxDaCT8kSS8RrogzRuBs+WxBi/CK+K1nBW/JB2UywFGMBjkj87iAWEIYSY6mXRYlN4EeIXivEcHM3xHOTlQ5UWCmKfzjmZunNnhP0T0d/Qk+1vU0TM1MitjYbqPwwjbuqvEqmzbtbRXmFCCb3IQmnub7MoJsbTpwT4+NSiCibExHKbBjOW8IqughfS0uFDxFCC7g2MqkpmHGXRvEJqxxAUQLBPZFFCij2vRT9sdpbq8JKWRMQUMcGG+mhhhfpiZY36f4zT7HIOk5Wx9LhkM0AnJOzTFmUnZ1NOdk5Sy0rR+IU+QKVMT6vramluro6/tsZl0iJHKanpyVGzujY6Iq+HmlpKVRWWsAi2UZWq33BbGyrtRfiaI4yMxKpprqUCgvzWJAX8bHyWLQvdUBWlLUCPZWakizpCU7js/K6aM7YepELRBbW1bRYp8UQbiNafa9UWClrAjFl3us7TS92HKYzwy30Usf79Fr3UZp2bL61ziCOMIMKAsnTMMSHeEArgWnhxUXFVF1dTamp0ReTZbOD2U2t7W3U29srM5l8gWjQl1+yj3JzWUynpclUf6chRpOJ9/DeU4ChPgjq7Vur6eorL6LLL72ArrzsIF1y0W4qKsh17aUo6yWOKssLWcBnkG0GPn2L4t9qdci2SO4hwuxA94XYpyxTLAjDsxZiuFFhpQQMsi6E1SkWVKMzk/K3gzPN2eE2sjoiY6HdcGK1WCUODFqSkdhLH+tg2v74+Di1d7RL0ElfYEHkL33xLrr91qto354dtNdle3Zvp61bapxdBt7gzeXlZfTp++6lX/rcJ+i3v/JZ+tVfuZc+/5lP0jVXXbXiuoSK4j9xdMVl+2nLlmqannbQ2LiVzbJgExOR3ag1hNWUZZpfYWsLLroZUGEVhSCxwpkwVDbHxiehsox8Sk9IQb3CCSmOSvl9Av/l7TtrtUjPeGgh4jqxJE57R4cUGEpkgSCLO7dDJO0VkQW8tezRc4nlO+752A30679yN9snxH71lz9G1111oaRz9E4t+8ffg58elqmBYXIDAm9CUKG3U3y3FGWdIBnl52axcL+P/uYvf5v+7q9/h+13XfY79Od/8qsynB2xuLIc8t5m9MUNBF0rMMqAEEEljwi6oWQmYZZeGPyQvnP2CWoc76LclEz61JYb6b6a6ymfTMYya+sCgmVkZETWZwvlWoFDbCXFpasO+fkCPjyYaox7X1RczMcq0bUCIwj0ViFKdHpaOj+fooU8gqFeb8/cW5GI7+AYiE7tCYaRiwqKJDr4aqDVvtJagQiMWVVbJcvBrAcMeXZ3dlNVdZUsVTLrmKWJCTN/Mk+5ebnyG1FGTE9Nyz1BWp2xzcgsLiwCjd+Cffr7+0Ug5ufnyz5I69OT0xLQE0vXoH7s7e6lnHwECnUOgw8PDdMcf5CXlydx4HCcluZWqqurldmTeI99cO9xLcBmxVp1XVS/pV7eQwyPjY4tBDUFmLmbnpIuIjbawZI+J06dYCGVL2skupcldrtDgtl6plP4imZkpPld7uD7WI+wvbOdn/uEa6v/oFFRVVXFab+Yn+cQvfnOm17zx9b6rXT5octFTPX09yxpLOMa8Owz0jKiaq1AFVZRBgrU02dOU1dnV8gqdnvcLA0kTpIlc56e7H6bjg41UV1OKV1RuJdq4oqozGaitLkkyXjrBZkQEZnr6+sl0wWbYAgrZCGjh03WVuNKUYVV5IC10M5wnkClvn/vfqmYm1uaZZ0yiCt/wDPGjE/4a3mC40EIoZdqNVRYqbDyh5WEVbDAc1BhFRp0KDAKMSr5hMQEKbiDaRAOQwlT9PTYh/TK4DFqmuihSbuFzo920YdDjfTMyId0YpZFXfL6z40CHhUMnIcRNypSQaGHSgL3BtGmlcgClQZmfEIEGHkj0BlJeMZIi5mmzGWWkZ4h8c4URVGA1gJRCip6xGDaunVrUK1+6xYaSJ6ibvsItZr7JUAoWuF47beM0PmJDjo8eZ6Kq0q9fj8Q27Z1G23bto3q6+ooLzfP9csiE1S8Yq73SuSAnhSsxI/eJvSYAAmBgP+4xewv6ClBvvJmoehRUBRlc6LCKgpB9Y7uewx1VFZWBtVKy8toKH6SzLMWGrGZF6bLpielUlpSCo3aJunMVCdlI5ZPZYXXYwRqZWVlfvmvKIo30JuEoTFD/CrKZgLiPxRmgCyx0DAM0JzMy+gIyujsbCzmvWiIBYiFvmUv47w4tbtFISqsohgj8aOlHSybpTkas02xTdK03UIzcw7JG2WmQtpb5HQuH7KOk2V2JqjnXszEihIY8PvYuXOn028owoMoKoo7hhjBqEAoDMomLs57meuPoRmP68MweV1tHe3YvmOJbWcrLSnFbnwmznv4z/WbDJMKJMpQYRXlBFuQJCck0a78GipNz6eMxDTKSjZRYVouOWbnqHGkkzKTM+iykt2Um5qpYkiJCAoLCmUoGUFc4QenKJEO/P/QCBgYGqD2rg5q7wyN9Q30S29uQnxCwAZhNT4+Rp3dXXIcm33Gq3gzT05SB/+Gru5ubuQ41w9csEkz2WaiL/ahCislIBK5dXN56T76zPab6PM7bqUv7LyNvrjrdvrk1uvp5qpLZBssJwWRqhVl44Ff1ejoqIRYcDgcrq2KEtlgNqfVaqVJFh+hMsu0BVNVvfoN+mP2GTtNTU2SxTItk0I8e6NgdhZcmIGK/TA7FfvB33FkdIRGR0adizRHWbeVCivFL9CCQiZHRrqocDt9df899KeXfIH+5OIv0O/v/xT97p576PcPfJr+5KLP0ae33iS9WTI9fSby1w5E5Hj8PmPG2LoMLU0+nhI5YDp3X1+fxBrbDOlRUeK5AZuWmkYpySkSxiNUlpLsmnmdkha44fowe9s4lg9zP196Whqlp6ZL6Iy21jZqaW2ROHPRhsaxijLQrXvy5EkaGBigCy+8kAoLC12frA+IpKamJslI8FXJyc2VYZW5uVk639RIk2azzOTLNGXRIJ87Lz+Pjh8/LrFs6uvqXePxkQfiWPV0d1NOTk5QrhHHMJlM4rSpQ6GRAQSvtPy5xYznYrPZ6Oy5s1RZUSkzBsP5nDA0onGsNI7VamBSEAQHnklYenN8nQJZY6XTG1nHfZ/VshPvi1m6v/07XyPHrJ3uuONOuuv2OzWOlRJ7DA4O0tTUFE2YJ+jUmdPU0tJMJ06eYDtJZ7hCaGpsIofdQUNDQ3T27FkpFHu4spibjewlaWQZEq5I7A67+AgYhq5qw9y3u3/m+bfxHhW5Elkg/aJCRmWuKJFOHP9D7D4Ib/dF4YNpRm8YBCvyBc6HYMwwnFeM94Ewh6jGPhIAmbcnotzkv/Ed6a3ibXhv+Gvhe97OCZPv8zlRV8Cs3GiPNlRYKX6BFiRaTmjR9nNro39ggJqbm8TgwIiAi8h8ECjILFjsFtHHsT2SO0WR0dGLgeVO0LVtWKrb357m/pnnfuhpSEzSRXcjCfRQNbU0UXdPt/pYKZsKlKmhMoByHY1lzJwdmxiTV/SUjXGZjleMVIyNjcki8/CJgmE7lhpD7+WkeVK+g95gOKGj1wmLK6PXyts5DcPnGO1AIzSS64e1osJK8QsM7aHFMsoZCkssQEAgP6DLGssaYMkZCIvy0jIZfkzmVsnBgwept69X/JciFQxflJeVSzDVSg/DNm/bjc+8/V1eWk45WToMGEmg4O/o6KDjJ47LLCRFUTAiNy+CqLOzk9o72rmR3CzW2NQoow4NDQ3U29vLYqmDTp0+RQ2N5+n02TN07vw5OnvujNNvsatLvtPR2SETRN47/J6ILn/CmiwMcfKLOq8rMYnFYpWhwHSTSUSV1WqhxMQEEVPiB5GeIUMtEBTppgzOWHOc+c5RVlbWQrRrRdkIcnNz6frrrqfrr72esrOyXVsVJbaBgzwMvbgwDJd3d3XLqATKeogduEnAlw6NagzZWaanaWJ8QnwWMRkEPVltbW3U1Nwkw4DVNdXSGxWNvVCBoMJK8Yv09DQqKy2jutpaqqmplV6eLfVbxNkQPTb4DOPtEFb4DA7ciB1UWV4ZE86mSuSC4d6KigoqLy/XOFaK4gJlNRrJmJhQUFAocd6KS4qpqLCIiooKZeUOTGIoKMiX/IMyvrS4VLYj6CfW38R3S0tLJVZceno6VVdVOxeNjvHGtNZ4il/k5uTKun0QUlu3bpF1/Pbs3kO7du6SzIRKyxBWlZwJ4beEz7EkDVpFirKRwFlW06GiLAWuEOLKwGX2zh07ad/efVRVWUUlLJxKS0pkxKG4sFga0SjzZR1X1AFs2AY7eOAg7duzT3qGIb7QoIYDeyyjJY3iNxBNYvhn/M3mi5U+UxRFUTYWjCYgnIbEmEpPl0k8o2Oj4l81NjYujRGZDYg4VMnJIsSwH3q6MCqB9/gb7iASDoM/0xEKFVaKoiiKErOgAQx/KszqwyzA8fEJ6urpo7GJCZqcmpJtxn4QTb7M+Fwb1CqsFEVRFCWmQYDWxqYmevvd9+n4yUY6c7aNjh4/R+/w++aWFnFMV/xHhZWiKIqyPmJ7EtimB7GsXnrpFfrGN79Njzz2Mr321kn6yUPP0f/79+/S62++JXEJFf9RYaUoihJJIK7P/Py6zHkY1z9s43+yxe1z4Ny+eD7Xbgv7yCbnn4ufu/5e8h33bc43Ygv78NbFvxcxtuGf+3v+35L3sg3vXfspwQXhcvIKymhmJpEmJqYkDpXZPEWOuWTKzSumlJT1LbEUayR8nXH9rUQBCMaJdQIRh6SsrEycChVFWQSR2LE6AGJaYSZrOIE+QFBGOARj5iwchwG2DWGNPVckasu0haYmp9ZsiIhtnjBLeWC8hyH+ENafM7bhPIi+bbxHuYF9MDSEbeaJCd7ftrCPEeMI7+UaufKd4H0wVGRcM85rtfB5eB+sK4jjIvbRwrVMer+WyYlJqdDlGK598DmOhXNieSwIgFiYcYY0gHvqT6DNYDA1bZUhwOMnz5PD4VySa47PHRcXT7t3baddO+pl+a9ggR6yB3/2oKSJvXv20u7duyWie34eQj8UuPbavOgizFEGMmMoFmFWlGgBQuDM2TMSi0cWEg4jKGwRVBHLPbkvwjwwNEgtTc0y5JKUmLT+OEB8IqyK4C5CjKLeOLa85//kvfMjWSQazseGAzIqPmMWsBH4EbawD39P9uFjGN8xxIDxHmDpEohJA6PnCcfGf0D2wfW63qNil0t1nQuLOtfV1sVELDIRodNTsnh2OOjuHaAfPPA4PfX0qwvpBMTFx9M9H7+ZPv/pu1j0BCe4Lo6P4KKf+OQnJDDpZz71Gbr33nupo70jahZhVmEVZaiwUpSVgbDCEh2IKp2QGP7ej+mpacrPL6Da6poFYYUZWeiVQUXjLkjWgyGAQg5qkFVO48+1rLYP7pUpwyQzz6KdcAur3v5B+uFPnqDHn3h5ibDCAsz33nMrfe6+Oyk3J8u1df1gKRwIK6wt+5lPf4bu++R9ss6gCislIlFhpSgrAwHT0tpC83HoEQl/JT3DeTQ/N29htQKAijRaF6QNFhBU6PUKi1jcYPwRVs6ksphe1nNfJsyT9MgvnqMfPvA42WyLC5VnZKTSFz73Ubr7ozdLL2uwgLC6+967RVh9+lOfpvvuZWHVpsJKiVBUWCnKysD3BwvFYthrI0ClCV8hRLV2Hx5TFIOVhJUNfmnTFhbiS9MvhGdebtaaBBb83h5/6nl66OFnWfjHsTkoOTmR0tMS6N67b6W7br9ZAoEGi/6BfvrDP/pDstln6Mbrb6Cbb75ZhZUSuaiwii0iIfsGuwchHL9JfHx8nAa/JxZ6RZTIxZewwvaevkFqbu2WSRjuSTglOZmuuHQ/JSU5J0T4C/Lb4NAgPfHEU/ThsTOUkJRFo2OTItLmZyfo4gv30l133uF1AfO15hP0Gr/y2qvyG4u4jqqvr1dhpUQuKqxiB2RdzCaDg+mGwOeHozWciYMlRByzDho3j5PD7l6hoIgKn9BJSUmmnKwc1ztFCT8QUGMTY/yHsyfKoKt7gP7mn75HjU2dnEcWh+yQPfLyc+h7//H/I1NGumvj6uA8M44ZmaGJOmN8gsuTuESy2uySDzhHcl4wUXFx8cIMVifO/JjM+X8tw7MY9h4eGabB4UH5HVhnUIWVErGosIodUDidbzwvDqZh1B0LoFCGACnILwha2AKrzUpdPV1k4YJ+I5jn35SekUH11XXaa6VsGMjbHV0dlJaaRinJKZIWUVU/9dzb9Jd/818S0sKz6i4qyqcnHv4Xyso0ubasDvLbyNioCKu5Ofj4ObcjbxuCDtkg3jW7dCFHyB9x4iu41gkFmLXa198nk0kQFkiFlRKxqLCKHRwOO732xuvi+7CWgm29YCiiuLiEamtqKDVIAQQRbqClrXVhfbLVcU7cxxR/bz5TmM4fvxAKYDWhNC8VTGpaGl24/6AKqxgFogZpG42FcMc5M8Ds0FNnTlEeC5dMU6ZLWM3R3/7zj+j+H/+csk3I80vTZ2FhHv3ou3/L+/sXuxD5ZnLKTB2dHRKfLFBwTTVVNdKwQuPOV8wt7OctL+E+9w2ysBpXYaVEOCqsYgcIq9fffINqWNhsRGTkQU5jWM2+qqoqaMIKFQqCBwYyzRyCyooglvYZ15ZF4rlAR6sfwxgQWSuBgnBoeJAsNgsd3KfCKlaByGhta+Gys0hinW0EyAcnT58UYZWV6XRIRy/SX/3d9+ihh59i8eRNWOXSD/87EGHldCVo62jn3zzh2uo/uKbaqloqLCiUv5H/vDVu4C7gLf9Fs7AKfzNXUZSggQINQwUQNuE2KSyDLD5wvMSExIXeAn8MQSWnp6doaHCQBgcHltjw8LAU4CjcvX13ifHv2YiePyWygM9QZmamDHFtJEYQ1SUEuRtkXd0qbt8dZ2F24tRJev+D95dZW1tb2CLIRwpaiijKJgdiIGEDLNiiaq2g0x1Dh+MT48sMvV9o/fuD++/BMTfS0DsBH5SNNFwDDENQ3q4xFDYnZpx3Yypjp9BOjlCRHZkCxcr5r6u7k1rbWpcYRNXw8JA8z1hi0wsryYwohLhVqua0jSqQFGUj4ap5oYL2NAP3v32BfTCkDkEWbsN5ETQRwyrw94ITP17DafBzg48RosHPiM2EzezG3/z7Ie42AvRYmSfNsl6h4h/IM1jLcVl9xM8w1nqrwKb3scLDw7TNsfExGcONlFb0RoHE3dPTIy34gxcepOKiYtcnSrQBH6s33nqTdmzfIX5E4aa7p1tCLVRWVsrQYDBAfpYFdwNo4UKMdHJrGUEHWUa5tjrBEGB9bT3l5uRyaed0uMc2X4E5+wb6aIhb2AjguRE9FiiOsdQOIsJLHCO+HwF3UvDvXG85mMj3CIeYZbG36BsTwDFxDYHs7waeIZYaKispE/+dcIO0985771B+fj7t2LYx/j4Q2SdOn6D83PylPlZ/+z168JGnKCtIPlYQj+2da/Sx4n+11U4fK+S9t999W3qJPdm1bSddfPEl4jrgLjfwe9R5PUJB6w7djSjkUQCtq0DxuBN4i6O5v+L/SwqMdZwuFKB1gAIZBfOBgweopLjE9YkSbcSSsEIphd6b7u4BGhgcXfgcMbyKCrM5VyKa+jC/Ls3EhrDKyXbGpXrn3Xdo27Ztsoq+N+EEYdXX3y/3Fstu4FoCAcNIRUVFzkkjSy9F3q5UXODz2VlEvMYahoncQOqm5qZmslkRCNLjYCuANfX2799PqWlreCZ8ox0O52LIiCmGsnVwYBAfsPlf2NXU1lJZaemaxKk8Wz5VXU0dlZeVu7aGD/TUvXf4MAurPNq9c7dra3jxJqxQVf+//3yI/vM7D1JaWtIyYVVUmEc/vf/vI1ZYYebg9PT0grjCK2J1TU1OqbCKNNBaPddwjlpbW8XpdWkQs8BA97O3bkvcIhT4OBcSIxIUEkl6Wvq6zhcqcI1waN61exdntiLXViXaiCVhZbc7qLm1i1557QNqauly9uQwiYkJdOjS3bR9aylNTpol7bsDYVVdWS33Z47z9n99+9t08803cYVQLT1DuG73xhiEVW9/H03zNbzwwgvS++uvqEG5AKfnS7gSOXDgwMK3cHT3Y0iR6+WQ2IQeNfwmCKszp0/TM888Q6OjowuV0Wrgt6Ai/o2vfIXy8nNdW5fj63iI42W1sJDjzxHj6KWXXqbjx48tex4rgftw62230WWXHRKhKTfAHfz8FX4PAkbaWVjU19VThZuwwnfgfyXlbwh7EzEUeorvvYkFCvIWzhdufAmrJ599k/72H75H01YWKK59jcsrLsijn/0ocoUVrhMBQY20hPOjTrVOW1VYRRrosWpoaKCuzi4qKSmhnJycgHutcAtgvf29NGNjceVxS/AeaykhmJnxGRLCnt17pCUc6PlCCa4P49oQfsWFxTIdXolOYklYDY+M048efIa+871H+TPHQmsdDZt7Pn4D3XLjxVxIW6WwdgfCCnl0bHScZucT6MGHHqFrrrqSGxw5VFiYTzXVNc7K3wWEVU9frwirb37z37jRdtb1iX+gkrnn7nvozjvvXHYtAMIAv9GXULFMWyie/8Vx/sWMqh/84H7q7+93feofeXl59I9//49UUlbitWyCuwDKTc9yDszPzvNvn+Z7NSu9Cw8++BC99vqrAQurL33pS3IPZH05L8Uj/Kh8HdM+YxeBCWFVXroorNCDhu0YxjWCZoYClJ8QGxaLlXbt2Cm/J9x4E1ZghNPxP/7rj+mdd084OwJkq/OeF+Rn04/++69YEPpX5odbWGHR854+bqgY6Y5fkB9sLOQ13EKEgYeLRIcx+cysTOmCD9TQdV9QWECp6amUlJJEyanJSwzb4rggt9os0oqDIZNj7SSj2z9SDNeD4T/0VGFIQFGigdHRCWpu6hAxmZKcSMlJCWJJSSjCnA0jr/BmRHZ+6ZW36CcPPkktrYP09PNv04MPP0Wt7R0LPV/uGBXpHAQQHHIds34b9od/UjaLuZzs3GWGYI9GmApvhlMvVJayjWVWvHMGpj+GfTGMh970XD5fbtZSQ6R8I1K2t++7fvoCzk2B/cN/+I0oH31dQ1ICfLh4b08zjuEFCO7u7m4JoQFhtlaQVJBe0IMJcee0xTQEUTM9xQKXryfSyMzMoHs/cRP9we99nv7of3yR/thlf/Q/fom++uv3cZm/MQFN/cKVsHGfxRZSevSx6XuskAkazjdQL7cyt2/bTuXl5eJfFCgoYE83nPbqU4GMNzI8Qo2NjQuJAWsb3XLjLRviA6AoIGJ6rCoq5RXd+uj9Wc8wja8eqxMnz9Pf/9P9dPz0ORYni71j6Jm9/bar6IZrL+L7sdwXCRW4wzFP3/3+w9TQ1M3H5WqbG0kJcQ766m9+lj5yyw0sQhbvnftQ4HPPPke9Pb3LjrkS6DG/6cab6Kabbl4mD3AU24yVRsdHpefFG+gliptnMcW/q6m5id59592AexMyM7Pot37jK1RaWubasgiKewx1DY4sDsm4gx4r+Lygxwri5fB7h53lnhcXCZ/wD7/t1tvouuuu89qTiWvAfbbyvVgGnwY9Vmi8uvdY4RmMjIxQW3s7C7YsqqioWHMv6diYmYaGxzhdQFQbvyuOxXCG+Cmh0XzsxHHKysyMqKFAA4SkgIj3rLqxD4aR3fddCdzTsPZY8b+e/p4l6Q6/IRp7rKJLWG1nYcVCZ03Cao6F1blVhFUTFzC4XZxuMctIhVX0Eops4W+B5y+RIqwqyivkfiFmFIbd0FO61t/qS1gdPXaO/u6fvk9nG5q4EF7sifVLWM0l0H9/7+d07lzLwqeogH7va1/kPHwF37vF4xnCymKZdg7JIbP7mxR4VwhLROsuLfUesRtR3eGwi7AG3nAXVlYWQJidCN9Rv+FrQI8Veq3xbDzBc/JXWAEcC2kr0OeJhifSgjeRjWsIVFgBzPzG8iuZGZky/LxW/9ajxxvonXeO8+9c9FPCz6uvr6TrrrmYMrMy6B0WCRhS3bVzlzMNhJmVhFWwUGEVOtbetIwxkIjkHydw/FOiF4z7o/KZFpt2vXqar+3LDcfy5dMSDaBRgsWgYd293V6H1zaSkZEJfgYQXYtg6GdsbHzFa8U6aDt37qSdu/wzVMLbtm6TafrBAMIIlZYINX+tuFRCrARjUg1EUXZ2NpWVlVFZaQDG+wdbDKBSRoUMi0twlsNrpeF8K/3s58/S/Q88Rvf/+Bdi3//RY/RXf/stevyZ10XUYGKD8xxa1iuBo8LKD5DBMHW5uKRECq2srGzXJ0o0gsq2s7OTent7XdbjxXxt92a9EqvFWw9BNID8gYoPTsVwFo804JOVkLC8qEtKdvr5eAPbMfEDPlEQCf6YLINiMnntKQoYviwIG/T+wQE8EMN3VhuO9adxiH3QA4djpqWl+W+prrUZfdzbFfH1FVbFEDwYQpWmrdux0WBxt5XA5wh6ivUAJ8zOyPxOG6eunj46fPik9JiazRocNGD4keC5eFososLKD5A4UGCge19mHnIrToleIKz6BvqlexwFsHnCw7AtEJs0y9AGxEc0wsWnCCpU6MgngfhYoaKTMCarVIg4JoQb/EuW7bnKbc3ISKXkpHiCh8BigT/HAiBpVQflYFcMOB6G1zC8l+AyCRMjfyc43RiMU4aoTsI5IHzwzDwN22W5Ite+AM832Pg6P9ZrxEQkb6BhgrRiNFDMk9PU3tkn4TfcDXHOEK7BFxDaJlMqC+E0biQvWnpaErV39NL0tEXyLdJViB6Bf/D5kS+MnrrgG/LSvOQB5K+AzdVYwbGQdrO4cYHhX0zcMAzvU7lMMH6H5HPkV3eLQlRY+QkSUUpKMqWkplBiUuTFrlKCByoetNLhPydW7mG8DX5FleWVflkFG5ya1+L7txlAgTkwOEAD/QNew5WsBEQsegww/LoSySlJ0mvscHDh7JrBtWCufXwxP8fCbc7KlYFT2CAvJ8TN8LVO8vfD24sIAQXxCZ+S5WaipGRjCCo04NgQNdmoBLOylxkctpO4nAulpMA1mNIzvJ4/OzNbZjQuOz2/x3XDIK5g5xpa6f4fP0n//M2f0D//P6d9g/9+8dXDNDHhO7Crr/QCgYHTGmJj9ZQVeiTEhGMmJDbDhpmvuKeYCJCK3tEADCEvcIdmZu2SN3fu2EkHLjhIB90M70vLy8g+55DfQpzdJP+6GQikzNgMJHydcf29KUGhjum3iDNVUFAgqnktBRMe7ODQoGRYX8hx+fkj1gyWjNlSt0XOp0QX8BlCzLJZLgxGx0alx8ndJqcmJd1h2rr0Mni25LyYUSkEs9LENcCZF+kerf1wg1Y9fj+GwJBvcB3wLwrEeR3fa25tps6OTpkQYlScngUt3vYODNGp0838DBD2xE4WKyrYOdqxvZa2bang+7G8lwK9QyYWLenpqVRfX0tVleV0wf6ddMHeLbR71zZCdHD8BgM8WxiGnYoKgh+yBPcF58PzSknihhpbssvwN8oVBMg0hIWEJgjys8U1xPM1ICyEpyG8A1ZuwIxA7IfhUKTzYKZbsJgnPK8hUSpg5LO83LyF8hWSx2Kz0pRlirJMmdTdM0L3/+gJev7Ft6m5pYPaO7qd1t5NxcV5tH/PNv6u90CZp8800gdHTkk57g5mCRYVFtJ999wiaSY3L1d++0bg7DXvE2dw9JyPj4+FxCYmzM40x+kd5UmghlhaGDad4LIAEy8wVIvI9YZh2BU+pigrxsfHZZgVvfeyn2tfIzC31WKVCQMoRzY7Md1jFWUiWQkyKNSwDqWnjYyO0NDwCJ1v6qAzZ1sW7FxDGwuyYa4YIst5O9Sg0ktLTxP/IkMQ+AsEFOJMjY2NSUHti6ysDLrkoj10842X0xWXHaDLDzntskMXUF1tJQsTFh/ezs3bsrKy6NKLD9KN111ON91wGb9eRjdcfyXVVFUtEVXhAAIFvVaGmPI0CMFQY1yDN8P9CLaI8gbO4+38MIguX8OP6PWFKOzo6KF33jtKnZ3dNDoysmDImwiVsVJaWsDHz4SPHJzXcS0bBZ6BsV4lYqOFynAL0FuFc63FkF4RrR+VaSI/FwzluhuEMp4ZzgXxBJ89pHNsR+iM02dOiz8rxFY0EXPhFtAaRmKdheKe5cSQyA8dCYNT2LnGc17DLbiDBDI0NCQVrIZbiE7Qgjpy7CjZHWiNmV1bF5H044inDz5slkCCBiiQt22r4Yp/H+XmZC6poPAZhhfx3WARKeEWkAc6uzolH2EWGYLTouD0B4QdOHL0iPQM7du7T+4PeoyMIQIDlFKYWYkZfiOji0OH2B++MlbLJOfJoWXDN+jtwZpz8PXwJhg8txnhFhDqYPf23SLKwgnuqfx+uax5qq5wLscTLpD2cQ0Qu7i36D0oKfIewT0UoDpCOIqu7i4WzHXL4li1d3bIOo+vvnqU/uL//DsngHkWBkt79D559230q798L6fL5ct54fgPPvw0/ee3fyqNI/faz2KZod07d9JPfvg3XOGflIlKiMy/ESAv4fcaveNhw7gfIX7cqIe/873/prbWVqqurqZbbrlFlrbRcAubEGSq5pZmGhgYoPONbXT0+BkuRPrp1OlT0k25yTWmEkbGJ8z0/Etv0+PPvua0Z16jn/3iBfr2dx+lF18+zIVh7KQlVHoYPkKF7Cs+ky/Qgq2pqZFhH8zcg88ThqE8wyCgXkcLOD8vm2pryqi+tkKstrqMCvIQOytZxBn8PjzN6IXxZsrmgJ+WpBUEc0XD2Siq1/UEfWRRHBPng8jcKBDEFn5LGGbHcGjYjBsSYt4+C6Jhtm0XN8ZQ93Z0dEgZEk3ElLBCYf3Ou+/Rj3/6GD3w0yfooUeeph8+8Bg9+NAvZEp8lD1bJYSgFQnfAatlmlu6bIhrNT1Jnd091NDQyi0y37OSohH4xcDHYjUndE/wPSwyjKGAEX5FSxbxpbwtWQIhlJSUSAjo6W4pyckyAwkzdj3jOmGJJwx1bDoRhbJoA8ujja7o5PxeLgFDTxBY6wEzSzFcP+PAmomzLoO/0KxMkoBow/k9xX24WRgudQ2phcLQmYDGkOEThXJN1pqNX/QPnebyDT1ncI2AXxS22Vl0Iq/jPmHUyLhe5F+UA9jH2/kMw744lvhcBdgY2wzEXI/V+cZWeuzJl+ipZ1+jF19+hx59/EV68ZV3aMI8KYlEUfwBrea0tGRuQSdThmHpKZzGZmlwaHTDC+WVQD7wZutBhiugXQI8DByGEbUZkwQwAQUVHpx1UUD7CwpxtIDhbI5hSHcryC8ITlypWMMlLiIJpFFU5lKhByjg3ZllEWWzzbKYd3CDyGlWNoS+QA+ocWz8+vXmi0gHYgp5D42b/oEBmbSDyWBDw0M0ODgoYsr4rKe3Rz6HKwxe8T2M9GC/np4eaWgiL/cP9i+IrZVYvLXRd49jSljFc2snJ7eMWyZO3yxUBjarjRKSsik3t0CHBpR1geRjTNOO1AJZWqQsXryZiKMAWBhO458Kn6j01HQ5TiC/PT7emefGRsck5ADuHVed8hoIuO/ozfBmmzJf45I38LLl2W7kBQCP02PG4gwX3hIxf27tDZcZxzxNW2ZpegqLLTvNMu2g8tISuvP2ayX94rejZyXawQxUiCgIpYbz5+jwB4fpXMM5+vDIh/TO4Xf57wYaY/HUz593dXWJs/l77x+m4ydOUEtLC7W1t9GZc2foxZdf5H366dSpU9TR2en/BB4jm0dmcblmYkZYnT59mh79+aN04tQZyZzu4H3fwHDUt06U2AbCCU7JCNGA9cHcDc7CiCeFPOBpvsjKzhJ/DAzN1NbUUm2tc90wdPP7CwQZzpHIx4AoUxTgKeo4lcjwsAXDTIag94Kk1xXSLL531WUX0F/8+VfoG//w+/Qv//AHYvj763/2G7R7Z73468G/yhFAr+lmBX6J8ONCbx1m+cEnET3AyNPFRUUyeQGzfdP5M0wAQYwx3B8Mr2MIb3pqWiblICwFvlNXVyc9xQgyG8vEzK9HCwdjularcxzZndlZOMwido5rg6JEIUj36K4fGXNOS3c3LHCLmDbDI+PU2zfENiivA4MjNDVt8SqwMFstjQtVOJ2joEXvLwrlQEBFh4IZ8Ws2Zc+SEjYQzBLiCkN1GN5NSoIAwjbHovF7B6b2r9AFgskPt9x0GX309mvpo3c47S7+Gwsw5+dni+M4or+LuIvyJIn7iIkjEFAIeowGEhbwxszLQhZIhYWF/HkulRQVS3Dkqqoqqqqskpl8mDUJEVVeVkHbtm2T4Xgco5S/Hwu9fSsRM8IKieHQoUuprLRkWYsaoxGmjHQu2F0bFGW9bGBaggiyugLwYXkOmDQqbFZpYKA1jtAFnoaZjmfPtdC7752gd8SO0+EPT1NrezcLsqWLGAMMsxlCCr4YWIQZgR1X6uXyBFHQ0RJGwR1IT5cSWxg9WE4fq3lOM1mUX5BHDgcCSzoWzGZ18Db4YPlOg+hZQXmfmZmxxLAd4h4NEDQaYsE3D3kOwqrSJap279otr1gpIp3vgUTo578rKiqkDsUi4wjvgijrWHQcoRG21NfTBfsvkFAr6MGGSIv1vBwzwsqUaZJ4O+XlBZyB4HeB1rLT0tKTuMWcyXttYG2obD48ym6U5QizEMfZynMoI5ygVX/s6DE6ceosvfzae/TK6/CJOE3Hjh+jWYfv4baungF66NEX6J//7Uf0z9+E/Zj+5h++R9/45gN06kzTsp5eA/xuRG+GeAvUp8lwPIfow+wjRfGG9EBxsoL4wZJABy7YQR+94zqJnJ+cDBG0aAkJzgjyawXpHGsN4lyxBgQpZvWdPnOGWlpbnPcd/60gVJXlxIywMqat2m2TtG1LOZWVF1Nubg5t315HuVmJNDk5wXtp4lH8Ay1ni3WGpqYNs5F5ykrxnM5Ky7jFlpggPgiYQYMgoysNTQSbGbudjp04RY8+9iI9+/wb9Azb40+9QqdPn6fZed/CCkN5cFSFH5bTxiUi+slTjRJV3mKxufZcCoQUfKt2794tlV5A8G2xI1QDC7NAZgIqMYZkH/hWOausgvwcuuWmy+l3fuvT9Ae/90tL7OYbL6PsrLUvRWPhfIvlhZCPNrKBFE4gJhGH7sOjR+nk6Qa2Zjp9tpU++PAY539nnEfFf2JGWAFUbsVFeXTt1ZeIXXH5Qbrphsvpkov3cEtbe6sU/4FQz83Jpry8XJflsbjIp+1ba2jv7i0yvIxpy4hIjhgw4QSrA7R39tObbx9lgdVAx46fk6G9zp7BZRHN3UGrNCkxnkwZcEZ1WqYplQXWJBe6g+Kf6A10UGGNQAwRYG25tfhKYehAegi0baP4AL2baBwjeSUnJ9HePVvp0/feRr/yyx9btC9+jK687ACn23TXtwLHPjNDcXyuWBL6qBt7enrp9Tfeodff+pDOnuukE6db6PmX3uTy4ySZJ8Nbhm12YkpYYY2iz3/2c/S5T99Dv/dbX6T/9Ye/Qb/8uU/QH/zP/8mZdG/AjrdK7IK162647hDdfstVC/aJj95IX+aC/bprLiIbF87NrS3U0tYS/tluXPPExaexUIoTsQSb479n55zBD/0B4giGPAGbscN3ZeXfgUovkAWYgfhY5eRQVWWlxKGKkQ4CJUCQphB532TKcPaKcjqREBucfpDu3A3b1gOOMYkFxmOoPkDP3LTFRh8cOUsvvPQetbb30slTTfQi/93ZMxRQnlZiTFgBFPxwSkxNTaGMdKeDIpZJCMjZTtNYzIOhhttuvoI+dud1TrvrOrrjtqto/77tEg0c5dAcYu2wkMGiseEEs1zHJ9DCXFRRMiOQC04IpNXwWoauqMjWniHQK4D4ODDMTlQUb6BHBVH6EXcJwXmNITqjAeBu6wVLrmDd2bKyMteW6Af3d8Y+TxYrIqkjph0iz8+RfRYTYeY5n2JCgGtnZVViTlih9W1kQONv49UnnKDgEDw+Ni4+KJhlpeoqukF6kOGpxCSvlpaWSjVVpVRXVyG2sG5dfs5CekJMGBDuJRuc517qeIttSYmYxRdh6ZZL65kZ59IWK+ZBJeZBZY+e4FAP0RkhCBCbKVaAi4DN5uD769ErPR/H5Zedt4doia4ozfI69uUHUPNWi1XWE+xjGx8bc32iRDMIhocZa56GAhexl1AooFzwVjZAXCHwHvyGsFRLOGfVYAgjJzvD9c4JhkfS0lMoeY0znUT0hKAQxLBLdlY2paalURa/Koo3uCnM/0fPiV0aKjpLLbgghIWv4X77jJ23x9bap+tFhZUfIBMjQ2OmFOL0IMgiMrkS3ZQUlVB1ZfUyQzyXwvxCV2HvHfjzYQHgqqpqFg5Zrq3hwTE7Q8PDXSzqjJ7ZOEpMmCPr9AjNrlRALvycxd+FRsXs3JzMcgyFzwkiPlfzPdpSVy/BRhXFGyiDkd8SOR2isYKGixI8EhMSKCcrk7IylzbIUH5k53Bjch2TAXwSgoZapKCp00+Qsde6ppqyOYE4Qs/UMktJXTXGDQr+rMwsCbyHYYWVRFiwwVDGxRdeQPd87Ga69KKddPCCrXTPx2/h1z3SQ+QLXCNW+TdPWhdsYsJCWVkmqqoopvT04AsfFNzwe8R91cpS8YWkk9QUCeuBXuNY7rHCT0cdBB8oo05y2sqBUVfHznnQzmWEy0UmIZ4bU3MsEma4ZJjjba7dgoAINi4fUTbieQb14BGAlmSK4gvO7CgAvNlqiACfn5PKQMRMGMsNCJXLL7uUPnLrtXTJxbtYUG2j22+9ji46eGBFYQW/saLCAiouLmQrEisvK+Xv7aYd22tZUDp9xhRlI4DwRoMG+S9WG7cQTqNjE3TydAt9cOQMve9mHx47y5+ZXXsGBnqmU1ISuAFVKHm9tqaCttRV0fZtVVSQl8n33rVjkMCz3LdnHx06dIi2bN3qV5m6mUj4OuP6e1OCDIZ4QfBjQSh99BKs5SEhwQ4ODXp1jMRn8LEaHh12bUEllMYJb4ucT4kusOwLVnvHellrzfCTU1M0xOkSS70gTSGkgFEpBAukfSyojHQPh3oDRD/H+TDz1WKd5LSaTPv27pXlJqYsU3JNnuA7mZyWC4sKqaqqnPbs3ip26NJ9dNdHruLCtoavf7kog+9WMH+XbcZGwyPDsiAsegbDDWKOTU5Pik8Jwj9ApIYTBJPFkkOGEM/J4nTj9mxDDdI+rgFR9PFMEZcMPoXBTLergSj8WBA8Nzd3oXxFGYwglW0d7dJggf/iSo2EaABpEA00d3AfDh85Td/670fpsadfpZdePUwvvfY+vcz21jtHOZ/WUWV5MT8v1xf8ZR6NQQdVlBXTRRdeQJWVZXTwwC665KI9VFNdLmsCBhz8dwWQnrAczv79+2UNQvxO+HKhzEV5ttnRHis/QCJAz0NxUQnl8YPXIQtlNZBmMIu0p7tHCshQVUxoaVq4IpqyTC+xaatFIppjja/6+np5j/3gL5WUmCyVtbthBqQpI412cgv1isv20hWH9ohhGDEvP1Mqe89zTE1PySwtVHTRxErL/igbA/IPGgbwxSsuLhYxH+3An3dyyrykd25oeIy+/4Mn6ExDE42MjNEYlzEoZwxzOpn7PxwIIY2GVk9vt3w3KzuTxXQSC6w8Ksw3sYBNkwYa9unq7lpmaAQ5zxkYeJ5wWUhOSRb/zfnw6fawoArBDwxhVVCQTznZ2SGrJJXoAbPv0Gtk+ISECkxBR0seMaA8bXx8TFq4aAjg/djYKNmsVnFUlSWe3AyxgRB3KyFhnkzpiZSRgYVqkyg1JZ5mbBYa42N5Hn9oeEh6ihHpPZqY8+glUCIDVMS5ObnSg4Ye1qiGtRHW34QZwkpGVVhYnTjVSNPcqJmfc/C22QWTuHkBiCqAMAtYGxCjMdPWaWkkzc7OEDpJ4+L5bz6HfdZO4+ZxGhoZWmIQVRB/EGdrAc8w0LVFNwsqrPwELaTMLFbzGWtbskOJLTCEVF1VRbt27ZLlXuJC6GQ1PTVFU+bJ5TY5xZ9Ni+E9XiGCsHK/N4f8eS7A5Vj4HhteF8zz2Gyjo6NOYeXWoo4EUDmY7dM0aB2jCfsUOVZYH9Eba60olNCCchc9q1EvqlwgdiLWK4SgMhibmJQ1PVNTktkSKTV50VLYAl2aDcfGeaZYXGER9EAMbgUYukf+x3Hg8oAhZAzluhuO7/4bYgEVVoqyiUEIhPKycqqprgnIaqtrl5i3fVYz9B6EO6r8amBodGrWSq/2HaX/OPtzerb7MI3OTMp2RdnsRGoqRm9Zd3c3NTY1UmPjojU1NlFre2vENb5CjQorRdnkYIgEPWThNgwhhqIfDq1bLF9id9jXZIcHztKjra/RMx3v0k8aX+D3Z8hsm/K6r6d5OgsrykbhVURFqLJCqIfevl5ZG9XdmtuaqR0TDlRYKYqymcAQyUZYKOAji98HlriB71igNjw+Qod7T9E7fafo/FinvL7dc4p6Rge87u9p8GlRFCUw0BiCgzv8ruB7aRhm7MMfU4WVoiiKn6BADfYwG3qNEPrEWJzZ3TrFOpcZwk60d7ZTY3sLnetvo/GZKbkq+Fcd7ztPDR3Nru8vfmf5sTtpZCzyFoKWe+yHhQo+uvPVyznFFvZQQs4mc++N1ZShwkpRlLXBhbz0XgWxtMewZllZOVVX1VBVVdVyq6yk8vIKKi9zt/KFaNzJcYlUmpZHmYnOmDsJcQm0t2QLba+ql6WIMKMMMzWrKpYfG8sVFRcVL/k9cL5F79mKhrATNpucP9igpY8ZmegJQOvfp/HnzqW2go/VapNr8GljeB2VGWKx1jMRbhLj40WqoFcXyc3dNgMIzYDQLYZF60QRFVaK4omrkJqfn5OKYt3Gx4nWlluwhwQx6ysrM5NysrIlOKS78afUcL6LXnz5Q3rmhffEnn3xMJ1p6CDbjJ3v8zw54ucoOy2TSjPyqSw9l0rT8ygnPZPi0hIp1ZROPX29NMP7ZmRkiBhbco6sLDKlm5wXwkAo9fT2UENjA5/Xt51vPE/dvd3yrAMF58AapBAnRnBi95SCigg+KjiHXIcPg9Mw4hitBfQQGtew7DfwxQyPDFFjc5PX8y4Y34eOrk6pLNcCZo4NDg7KLDOgfWDeiKOCvBwqKc5nEW2nyUmIfnezEZakilTwTC02iwhwsSnzwvOONlRYKYoXUNlgWjNW0g+GocKJtkCaQIRVELUVjoeAgYiq7W44SXfPID321Gv0rf9+hP792w+L/cd3HqaXXjks09At8zbqnR8nRwJRfmoWi6pcKkzPoUm7hc6bu2nQOk4nTp2h9vZOGmURgt4mnM/9PO7BfyF6MMR48vRJthM+7fSZU7xf55qElYPT2fDICA0MDEivl2BoCn5FsNK2trYFAefLIG4gjNYCBB38YQaHhkTguIN7MMTbz/P5z547u6K1d7Qt+74/4L4h4n1Pby+ZJ8xSAXsDvRu4R7jeUPQORjrIaqUlBXTRwZ3SCEhLS6dUCZ2yaPFxERwXih8ZysKJyQmJi4Xo+mtJL5sBFVaK4gEEkNVikenDQbGubhoeGl7okVACZ3Jymt586yg998JbNDo+RvaZaXKw2WcsEiwRBXSzfYCeHT1CR8cbqX1ygFrZGse66OhwE/246UV64sxbdLa1l15/+zg99fQL9Mqrr0pB74l7tYRKHyJ7JYM4wnTztfSyILK2lVvxqGwwlOcpvnFM9MRh+2q2lvPjOxjKRJBIh8POgnO5OIOIgeFerGxrEzu4hxB2WB4JS0l500xynSyEO7o6aGBwYE3RvqOBtNQU+vUv302//7ufp9/+zU+xfXrBvvJr99KWujLXnpGJIYgh/mDRKpBVWCmKB9Li4//y8vIkuGcwDMNOGOZS1sbktIW6+gZYCNkoOSmekqRXK4GSuDLm4pnm+Hl1zAxSy1QPDdvGJUDoJIsu26yDOs19dIrF1ctdH1InV+AnTzexuDpG5knr6gU7fy7CAn/6MODcI3AQ7NKIrh0vvyX8vQ3oTYWPFnoQfHV2rPX3+Qt6h/v6+pw+N16uAfcFvXcWTgcQ0bhfsUh8fJys53fo4r101RUHl9gVl11A+XnZrj2VjUSFlaJ4YLSm0tLTKCk5yaulpqXKkjVYKNYfg09P1EaM5joXcacgEND7EAqwJuHklIUSErHocyIlsgiBoZdDWr5cko06zBJp3c6VM3qR8JqbyoI2Lp7GrGZqnOykcZuF+vtHqLWtl2x2yIXwCxl3MPSInhgs8i6iagMuB4JlYsIsvXcbtQYfniF6zTB5wae4xO1hYYF7Jo2fGCUlJVmGBKsqSpYYFl9O43JJ2XhUWCmKD9CC7+nr8WqYiYXWtfRmuBkwhJmnRSuQJxBVGM4J1ew4HFL6KHzcRpwRFs//UhKSKTE+ke95PG3JqaQdeTWUnsQVTlIcJSZjO4Yg4sg8iZ6P4F9rIECIQlgh1o/4WOFywpxU8LxmHQ5ZL3IjhBWeB5ZUys7O9rmuJtIYfODS09OdwWnF7y52cS9X3E2JDFRYKYoPUNFBXHkaZrTAF+VsQxsdOXZuwY6fbKTOrn5yOCC4XAeJATAs09LSQq1treIjE6peq5VI4PtdnlZAJen5lBafROWmQtqRW8018hxZ7Fb+LJ9KZ7JpzgJ/KOcwEoYVQyECA8Fhd8jwVlpamoiLsFeO/PNxD9DDh54gXEO4wfOAKIfzOtat9ApfJ4YA4eS+0c9M8YGXpBurYk+FlZ8gM2MBW8QP4baBa6sSzcxygQ+Hc282MjJOzzz3Fj3w0LP0wINsDz1DP/7p0/TQoy+IDw+ciWMF5AdUjui1CmVBKkf2VafOzlN9Ugldk7mbrs7cRTfn7KeP5F5IV2TsoGvz9tLW8RJKOs95eNIheRmXmZGRSvERUPBjeAs9MUZvUbivCEsTYag6PT1jQ/wA0RuFvIY8g94oX78fgn3GNiOvSGfynsWWjbe5GxzbVXwFAN/wtdRpzu84Dc8jI8NE2dk54iJhGN5jBiPSuE+i8FGpsPKTWTu67Ke9ziJSYg/z5BS9/Op79NgTL9NjT7I98Qo98osXWWQ9Q6+/dZTFVwzNWuIyE74xGErK4MrZPWTBakhvCVeEqzkjw58KDusSGFGCIxo2J7PZZmw2Kp/PoatTd9CNGfvoxvS9dF3KTro6aQcLrIuprMNEM6emaH56TsRDYmI8ZZpSxBl4Zfjz1XZh1trYgsM6/PUgrBBmwhvQfk7B6s2crPX8OC6G1TJNJq4Y013nWc5Kx8d3xFzvAwXfTOH0A3G30hAfnjcaNYaY6urup5OnGunEyfNLDNsRqywawBp8M67fHBJDGBjOe8iz8AENxCSf45lgnc1ZB+VkZ1NxcTFbiZsVS0Be+PHhXDKDln8T3sPwt+T9KBNXKqz8ABkawz8tLc5lMTZiqEOJLFCoZGWmcqGRucRmZ+3U2NjOIjx21pxD4djf38+VnU0Ka+QXf0GhiujdqDAFH19NZ/GRl53Fx3dIMFBUODB8b3h4UIaSJjmPwgEa14Des57uHmptaaGBgX7q624hm2VcBFV6eirl5qTS2Eg/H2NlAbwgNPDiy1ysRVrgOxlpGc5hQC/fxzZDuEAELrd4MfiTLVxrAOBZYeKBdcYmlZ43IJgNp3FvZlxfHP+9VnAciCufv4E341qn+bmaJyepq6ef/vv7v6Cv/PZf0a9/9X8v2G+w/egnT9LQyNpiekUWCIUxSQNDnH4H+qiXDa+e5r4dfxvmbR/PzwY57yDfpiSnrslQFw6NDMlx0EAoyM/ncrBgicF3bmB4gM/XT+aJCcmjyJ8wya8skuOiTFglfJ1x/b0pQcEMR+JJzmwF/BARQXmtBQzWJ1so4N3AZxauKBE/RUQVJwIkoi11W+R8SnQBp3SsGwd/D/h0eIL0ZbXM0IlTTRJfyb2iczjmqLCwgK69+kIymdJd33BGFPcMQLlekPYRwBLpPikx/E7HZrNZfldmZqbkm4L8ArkWGc4JIA9i8dbjx4/L/U7PSJcWMHql3MF9m7E7qLef8/oUeo0T+EEkcH60U2lxLpWXFtLY6AhN8DWNjY7R6PCoTN9HRPHamhoRZjkszA5dcoAuO3SQLrloL+3auZUqysuX9JKgRxqhB3D2ooIiGZ7CdeXl5vm0/Lx8Kioskt8e6PNF5GlEHDfOgcpGopfj9rFlZ2VTYlKihP7AcjsrWWlJqfQYBgqeIwKUmjIyZAYr0jwqWzzDjPR0FqJpEowSPQ/4nb6spLhY0kCgjuUoU+Gbh5mRFRUVkq7hy4j7YZSvEJiI8zXF14aekabmHvrpQ8+wwOrl+2WT64VZ2XZsr6WLDu6hrKzFKPqbDaQ7pAs0OiycJvHbQ2FI72iIoNcY5V5ANj8r38OMXSsfC+kW5cAy4/xsnE8aX+i54u/Bv9DorcYwOAQW0jny0WZHe6z8BH4ASAAQWfinKMvgigiVEQrF2Q2ebRZOUOmZTCbKyc0JWFggP6FA7ZWlZnwvb5Gamkx7dtfTHR+5mq675hK6+qqL6KorL6LLD11A9bWVfJw5Gh+fEFGFnirn8igzItDSWRRceOFBrmx309VXXkg3XX8ZXX/tFbR3zx4ZwvTEeHKoECA0ZF3BSt9WWVEpIkAqC7ZAywdjWMbTLw89gTgeBM3StRGXWxkLRIQBQeWF7wQCeqTga+Z51fgddj5WGourstJSFqEVKxoEpuH3hOcaCBDoq31DerVYgMIGB0eoq7uXRVwcC/nEJYYh4wB0fWTCNwPPBcPDof4tGI5OSub7Fqix4F92fa4GwRJzQ87FIgrlJIInYwQIwh6NsWhChVUALLTCPRKLorgTa8kD+QJDNMaCvGiA+Iv0BtusVMoVdx5XzBBp3hovOAd6pT5z7y30//vjX6Gv/+mX6ev/68v0J7//ZRFLiVySoXcllQtoVOwowOHfUc6CA/5LxcVFlIXp/FkZlJ2VKdvSUtMW8/QS+Ox8DYhIniCO3fA/8m1w+o5nYYAhqmnrdECiAvdKIp9bppfeNz4EhN2YeUwWgrY7ZlY2+4y4KwyPBrYYM35/PFeOiSzK0OPqfj/wO3BdlulpFkzuEda9G+470gB6m/DeXzDMmJKawudz+r+txLzb+eLi5rmSdi7h4m78P95zc+dC/A74nEGsSk9wlBkWQ//ggw/o8OHDNDgwKLNiA22QRDIqrPwECT2BW0zitMctCUVRnKBARBd/R0cnV/KBOQ0jX2EYDMMCGM7HEMP01LQczxPsm8gVL8QTvpPGrw4WFTYWHugtg6EHCrOQpEIqKKB8Nuzb29vLx52iJBZKOI4/1S78trp7u/y2nt5uGh0dDUhYSQXKwizFS6gFDKOMjIyIi4I/BlcFvE5ZplxHWB1c69zsrJwLzsTu144eNPQm9PNx+wf7/TL47SAmF/y2/IZPKb1cc05/L19AdMnMyQDu72YGQ+yFeYVUlF8UVVaYXyiLnR/58IiIq/6Bftcvjh5UIfiBUfhjlkNRUbH4PfBW54dKTLJy0R7H4tv1Z4yAmXk2qzWgngqA/SF4IIJGx0ZlKMnw8fEG8iKGhKSRwxUtKp/qqmrasX0H7dm9h/bt3UeXXHwJ7d+3n7Zv205b651+kDnZuVRTXSNDlp4CxhfwfzKcbP0yl59JIMIKvyWRxQJ+jye4NxAcuBeBmPiBBgDuYyI3GJc9O/4ZEMroMQvERCQFKH4MH8GV0g9EM4Zm0dtoiKvAzrK5wD3Bb8YwWSgMx0ZeEN8oV4MI6RE9iBCwhsHBHL6KSFsA25DGsC+eM46BbXiPIXh8ttJ1Y6IGQnygEYKGA8oN/5o6mwcVVn6AhCN+BuVlVFZWSjk5ua5PlGgjkO5oRO1GRWDMUJPpw7wtOTmRsI4dCh34uwRa0YUS/D5cly8LjMXCEP5AqKBxP/hIrq2rg14RONBmZmU6RcHcrIgUf6fL53Je3Lp1K23bvo127dpFBw8cpEsvuVQE1pa6eqqtqZVo3nBS3759OwurTL+FVThw9oBv4PXwqUVYJSauKGpCiVExI9l4TlpwBxU3KmwMzwaeVhVPcA8hhIeGh2lwaEh6O9FLOzoyKqIHDR0MBaMnFJNk4AeJzzHci14miC3sh88xgQzHwqQf9Dz783xQThhlRSBlxmZAhZWfwP8AhQ9m6MB/Q0oBJWwg4zlX+V+rzfll/goM7GOfcXDBg6n9M/JqnoIvzBzl5+XILDQMr4yPj4vviz/HDAeoPBdm63hYoBUrWrYS+I9/Gn5dAucP+Z0B/FTkqeKSYmpqahKfKLRcnV/3/yComJ0O2EvDAMAMEYXXSBJUBrgmiCuI740SNjgvHP0DdXoPFsjbSH+omH09I+yDGZ9nz52jjo4OEeCxQCjTLI6NIfhhRL3v6aYjR4/Q4fcP06kzp+itd96it999h9r5XiN+I8RTW3sbHT9xXIbvTp85w+/bZdvbb79Nb771pvRsoTcRz9Kv8s7YBa/+Z/dNgQqrAEBCdP5Twgn8LtBl3Nreuibr5kJjcnJqyXCJT7M6YzGtBhZCra2pou1b6sR2sO3ZuY1uvuFyuumGS7lgmaPzjefp9NnT0iMTCaAChWNxZ3entCzdrbu3Wz5DgehpvsjOzJRhNvQ21FRV05b6LeLbBEHjL3JN4xPSa4KWbqyB3w9Bg7Jlo3w3ncONVhG5oazIfYFeKuSRWc4zSAfeQKkL/7q01FTpDQboHV7ewxWFtXSIwLNG3oUjOSZgIKRGakqaDEFiYkdxURFlZ2WJYdYrht3RY4iJDljsGTGpUD4gThWG2HHbUYZKYyvGUWGlRDwYZkKlP8itpomJccnQgRgCRyIyt33Gvrq5em9WAzGqrrryIH3k5qvoI7dcKXbHrVfTnR+5mi7Yt53LmHkahuPx4FDEDAWiEscwG+I0YfaYu6Hbf5zv1eDQKHV1DyxYT+8Qmc1T8l1PUBBjNo8RPXxubtY1/TqAgpULY9wf+M5sVI/JRoJGA4ZbpJWPmxFuXPcf4srbMw4X8PPBQtArAeEJHx2kuezsTDJlmmhqeoampmz8ahhCV7gWR3d9T/EN7md+vjMOW1VlJVVVVUpMtJKSEgnjAbcXxJYqLysXQ1gN52ulbC8sLJTh9urqavFDhshCeJONEOiRRMwJKxQeyHR4xfpUxt8rtcyVjQVDeRiqgA9TRrpJ/GQCMRTEchx+zv6YeyvYWwGB1jOm7N91xzX0S1+4i+2jYp//7B10w7UXU062SZyRMXsNBVe40xbO5xSIDrLaZsTw3qg8UZl7GirX8fFJOnGqkV5/8wi99saH9PobR+itd49Tc1u3HMMTGW7j+4M7hOGEEydPiN9FIL8X9xeFMQpzFMixVhvKIswsrNBjhGezETifY7ykgY0qB6W3jk/tqxGC65LhP94HFXh1TQXV1dVwmkZIiFmannaahf+GsEKZof0mq4MeKGectDKZ7LFzx04J0oph+dycnIWgsdhmTBLZvnUb77uN9u3bR1u3bKVt/Pc23oZ8jGNgjcBAeq2jkZj69cicRpT2oeFRbo33k3kS48eDXHHYYq5Q32yg2xprmmVnZgVkmNrra4jBG0ZbF4UDZq+Ib52HJYifHYsKLr3dzQDd4ejFwdEQPiCcFRZ8Vd58+y16+70P6PGnX6EnnnmFBdL79M5776zYK9TbN0RPP/sGfe8HvxD77g9+Tv/xrYfo//3HgyyaGrnS817x45eJIz9/jnsWSGsV++LZwAl2bGKcWNa6PokN4JOylSulmupamS21EaDH4tClh6Ry3IieBuQnnPvqq64W0eQVXBcnDeRNXOO2LdX0O7/1Gfqrr/82/fmf/Drbr4n92R//Gt1+29XcuMl0fVHxF5RRMIQmwUoImOFnbFMCI6aEFSqVl15+hR58+HH64QOP0f0/+gX99GdP0g9++AC1traK87ISuWAtMhTCEFiBGL6zlgoD/kMlxSVUWly6xEqKSsTnABMafAGBAT+F5JSUsIsFRMs+faaBnnrmNU7v79CLbM+98Cada2gRAeQL+LkMDY/ILCHn6wgNDA3R8ZMNdK6xjT/3EQKB/+F+7NixI+AlVfBcnM8nPibzHyot9FRhggP8UyAcwl2NIfK9EdhzI/wB5febzXIPJA6Ya/sSXBU8el3RcDBlpNEF+7bRrTdd7hqKx5C80/bs2iKTRxT/QY821vts4XqwraObywr4p3ZRU0uLzAaMxWH69RBTwgoZ+PD7H7KYeoJ+/OCT9JOHnqIf/+Rx+ulDj0miUmUe2YSzLQ2xkGXKpLKSsmWGNdngX7CSWMNMLzh0YlHSdNdQZLjAUGZP3wi99c4xOnW6kU6daqT33j9Fff1jK6ZxfJaYGM/XnbJgWaZUcfzv6R0kiy9hxbcBvR67d+2W3xyIiBVhwYIK69FhEd5oAJUUesWxxtuEeYrGJ5x/w79NxJPbM4BvESZMTPE9xveCAY6PaO4QKZNT09I7PzI6xn9PyVAtxIk707wv1lVE1Hxcz3qBNERFDF++aYuVRscm5BpwLVN8DZ6TFFAuG0FOva3NuYhTXBk9p5mmDKqqLKH6uoolVliQy+nY/x5qxZlmIareevuwrIHa0NhFR4830Jv8vqm5JWhpM1aIGWHlrDQSqaJ6K2f2OWml8UYucCYoOa2AyssrN2xWjhKBsDZArxOGqbwaCyend5F3sA/8hnbt3OUMI7CGHrM1Mx/HlQ/W41pMz3O8zeaIk0osEHDd8BdzOGbJ4cP/xZC8MnQaYO8g/GYw4xOLL6diiZkV7ummgDUT3A3ONpyjzq4erqQa6Mjx09Te2U1tHe3S+ncXVvCxQvrYuXOn+Kjg96/3DsBPqbm5mYX1O3wdLfTCy2/Ta29+QOcamujIsaMydd4dTEKoq6sT/xj00gYDLKz96uuv8W/upHcOH5NrOHe+lRrOn6ez584uuQdIL2io7N2zT9Ze9Pr7eWNcQrxE1S/Iy5f8pQQP+Fk2tbTRzx59jp594R06dbadnnnuLXr0Fy9QW3tXzIS3CBYxoyQQ4OyNt9/kjN1KVutinA1UNDabgwaHx6WlpSjBAOkLwyvoNUAlEE5hhUkZk1NL14tDLxYaE3YWSGtB8osf2SPQ34njYmgHITEwg9Ovk0Qw+D1YXPaRnz9B/33/z+gnP3uaHnr4OfreDx6lHz3wMJ05c0YqsQX4drVz2YTFaD17ktYKhFV7Zyf9/LHn6Ec/eYKeff5NevLpV+kHDzxOz7/4Og0MOH1nDNCTBleIru6u4JSBfAgMK7762pv0vfsf5et4Ua7hh3z++3/0CIu7Y64dnUheGRujU6dO+rwHTsGJBsPaFnlWViaOpcDsXBJNTjtoetpKmPgybbHRlGWWt6P80k6HQIiZu4XuZzjlDQ05l81wB63xKa6INK/GLhi6QIA7VPLBqFtwvIGBAWppbXHOlAvGQf0E4iYl2blEiAG2JSUmrugXtiIhunz0EudkZfP1pjiXKokCbDMOfu499O7hE3T8+Dk6eeo8vXf4JJ083cSCY9q1lxM8l4GBfhkGQ5oJFnb7HDU0dtKRo2eoqbmDG5Rt/PdZau/oJ083Owz/IZI2riF4zzmeenpH6fAHJ+nsuWa5BlzLh8fOcYW9VDwhbyDvQdxh5q8v4B8oseZmvA9JK2vHMYsgsZgV7VwEHeAVVSW2zzrU/zgQYkZYodBGrI6MjHQZsnAHjezkJAyduDYoMQfWeRscHhQRFAzgk4Ahrvb2dvHfC6OuIsxYzC/Ilkob4P/wOcnMXIsfEy6cLUR5IykpkWpqamnHth0SDyfQHq9IA9dvMuVQdk4JYfk1VE4wu32WUlKyKSMzT3oPjSFZxABD/DS8D9ZvR+9CVnY+JSZlLpzHWVmy4E7LpvSMTOn1MT7DeSFaMCwZLEx8jozMIj4uKmrnNjlfXCoVFVeKQDKEpPRF8TVgm2fZbIDrR5w05Cvnb1GCCcLZwJfSc+YvhC46HWycRhX/iRlhVVpaKuuI7dxRS8kerfm01GQqKlrZGVmJbiCo0KNpmV46hLZWMG0cMWGuvfpaif8SzrSFBZEH+9s5XSdIwE4MRaYkx9GUeVg+Ww3UW4ahwkVhCwEUGodgZ8Rx8VuLAr8ZxE+Cs/rg0JhryyLorWppaaem5mbxQYJASE5MdsbwCnA25UrgeXV09S3rmcfzHB4eo5dfeZM++PAD8QUDiPNWUJBPaenBm2QxMDRCZv69y0QQv33//RP03uH3pIcKYLYvYh/lFxTw/ksrdgPkn4yMDCovL5dF8LWsDi5ocJlMGcuELcoPdEakpCytM5WViRlhhRgxiIE0YzNTUWEWtygzKTUthQVXIScqB6t1Z0GnxCYotNGjiWjOwQAFFJyRi4qKFgKUhgsE/bvo4H766J3X0yUX7qADF2zhv2/g190rihdUcA4H/LOsC2aeslFObjZVVZTw70hx7RlcUEkattlBGYLWvc1LQFUsLN3R0UWnTp+SkBbYF+kElReWSPLVWxMoGFqzWjD70LXBDfSOYcFdrApgDKmhJwm9VYhDFixwD3xNdhgeRnT/LhodH3Vu4AtF75WIfp9pwPljcI/w+zxFYyyBO4G0483WCmYDp6aggeOME2ZYIr9Ho8wZty944DliJjBmTCfKaFF0CeWYEVYA07pN6Sl08YW72fbQBft30hWXHaTdu2o4o2pXZyyDVjDWzAqWkyYKCoiYtcbQWg+I+H7tNVfRR++4ia44tJcuuWgHffyum+nyyy6VuF6+SE3F8hZ5EjrB+ZpHxUWFdOGBXbRrRy2l8efK6sCPzVtFhO3zhMkyzlUEAFeHUiFi/2AJK0TDx1pu3pJdUnKSPFeI/qQk17Aw6mPeOX6Vma6BAB8/BNf1RlZWJjdkTLIqwQJ8DyDsMQPVG7hECEDxsWIzhjFjDaSViYlJ6ujso7a27iWGbZi4shaQVtLTEqikKJtKSwooNzeLSvi1tChHer6DXYKhHNqzZy/t2rVbZoRGGwlfZ1x/b0qQwYxo6gUFBTJd2FdFFs8V3batW7mCuZguP3SQrrnyIrZLWFwdkjWSxibGZAx/JZCw4WiJmTRb6rYEbXqy4hu0fDHDDn4hOdk5Euog2CAdvfzyyzKbqbKiQhx5MUQTLFFkiKxgVZ4A14zZrkj3SYmLggnnQDwpDHlPTU+KINq5Y4f4GWJdOgxDeYJ7inuLoZYt9bV0YP8uOnDBLs4fF9Idt11BW7dUifO7JxAEKCSDdZ/EN210VH5PoMFGgwECZA6PDElFHii4B7hmOIefOHWexsbMrk+c5OZk8728ge664xZOW0WSJhDDaojPl5ScLEuH4PxGLCn0KAUqIHANKJPmZufp9beOLPk+PquqLKUvfOZjtH/vHkkjSCtYJSCZRVYOi60MU8aSYKVrcajHRARUloijhnvg3pMCcfnRu26gj91xq+QvOT9fF0Qd0mlxUYn8fuRDBJ01ylcIPqQNbMfQMcIuBDMvRRq4Z7j38CtzB8/z/aNn6YknX6H3Dh+jI0dO05GjTjvT0MqNqL0ybB8oM5zWRkeHWXRnyRI1EL8XHtxF9bUIkFxAFRXlkkaCBcoMLImzd/8+Ki4ukuWsxsfHZRF3lGebnehNmV5A0Y+xfAwJ5uVmU2FBPmVmZkgLbknryQvia8KtTHRBB1rYKZEPfKxkIeKxMalQNhMIBjkxZV5ik5YpstptVFRSROWV5TTJ+0xZp6WwhsBLhNBzM1RSqalJVFNdxIKqjq1ebMeOSsrKTiPrjHXZOSa4AsZSUMHMD6hQ5jbxMA/SztysneYc0ywYFodVMBlzbhYzj20ieI0hWfQgYR02lEtGb9F6Ux+ex8TEMM07psQvzilc0CM2z0JujCbN4wsiH9eL4UG8YkgSATyDAdY/tE4P8e90CjqYsxfPTqPDvSIkcQ0An0EolZaWrRigFO4cWPUAlW80iyoDBEtF2AN3IJ6+d/9j9OobH9C775+idz8w7DQdPX4u4CFSlAcQq1PT01RSWsJiZzft21PPDaoD/LqF9u7ZSaVlJXItsni7h2HSj7tw9hekfyzgjPUIIcSjjZgSVsAoUPCKAg5/Qz2vlFGRcKRlOTQkhhadEl2gYoHD+Wbz3ZBKlAtGiEJPm5gYl2Eh+DDAn2V8fIwFkk2GaJD+E1xm5Im5+Vned55MGUlkMrHxa0pKHIsnC43x9z2PP8IFK6J5B7uhsYZyOnLga4d+KC7Mph3ba1g0lVBZeRFt315LtdXFLA6W9ibArwnCQnqqEJ8JB1jn7+fDyXl276qliy7cLb2NO/j8cH/YUlfOlZpT6Ah8LsTVQgUp0eItwZm8gQNXlOWJ2wXOXVdbSfv37aALL9hOGWnJLgnpRMpXFugT44jQjt5C7zcA6TQzM1N6XheuP0rBPUE9A6FpCBe8nm1oow+PnqH+wWEaGR2XANdOG+c8OsF5MbDEY3fYZaQG5QPKgIyMNL6/SVRQgPucROkZqbId+R2zpt0NzwrpZS1LUeH5oQcMzxQ9ptFGzAmrtYAEPc0VSFtbG7V3tLO4cs6mUaIHDOEUFhWysOCKb50VWzhB2sRyKLLWmqdxRQnhg14IvMffaKFi/cJkbv2nuAx/owcBohKVK1qnC4b3bGYzbPHYk2yyZAp/FkxhhV6bNcfaihBMXPEfPLCLPnLL1XTZZQfo0kv20W23XEXXXXuIiosKlogCVEz9ff0SIBS9BvxAXZ+sHVSENdXV9ImP3UKfuvd2uukGrKd3FX3mU3fQrTdfR8UlJa49F0EakVha7sFL1wr/PFNGBl115SH6zH13uH77pXTPx2+mT/P73bt3L7kHSD+IBn/m3GlZWmcz5b9QAXGJvOU+FIu83tHeK/kUvsIZGUstnbcFIjhxPBwf+XlkdIRGxkacjSbO10saULxdPvdiFm504TgwXBeO52k+ywdcqv+Xu6mI4xuyqZMxHlzD+QZZKmL79u1UXlYuY/CBgpD9pzlje+sKR8IYGR6hxqZGeY8bhi7MW268Rc6nhBYMN7V1tElljtAF7v5EwQKFy3PPPyetpztvv5ML+TO0b88+qaSCAXpF0SNmDAEFA8yieuOtN+WeQCD5W0b5yvCBlnGoDFPT0qiGz4/fFgyQ/5pammW2UGFBoWtreMB9GeOKpKHxnIRNCBSklfzcfFm422Kx8rNOlNlxOFRqCnpp5qWXHDNQjQoQvY2H3z8sfx+44ABZrRYWxFwG8cf4zJ/wGO7gGirKKyg/J196wBI4r2DxbGyXMDPzcyykkxf8ZVCBoyJtbWuVxgXC0qDCxNA4eiLQkxUomaZMqq2ulUj/SJdWG+J0zRKm9BvZCf5dBijDO7s6uQzvo61btlBCUoLMGqyvrafy0tgsXyFwMXs0LydPeumQXlAP/dO//Ji+9+NfUJYphe/l0hybm5tND3z/7ykr0z/fRFT9aDx1dHV49btcDTSCqqqqqLigmOyzdhrmOhLDyu4lDPbBs8aEGE/Rhzq3b7BPeioz0jIk5t/WLVtlMffNjvZYBYChzKWkVKIKtLYwHGMMBaJSQfe4tNaMltw6DH5QwezZcQeiBkIEYR38Mezrzbztu5JB4AYqxvxhnu8TxPSSnrMw2BQb0oABfh9CV/htrqEN3JvCggLKy82h0uJCKispFJ/OXH7vLqoAfDsxcQBDYUh7UrK4PsYMubRUPJv0gAwiHteAmX8Z6emUn5cjjvOmjHTnpAY3J2RUfLhm+PLAZ8ZzuR3cA6zhiOvw1+Azg2uAMz5iIOXlZVNBPgSCSc7vLqqAU/QlS0DdacSR0+J1BSLv5uCKrNyQaGtvo/NNDWznF6yB3/cN9IWs7ItUVFi5gQJvJUMBgOn4mBZsbFOiA/QkQaCgYgAQ0JhBZ9iUZWrNhu+L/0yIBLl7Gg2ngWD/Ijku/4eem7Fx+I34Z6NjY4TZhN4MM0q9fcebQQAboOclNzvXb8OsSgT6RI+5571yN3eQ7kQAQXB59EBA8CAMCGbH+Wu5ObkLaRjgdM7zujZ4AdeAc0HYucey4m/J78njY+bm8PH9NMzkk0XKXSfF/53XIW+9giF4BAddyXk9nIQqr66bCL0slG/9LKDQ0+huWAMUPaARez9DhA4FukAPxdnzZ30OBY6NjMlQ4BynbJQPKMBuvP5GKi0pde6khIxwDAXi+WPl/wROO3t276HTZ09TfV39QuWwXtCTgJlPqMCChTEUuGP7jiWVabjAYsPxiQnizxOs81usVmpubqJx80QA9x5LxtilLPAE4gAz75xDsIvroPk6No4zzWIY++3atssZMNbPy8C5cNxAyh/4WGHYDQ7ZEFcox9B7hqtEzKuq8qqAh1kNYecv6KmDDx2GnJA+e/p65JpkaDM/XwLnBnI83Ad8118g6NBbBjGWnZMtTtud3Z0bNhSIZw8L5DcEG59Dgd/4EX3vgcciaiiwqKBYJrK8+c6bspi2J1vrt9Llhy5fVvbpUGAMgIRbXlJOtVW1y6yupo5279pN1117HV1/7fX8ej1desml0ppUogMUMiPDwwvLfCA9YBsqWm+GzzD9G5WeP4ahkUAqp00B/xypxPFHkEB4AMSxqSirkErV3cpKy7iSL+bKN5dFas6C5ebmi68XKiPMcnI3FN4IZVBaUibfRww68SXiBpG342P4SqoMflaoWKU3Jz7RL4MwCLRRhyEwXN+ymW78p3ENch18bH8t0HSWwukTvxvDh569Zmu5BuwbCNgfZWkkxKZCemltb5VJSvg74uDng7LHKwE+93ADfz7cU8NkeDBKO7JUWLlA5YAubG/d64ZD6pb6LbS1zmnoOUGFqUQHcODF7KyFKe+MhSthw8fK3eAzhRl3dgdmwcyxOV+xRhvSkYQz8DBU0IFWeJuBYE+VhjCByMjiVrq7wS/HanXQh8fO0wsvfUDPv3SYnn+RjV8bGjtZ7Dqkwllm/A8O1BAN6DXs7ekVp+o0zrs4D3oDFs+TJfu5E0zR6A2kC/GzWiF9hPoakD5xDb5EDc4fymvA78b5pfHhOk+of7NPOOtj1MJY7ieSwH0qKc6Xnh+L1U4Wy8yiWWc4f9jRQnTtHXlgVABD7Qs+jfx3RIrXIKDCyg1plXEB581kVpdbDwUcNDe6daUEj/6BfhFM6EEwGJ+YkJlvAwMD8jkMfw8MwQapo7OXWtq62Xrktb2jl4aGECE+dpZHkuovmHUgjsWGSsTdIF7PnGuhb333Ufq7f/o+/e0/sP3j9+nv/+l+evpZDEE4I3x7M4fdTsNDwzTIdu5cIz+3Hn6OQ85gsNxqNs6BmF9KbIN0AGf9dI9JBpFBHO3cUUvFhfmcrjlPzNGCYc6NzLuJ4DQsLjUTY4sN1PFRr8P30YAqA0Vh4EdSXFzsereIVM6uHiwg7/htb88Q/eX//Q794Z/+K/3Bn/4L27/SH/3ZN+nfv/0wNbV0yT5K8BgZGae33z1J5xtaKTU5gUymlAVDhHP7CgU0BPEDP32Q/us7P6EjJ9rpF0++Rt/+7o/p6WeelaHBaMWZclf+pywFYgo9mfAxmw8w2GaogWbavrWavvZbn6aPf/RGuv3WaxbsI2w3Xn+I1rKcTdjg24nyNBZQYaUoDLr/kefRY7X6MMQ8zdjt1N3bT53dPdTlsta2Tq78j9M7754QPywleExNWaiv3xnAMjkp3mUJlCRLtvATWaESRG/zwLCZTp5qpMGhCWpm4XvydAvNx2GB7OAXgYj91N3bTe2d7d6tq12CcYZqBhyGXDATC5Ntzjee92pNzU3S+4p9QwHCR2D6fXNzs0/D5/72WKC3A8fEDFsjJEqosNmsrqWtIg9ERr/kwt1010eupo/dee0S+8jNV3B+iGBhFUOosFIUBtPMMbPN39ltqMyTkhF/J47N+RqfME+9fQNcaTfF1HAgaiBUkKFsjULIYsZgUiKG6+Nl2A7uXYaL10pnjk9IIrsjkYZHzGS1zpDZPMV/T/PzQ4iD4BeBEOkIuNnY3OjVIGow8w5CIRRAZGKW3bnz53waxFXfQH/IemXw21paW6ihscGnYfbnjMM/cQkxBb8cBPJ1jzUWCuBnaUE8rQgEPWpFhfl0YP92EVjudsG+bTL5Q9l4VFgpClNTU0Pbd2yjjEyTFF6rIcIqkUUVF2SGpSYnUlJSPFltMywEotN3wBsQVNKTEEJHVNFsMD+ejSejI+M0MT4lkwsAjoVr7uoZJEcInhNCKCAURUdHh08bHByUCjwU4LfhGrCuKWa5ejWs8zjp9EsLBeixhS8igkP6sgG+B/72PkGoyaQRFlawUALn8HgW74GntPCALIAyypspkYEKK0Vh4G/S2dkpa0L663uyrBhzbUBlFUv+KximQQ/N6TOnJY6NTKMOBWusN5yR57wQIlGBRy9pwIfh/vBfrp1DA59m2XndLRx4O+8SC+AeYLFwJAAMs6akpjg3hgjEE8vLywvxE4oNYlXsqbBSFAYF/fTUtAzjrL9Eja0iGb8WrXzPAIDBBOUzt8nlOQVKWhqm8jt9sQzwd6YpLXZn9m6yJIqhX1TSeP6hTGcAvX0ifteQ1mIV5CPMmke4kiWWmrZkpnWsoMJKUVzAyRmzxLRADQxUeFgwuaykTEKRBNJKxb3GMM9qTsyoTLGI79wsggyi18dleFb830pnxKr/6ekIl5LEx3GGTklJSaTcnAxKSPD/WqOJQHqLIgHJk2xY2Ho9Ew4gmEZGx2lgYIQG+hdtaHiMsFg1zjM2OuYabtzAe+RM1nK9GC4NiSFIp2vyghGt318z9sf9wgLbEFYIdFuQXyDR+t0NPYDG7xDByvnW3TZZUvQLFVaKwsB53Wa3+e1MuxJc9Mi/WAGxoLCs1PETx2UoMBBhCj8jODIjJAIKXV/kZmdSRXkx7+/gSs9Ck9M2sampGXIgMOsKgUqtFgtlpM1T/ZZyKirKp8rKEtq+tZy/OyaFvRL5QHhPTk7yq52FMdYV5HQnlfqi4b1hvpgwT9F3vvsw/cVf/yf9xf9ZtH/+1x/RsRPnOT3MUQE3EtBACDSKfjBx/rY5Mk9NSrwnYzH3YBryKnro4+MSnL1NyWl+W2pyqnzHPmOX5XDwfMrLKpxBtOu3Lhje5+Tk0rh5nO/9BM1YbGRjAQvDws149Xdm6GZChZWiMJhxNutwtrz8BT0n7i1AO1f6iMCOgj8xwTk7Z6VCPmpgTYO1M0tKSiQGEFqygYChl7NnzzoXQPZxuzIz0+nQJXvpxusvoy1baqmmutJpNZVUUswVYYpvvxsslXLLTdfTfXffTp//zJ302ftup0/y3xdfeFAifiubAE5S6F1BvDLkNfQ6vf/BKXr5lXcX7KWX36V33jtOQ8Ojri8tx8ZC/sixs/T62x8usedffpu+/d1H5Lgsabgc2PjZdQlcFiFPYIFxb8IoGIaeudlZh7MnihsnARl/BzM0IdBENPG9hUjyNORv7INFzjG7F0tNoZdagi2zSagb12+OFlRYKQqDAkCmcfuZw9G5Ypme4YJv0aw2B2WwsKioKKaERC4UucBAgRLq6eEbDRexlJ2dLd3+WKUgEDGJwhlDc7Ku3wq9RykpybRvz1b62F3X0c03XC7BEMWuO0R7d2+V+D6+BB2Wq7n0kkvomqsupVtvvJK/cxlddcWltGf37g3x/whUeK4FnEIqyxUslMg58A/n8WUBgN4j8a3ipGWxWOn0mSb6xeMv0yO/eIHtRbFH2V548W3q7R10fWs56NkaHZtg8YXhv0Xr7u6lp559gwaHRkUI4ET4t1HgvmEILTkpedlajKsZRCHMc5u3z7CgPZZ6yjRlrsmwAgmGZ3EsNCaXL+XlbGQa50PDC2t1ogF75OgR+uDIB9Jb7XfBu0mI40JwU/8iVIgYhsCq8Nu3b6fysvIN7cJVgo+VWzdtHW00ya0rrNGIwiDYYO2/+3/wfYm+/tE7P0pnG86K4+XQ6JBrj0VQ6PX2jtHX//L7NDC8uCp8WmoyXX5oH331N+6lC/ZtXZhWX1tTK+Ec4MwZTGdpDIu88dabtGP7Dr/jbwWT7p5uESZlZWXU1tYmvw2VARYz9tfBGC3Xzq5OWRQZhS6GP9BKx9CsJyiqDFsEq/7PSkBOTOH3LM5QmNfW1lF+bp5f5cLgyJDEmUJBv3v7buntChT8nrfffVt+hy+qKqvowP4DlJ+X79riBPcU8ZrmRXfMU3VFdcDPFmUi0i8qLV9AzNbX1tPFF1685FkhaCmuAZHH8TyxIHZJUYmk+UAYGRmhF155ge+B78j2aSmpdMftd1BmRqZri/MZY9mTru4uquPnhsWxAWYDIj+hVyTDlEP/+a2H6Xs/eJSSUuBzZVxbHH+ngv7sj35NxLe3a+4bGKbf/Npf0LmGJv7ctdFFT5+ZHn/4G3y/nYuvX3LxxZJ+NgL4P8HfMxThQCKBrq4uuvveu2nGYaPPfvpzdN+991F7Wztt3bKVduzY4dpr86IKRFGY5OQkqqyqdE7lXrUOiWPxUEhf//Nfp2/83f9YsH/8v79LX/vNT9GObbWyDyonCH5UChvZ+g016JlARdTR2bFir5MvIGohBKQiYbGISllmZ3qAihKVvdHqlpZ3gnN9z5zsHKooq1hmqJgzuEWOawwXWNh5+9bttHvnHtq1c/cy271rDwurwAWTv+AeYTLBBXsP0H4vhu17d++j8vIK2TcUpKalsuDfRXv37JNzLTPevpPvRVKSfz2GcHKG2EB8KSxv1NnZQ4lJ8WRKT6GM9OQFS0tN5N+0yrP2+fE8C/pZif9l5Ty7kRjpFWk+VAYRi55i9Kijl87oNcbqBsY+YJLzIsqyhaj3vBkCHI0g5HvDN3KWXyGYUN4B93O5m/NDp4jmLc7GUJQVj9EjrPjB4AGjpYuHH0zzbAUr0QeGCEwmk18+Nyga4PNz7dUX0q03HqJb2G698TK68fpLJSJybg63wDnNID2ilyRUlVckYRTQRiHrL9jf4iqw4QQL52GIKtuM76jkKJsNc753ru+Wl5snPUDuhm2yTJGxcxgwT1rpfHM/NTb3UUtr/zI739hLHV1DXAGFaEkbTsv9A+N09HgLnT7bTmc87NSZNjpxspXa2vqlMgwF+G2nznTQabYz55bb6TPtdPxkG9ls/q1QgDyEXjaIaBsfe3JymuCDhDAaWNbIafGUiMCea37WKOfjqLCwUNINKv1oB87jQ8NDEsy1p6dHeit7ezl9ciMJPa+jo6MsNAfl757enoXtMDSAIELRu4gGJCaJmCfN/s+sltuLu8ziKsqUVdSU+CigMcsAyjqYBuc+dD8r0Q0cOFEWwCfAIAER1blFjQJ9qSVKZZ2daaLsnCwWUlmUw2IqKxM+Ec5hShQsGGKBWMN3IqWQxnXBCdjTsD3QBoT7b4Iwwu8MtCGCfAsRhWFStIjxXbSCcRx/QUWK5wRfEU/DceHrEU66e4bo8affoseefJ2efPatZfbzJ16j1986TiOjE65vBBeHY5ZOnG6m7/3oCXrwkWeX2U8efpZ+9OCz9Npbx2TYMBSMjprppz97kR58+AX62aMv0s9+7mb8/qc/e55+/MBzXL76Hi51B4IKM/Vk2JKTXaiqYaSlLfX1MhEjFhAn8sFB6uvvlyHw802NLP5b6Oy5s7LWJNa0HGYB1dHZKUOxDY3n6VzDOWpqamJB1SnW0NAgSyRh1qaV87LEAeMyJZaJGmE1Y5uhluYWOnLkCH344YdBs6NHj9LgsG9nSCU6wNRh6fVEhe4qtRGXpaS0lEpLy5ZYCVt+Xp60on3JJQgEVFrjZhbobIGKllCAViGGU1CYLjMuEANdkgbDMou9cc4ufVRMgfQY4PvwIzl2/BgV5he6tm5e8JjNk9PU3IYlbXqpp7t/mbXzZ909gyHrscJzMJunqb9/mMbGzDQ+PrnEsG1weExe0bsVbHB+LOnU2zcos+zGxzkP8LkMw3sM53V3B7CkECcpOEqL43OIfWj7+wdcDtXRDfKpUYYhACs6EYZYZKHHCY2b9IwMMTRO0JOP0SBsRwcGGkRd3d38fEedPV58z9Bb1cniy3ns6O+lX4nN/+s5VaD3AGP6KOg9W+JrNk446KnCsAQSkxLdoIBJ4xaxe7gAFOJ5ObnLLDc7l0zpK68piDRZUVFB27Zuo+ysbNfWjQVpGoUnuvTR5e9u6MrHZ6gUPc0XmSaT+BOhFwHO2PitEKOBCCuIPfRG1FTXSI9VNIDhNZQdMrXci9lm8Bq6RatxT/GsnaEJ4Bqx3NCrJb2CIdL7+GkQTTiPp3sG3mM7wpPgWv0B9wriH8PF0zJrLxQ4GwVIvph5GKrnEyngt6K8qyivkPy7e9du2r9vv8SewoQPbM/l/FxaXELbtmyV/L1rx07atXOXTJjZvm07beVtF+y/gPbu3StD79ienZ0jQi2W2fTCCokDhTtmFZWWlkoXbrAsMytTCqhoz2CKkzgWV8YsIAxzyfBSaroXW32ZBogNhB+orqoSx+pAxEaogAMwuunRwvS0kdERGhsbp77+YWrv6F2wzq5+6eVAPvAEhTKG29CgMXHLFkOBgfozYd/c3Fyqr693VvSKU2pscJHjr+AJFXJ+t0tA2oUPHyY6QJyuGS7LHfZZFmmOZYbGVQqi8yckSm/zRt+DcIDhVfiUFRUWUX1dvYgl8Uvksg95Go1L5M+K8nKqrKyUGc6w6upqqquro5qqavmO0aiCKEODKxLKu41k0wsrVISYIr9rF2ag7A2a7dmzh0rLSlVUxQgoRM1mp0+dPPN1lgtGjycIVGwEA2eDwNnzih4K/CZjCQvj1bOHdmRsgg5/cIqefu5Nienz1LNv0gsvv0uNLZ1c8SyvzNDdLz+Lbxd6wQ4fPix+FoGA4R0U1AjTgJ69qKrM1vxT8EW2ddyKdd9FnD6Cyj73/OT0WVwb+E3TUxaamJjmBoPTxthGx6ZFVGVnZ2IvOV+siAP8TohK9BzjFb3Xx48fp6Gh4YXP0eg09hHjetcZp8r13vVdvMa6qAJRMRCK3gV5+EE0JbZAgYvCFP5GwQB+CphdA0dQiI5wVlLolXr+xRdZFL1JDzz0FP3kkafp+Zdep1defVWGoHyB4IivvfUh/fzJV8R+8eTL/P1n6d+/9TM6evyc7x4lzi4iHuMRUyowp1VUlqfPnKH33nuPevt7XVtjGy6BUJvJfV0r6y7B5BLWfZT14XZ6pK3U1DRCAN683GwqKMgju2NWgvIu2IyDZuyzzvXnfICKH6FSaqvKF6yObde2Ovrdr36eigvzaHwCMbz45JGjK0MO8mFbRzvnxbPU3tlPLe191NreQ6dOn6HWtlaZ9av4T2x7mK2AiqvYAs8bLS5pDQfh2eMYEFMwzC4MZ08MhjHONTTTcy++RS+/9h4LqnfppVfeoYbzrXw9voUP/EoGB4dpcGBIbICtr3+AjrGoajjfTlik1hsQAjIMsGUrpadnuLb6B4YR4ceBJXFCEfh1IzBSj69nLiI7pEKbrwBp2Mc5jPMjjfpK6iLu1oF8G6df4RrwiS8n52Xndx0LvSRY7/HAgZ20pa5GhqnyDOM0lJOdTckpvofp09PT6I7br6Uvfv6jS+yXPncX3Xnb1WQyOX0sY21mGxqU5xrO01PPvkxvvXtcwnS8/saH9Mxzr1JTU0vUBioNFSqsFIVBQY4CNVhrx+E48K1CoEY4da63ogoEzPQaGZ2idw+fpIaGVjp3rpU+PHKWhkdXGabjiguxgEwZ8K9IEcvKTBVn4Z7eQX71Iaz4vsEvY/++fZSdlSXv/QW+HNu2baPdu3dTXl6ea+vmxjlMkiBO7DD04jkNa0tiaNbpsI84TKEAtz81NZm1SBzNOpxDwZ4GoZKSnCyNiVCQyI0J+Bk6xGGdz+m6F2L8Hs7rScmJYv6A+wffKrwW5OfQVVccpFtuupIuObiPLjbswn20b88OFli+06ApI40++Ylb6Cu//qkl9iu//AnauaNWngtmwUFoRNWw9CpgokNLaycLqTfozbePUVNzN73GwuqFl96izq4+fm7q/xgIKqwUhUELenx8nFYKTBkIqFSwHAiWd0Eoh0DExnpBhTptmVsi5lCXWq1coeGPAMAxIACMynElMA0+UB8LVJTmCTP19fUtud7NCn66KSOVcrJMNDWFWcUzNDltW7CJSStZbXYWoCap5EMBRF1NZQk/tyTxH8I5l5jZxteZSCUlBZJOgw2ef25uFuUX5JLZDIdzK9+HRZtkM/M1FJfmSyw4f0D+xFC0EXdr5/Za+sqvfZL+/E9+dYl95dfupa1ba2QfX+D6vBmAmErge1JcVBzysA6RBOL3pSRn8s1JllmbAPl9Pi6FklIy5HPFf1RYKYoL+GbA10CGStYJCmpUWhhaDFWvgC/QM2LxGLbDb4L/yVpn3sk98eO2GBWUv6CiRBDCifEJEVnRQHlZEV171UEWLoV8QzDLFJUSDE6+ybRjex1devEeyssLTRgOLPOzpb5SFqyurq7g6yiikuJFq6kup6uuPECXX7pP9g0FmaZ0+uQnbqRdO+ulgZGbu2j5eQV8D2rpvk/cwI0O/5a0QbpCGkR6wRBdamqK9FxBHC5YcYFs8/eYvsBweUpqakwJK6t1hsbNWAHBtcGFncsM86SF/I2QrzhRYaUogPVAeka6U0AEKA4iDVw+1j50xyn0Im/GDq4HQ2cI3QAhGhcFvVaFBTl03TUX0y03XkZXX3khXX3Fol179UV0+61X0UUHd4WsxwpCvpRFxsc/eh3ddvOVdPP1l9HNNyzabTdfQR+55QoWPbUhSw8QNzffcCndcevVdON1l9EN1x3i10PyegNfzx23XSX3x++eEL7MxCQMHS76QOLVm60H5H8MA0aLyPcX9E5hOFDKPzfm+D0mCQTzfhjPiJ+WvEYjKqwUhUEmLywqlOn/mz27Q0ChBS+1kQuspZaTbeIKL1AfMhS0EJvOd8EGPXqIhwM/Kyz/Ew2ksKi45MLd9Mf/45fob/7iq/R///K3Fuz//O/fol//0sdpS13oFkAGmKV5+SX76Gu/eR/9/u98bol97Sv3ydqWJm5IhJLK8mL68hc/Tn/0P75Af/w/f4n+iO2Pf5/tf36BfuPL91BNdRlXsq6dVwH5E75P8OULxfClAXp0ETIEzuuxFFcNQjjTlMFpcukDwdA+0gnSdDAxRJW8yn9+JoRNggorRWHQIuvs6KTJqcllrbbNht0+QwN9bZSTg0CmSRKfx2RKpunJIflsNfDzcQ9gs3C45nsDR2eskRgKgtHTEEk4fw9mmCayGEildBYEC5aa4uyZC/HvxeFRScI/ThzlPSwcS47gNyYkOHtKFxdKhlM7riHAxZJ5V/QkjY6NhlTwYNZhSVEJW7Hcp1gBzyUtFell6b1NSpznvO9MS8EEzx7BSTHkGo3+WyqsFIWROC0sKNAqlsbTJtZWWAj6gn276CO3XEUHL9hGe3fX0W23XCMzphDewBeobO2OOW6xw8HY5rRJG+Xl5lBlZYn4tSj+4RQ28eJI7m6orINdSa2EU+R5M9cOIQbnwu9dMLx3XUOgyAQKx2xIezdwXZidilUT1nKNoQYNwK6efnrzneP08isf0EuvvL9gmM2H2ZZrY56yTKm0a2cN7d2zjWprK2jf3m20a3s1YXawtLaCCIb+b//I7XTzTTdRVVUV33jXB1GCCitFYbCwKJZGQogEgNlBKMSCaUYv0Gpm7LtWIA5vvvlGuvtjt9K1V11Alx/aTffe/RG65pqrJLyBL1JSkyknK4vvQxYXsvzKlpOby+JsF+3eUcct2uAOByiKv0DkoPcVvRyh7EnCeVAOwDZSWHFJ4LUcwALfEFUPPfo8/einT9OPfuK0H//kGXrksZdpxssKCSuB42NCAAyO/9dceSFdf90ldNml+/n1Urry8oNUkJctn7uvd2kYrnEt4P5+7rOfo7vvvpu21Ne7tkYPKqwUhcEQA1pNKGjQIsardQZT4wM3i5dtM/YZcsxyATY3S4gJ48vQc4b911pgAVQ8BXn5lMWFV1lpMVWUlsjf8E9ZqbLAbLZ7PnET/e5XPyv2e7/9WfqzP/wSfe03P0U7ttVID4yibARoEBQVFElPUqykw6mpKRE0BiiTTp5upn/7r4fo1dffo/ePHKcPjp6gD46doPePHaeTp85J3LBAwPHNk2Yuc2xUU1NLF110kC46sJNuufEQXXTBDrrowv3SozQ1PSXriS61UVm/0VP8+QPKKMT4Q2Dh1dZd3YxoSakoDAoYDDMYXeloGff3D8i6Wb39fQFZHxsWNsbSGGLmCZrkQhKFkI0Nr75sgvft6u6iacv0mgosAxRcKLCwWOqWrVukMlqtpY8p8rt21HFrdR9ddoiNXy88sIuqKoqD7ryqrEBwR102FeipcX81QEMD/o8jIyPS8Ih2kPfHJ8aXhX85c66N78EYYUQ/KQl+fGyJ8ZTMlpgUeA8bGnIj3KgcGhmkiclxFlCTbGayWKdokl8n+f24eZwGhwdpYGhgmVmsljWVU2jgoTyCbWTPYKhQYaUojCnDJCu8Gy1iLI2BlpwsbcGFeiBmFDQ4jhgchXkbxBuWhljJsKwMCjqbff2BSlFoIeo7fpc/wDcrPy9b1lIzrLAgV3yrorDsCylIA76GT3wZKlE4ZnuKirWCHlA4fAdqwXQOR0+tt3P4tpkFf0fP22AEoA3S7Yls+DdCtKCX2wBpqn9gmP+Yk1l8GJo3DJH2U1MQisK1sx/gNiKNoBGHsi5Qm5wyS7rFdSHN4HrRs+VpwQq6vJlQYaUoTFlZGV100UW0d88eKbzRTQ1RhBAAFRUVgVl5BZWWlFExCxrDsjKzJF7TqnAhNc/iLFiVB1qDni3ClVqIxv6L5vpACQhUNIFWWJjmD3EVjDXqIM5Q6Y1NjNHYuP9mNnNl6eanwynA9VfgoMLFb/J2Hl82ztc7NYXeWskKC2AmZXFxMdXW1DonmMQoKBuClyc5laynnHH7LgQ0Av329vUtM6xoYTQ2YwUVVoqyAmglJycmU4qb4X1yYpKbGdsWP8MMsEgEohFTylFRyavxN9tKMwY3gmD13PiLFP78HwQlRDBecQVrMVQ0wyPD1NPX67/195LZFe4DaQgx1WSoJJ7lTaDG1w5xh0rNEC2jbgLGl2EoGr0YiC+WyIYFxL0e3w+DJsPxhkeH/Tb47mDIT4LZau20aYCAbjjfQCdOHl9mPT090pMfS8RxJkY5oHiA29Lc2kynT56mvfv3Ul1NnesTJdzAsbKto40muTVdXVVNSVzphJrZWQedPneWcrNzqLKi0rXV6Yslju5ca1gs0zI1G8OFWA8QFZkp00Rz/Iqp4aicsD8ECyrqiQmutPiz7Oxs+cwb6Lno6umirVu2Un7uylO+HQ47vfHWm7Rt6zY5/0r7AhRuqLTgu+GZ7VGBZ5oyxVY7jjuYqYWp0/H+9Mb5ARx2z50/57yezCzX1vCB+w9BVFZSSsVFJbKY9lrA8Mc4CxUMbwUCngvSBnz8cE8x6QCiN1BwnBnbDI2MjTjfy/9F66yIiFn+D+dGOsjgZ5uRkbGmnitcA3wN1zIUBMGfm5tL2VmhWfYn0kG5ceL0CSkD0NuNZ4H8+1d/+1166JGnOZ8ifSx9JoWFufTD//5b/izDtWVl8KzNLIjaO9vJzAI4UJAmaqtrpXe/f6Cf3n7vbSnjPNm5dQddfPEly9IxysK+wT5ZzgpprL2tXcq9HTt2uPbYvESNsAr2z8DxIKzOnDqjwmqDiRRhhTSBggMVPyrciQkzbd+2TRYQxpAhnM8LCwtF8EBYwW8Lzp+oqCBYRkdHpZKpqqwSMeKNgIXVm29QRWWl9G74A36D19Yjnwa9c4GIKoDfjcoPQigYwCejofG8OPknbcBsIQyD8R2igxcclMV4A70fBrjPGLYJqFziXTEMiHMijeN1rec3COj8LgxxZZx7Pdcg92EN1wAwFL/e379Z8S2svsfC6qnIFFbvvi2NNk92bdu5IKwkbQF+we9RYRWhGBnXsGCBY7W0tdC5M+dUWG0wkSKs0MJqaWmht995m8orykVc7di+nU6fOSMrwkMUQGAg7aCgQM9Uf18/DQ0N0Xber5IFkCG+MtK9F36BCSsHvfHWGxSXEEdcBbm2ro6vXBJQFSY7x1F5abncn2BNmUYPT0dXB98nm38+aUEGw2DoYdy1fefCb1wbfJfXURzFqqBQnPgSVn/999+nnz70JG/bjMIqgfPXYqMOv6d/aIDMKqwiD1R2A4MDNDg4KJVbsECig5KGj8KefXtUWG0gkSKsUNi1d7SLHwhyTUV5ufRENbU0SYBRTAPHsCBEBgqN9LR0cSBG4VVZUSHDO3hfX1cvBYk3AhFWOAdESDCcnddKdma2BFUNVo+VzFKawir7sxsiLlAcwj8oVoeglMjAm7BC2vzpwy/QX//dt/lvB29bKvuLCvPpFw/+C2VmRqawgs8c/PwMyYHXaS4vLZzfVVhFGEiATc1N1NraKhUNuo+DBYQaEvSuPbuopqrGtVUJN4awMk9MiMgJWFhx6RPoMJensEI2sc3MsLDq5OMk0ASLPPjhoHCampogrMk2x6JAhFVKsvS8wE8E/jJYNR6+MjLji9Moeq7gE+WNQIQVrglBTPkSNgzD+X0jRJCiRCu+hBUChP7jv/6Q+voHpSxxpyA/l77zb3/OIsW/xbXDLaxwvt7+Hm4ILhZY+A02i02FVaSBBIjZCBBWqMRWWrJjLaAljgCLZaVlri1KuDGE1djoKJWymAl0iAhDOxi2C+R7nsIKBcDwyASda2ihcfP0gphJSkqgkuJ8qq+rpIx072LJndUESCDCSlGU6MSbsAJopL33/ik6cvw8N9QWY1yBTFMaffGzt/sdzHcjhFUPhJWbIJQGqwqryMMQVt093TJMhGCIwa6M4GgcjWH3Nwvo/cEQHCKSJyUnSYb2G941Iy1DBBmG4lb7KrLD/Bzb/BydPX+OcrJyJC7VhHmKvvW9n9Mzz71FDhRormwD0VZaVkSfu+9WuvXmy9fdY6rCSlEUX8IK5ZOZy6LJKcuSnh+AXvPiIgQ49q/MUGEVOoI3brbBoEJLz0gXh+FgWrSuZbSZQK9hbk4ulZeVy3phyMh+W36hTNtGUEEM0eFZrmQowBDoDiBqOWa9IfOPjpnpldc+YHHXK/58g0NDYn39A9TQ0EIfHD1LM/alLUhFUZRggvIpK8skqyJUcIPO3UpLCvwWVUpoiRphtQCnKyS+YJmy8UBYIV4Uoi6vxSDIIJAwHLia8UOX1hdeC/ILxDkdwmp8YpKamju49ZhKObnpC5adk8YtMAe1tfWID5WiKIoS20SfsFKiDghciCv40K3F4FyN78PHajUDjlnnWmVwzMb30OOO2XwyUy3e6QRvWDxeORfBcX1ublOPqiuKoihBQIVVEMEYsvjorMEwZX6tJsfgfwg+iVAAFptF/vbXsHgmlrNAlOS1GJYz8JyhEgrcBU2gFgi4n2DJ97CJzdeRVFIpihJUNlGhggYofJERFHmJmUxLAv0aZWu0o8IqSCDBYKo9BArECpwP/TUs1gpBBN+eQA3BJyenpiQTQiBhGAtBKDEsJWZfxXgfue4xFlZ8rECtv79fHBYRf0hRFEUJHugpR3y8UJjNyvUUHx+97hI2JVBLTJRefEwuQuw3BD7GYvZLrLScTAg1w3UN9kMIo1nH7BKLRrEVNbMCe/t6Jbo1/GkQsyjcOGYdNDAwIAKppLjE7yVGgHnKLIIICS/Qx4H9S0vLqLqiigaGBuhcwznauX1nQOdHJhseGZHI4YGA3hus7YZV5xFAVXyUNjljLBI/PPI+XbD3gLTCAJanOXaige77/B9Tfn4GFyqL/Va4/1abg/bu3kH/8g9/QDnZma5P1obOClQUBYIKswIhYFCuxvnsK18fM3yeSS5zsJRTwPAlmUyZlJaGMDNxC6MnnqA+xoxFRF1HI9wI5O3c17nEVlZWFnV2dGq4hUghYoQVXwcqRPQiVbHI8RUA0hsQNlgFHpkpUCDkiguLJZr3WoUVErbdYWdxGHivU09PN2VmZcq020DOGan4FFYnG+hTLKzyIKzcZt4g81itDtq3ezt9Q4WVoihBAHXB6TOnpTxYLANQ2vhTHvi7n1PcoNfJt3+osd3L8XiT03fVWd/6lhJwx8Dni/6rsyzCpuBCwhtTWTiicd7d2a3CKlKIFGEFYdLV1SXL6yCeViDCCgkbXaWB+inh0WFJk4K8AtpSv2XNwgrAR2shD/kJvtPW3k7ppnSqraqJXmHFz+X0mSb68m/9JWVnpXFBwhnHVc4g98zMzNLuXdvor77+W5SdaXJ+sEZUWCmKggDFXd3dNDk1uYJg2bwgftaDD/1U6u89u/fSpRdfQl2dXO5tVWEVEUSDsForeHTnm89TbnYuCyv0WA2uWVitBXT9tnWwsMqITmFlCF28tnX00D9/8wFKS00kVwNtAYdjnmprKumLn7+T0tPSpG2HuGqGMAsEFVaKoqDMgaiCD2zIq2jj8L6KGv4cjWgZjlytOMKx/Ciy4DbzhV/+Jfl9H73jLrrnnnucQ4FRIqzCr0AUZRMA0Qh/gJGxERZbY5SRkUxf/Y1P0K988S765S/cRV9yGf7+1S99lD5y66VktUzTKO8/Oj4qExKisaWpKEp4wBAbfKywNmooDMdGiBk4nqMB5/SFSpDXBQd1NuMzvOJzbJOGoytEjbHNfTv+9nrOROOY8TIUOAXxuAYXmEhHhZWieAEtRgytYlIBbHhkiFtXlgWzucx4P4UJCG77o+dJURRl7YS+txqTj3p6emTEB24lWJO1s6uTOjo7xOAz3N7RQWcbzlFzSzOdbzzPn3dRU3MzDQ5j5Yk+6uzslB4o+IXhc4Tf8QV6vYxeeDQ8o7XxqcJKUbyADI9eJ3THwzBj0n2qsqch1AVaX8a+6OJWFEVZD6F2BYAYGhkZkdA5vT29IqJ6entk7V00EFGWTZjHqZ8FVHdvt3yGCUu9vb3yOURZY3Mjtba1cjloE1GFY8Z6b70KqygGvS7OGR+hD96pKIqibB5kiC8hnkXQnIT6QS/78NAwi6MpMpvNEg8RQ3vJySkyFCjxEVk0wUXCNmOlsdFREWVdXd3U3tkhE7Cwti6G+0ItCCMdFVYhZqOUO3yE0NpACwN+QrHeglAURVGWgsXpKyoqqbq6mupq62jXzp38Wit/b9+6XSbQlJWW0Y7tO2jPrj1UW10j66/W19YvhPk5dOmltHf3Hpm4U1RYJMeMdVRYhQh0h/b191NjYyMNDg6GvdcIPVXDw8NiiI6uvVaKoiiKO3Aoz87KptycXAlsjVn1EEhGNHWIJFNGBuXl50tkdewDQ9wpWFFREZWXl1NFeYXMCscMce2xUmEVMuwOhwiqltYWGh4ZDnuP0fzcvPj9oHsXDooSp2qTg9+w1n+BEOuFgqIosYFzqC+ZUlNTKYMFlCnTRA7HLDfGB8hsdjqhY7gwhfdJS02j7OxsiZKeacqUYb/MzEz5G9sQXgZCDceMdfQOhAiMW8/HzUuiDMPkjmWg1ZCXmyc9V/nc2sAU2M0MIvSu1SBqAxNX/MBUWymKEiOgjEQsRky6QfDO3t4+moCflc1GMzadiBMoKqxChIT6j3M6/kHRh7sXBMvT9PT20rmGBucsjQB7bSIJBIEdGR6m5uamNVl7RztNTEzIYtOrGSsxKi0p5WfnjMWiKIoS7UxPT9Prb7xB//nt79NjT75KL79+nF9fo2995wf00iuvaPiYAFFhFSIwFIdZFHZuAUBkhX14SXpq5qQLF928EjV3kwL/MCxUjSFVFADeBJF3c+4rs1n4OUBgrmZoucHfAM8LvXx4XZNpl5eiKJsENLz7B4bprXeO0vtHzlJLWy8dOdZAb/L7nl74CG9+V5JwosIqRDhmHSIC0JWKyhqVbTjBODcEApb5wZI34T5/MEGWFtHDAstkMlEmxvj9smx5TU/P4N8fLwJtNcN9wnJEcrvYEhKcq8vD4IuAIdakpGTZnpiYRMn8d1JS0sI+hmE/RVGUzUBSYjKlpGbS+MQMDQyMcHmLyU9jNDZu4+1ZMvKi+I8KqxCBSri0tJRqa2ooKzPLtTV8yJg5ixGrxSoib9PDIieRBYwpw0RZcJYMwEwsrIwV2AMBIis3J4e21Gyh+up6qiitoKyMLCrML6bUZL6OzBwqKiimvJx8qquuk/1g+Ds/T9f5UxRlc4AOgLFxrE24dPb4DAssbLdYra4tij9EnbBiPSGiIvzmugAXc7NzEmRtdHRUAqdtBPBNgm8Rri8aiGehgmFVY10qf23tQ7Fx0iOF2TKYdjw6OkaPP/kcPfH0a/T4U2xPvkZPP/cKnTp1Sj7HfmIs5CCsFUVRNgOzXF+hlwqTfdyBSwtmuONzxX+iQFg5EwKGcSwWqzjZTWyAIZS/bcYmY9UAs/EmefvY2Jj0HIUbXAeEFYYjkTmUtSELk0KYxcfLLJlXXn2Hnn72dXrx5XfpuRfepBdeeotaWjtYuDn3M0ynHCuKsllISMBEq6RlPfsSjiGJt2N2ezDhdm409+hv+tIfAhuiyj5jp4GBfmppaaaW5vBaM1trW4sE4zRA5WoyZVJOdrYkzHADMQWHbVzHRgi7aAMCKzs7n5JS82hiYkruqcU6w2I6nnLzy6UAipaeQUVRIhuUNEtHTNZX9qSlpVJBfjalpi6tq1JSEik/L5syghxNXab3sLASc22LJqKixwqJatYxS+Oj4zTQN0D9ff1htQG2wYFBGfozEvjs3KwE5kRMEHSlhh1XapU4Ts4/lXUA8T4yOkFT09bFQoxfpqctdPz4KXr1tVdlVXhFUZRQgvX64Fg+MDhMAwOLNjg0IuXUWrBZrTQxPkQpSbOUl5vFAiuFcnIyKT2VaHJiiKxWi2vP4ICZ6tdeex1dc/U1VFlZ6doaPUSBsHKqXvQYpKU7I8NuhMFBHYmFL0auytmKmHO9hl/aoIcFUXHhfI1ZasrKQBRjXUXfPmnOHkCHfalIxpDv+ISZxsfHN8yXbiPBvUIjAvchZMbH34g8pCgbCdZ79Uz3VtsMvfbGh/Twoy/Sgw+/QA8+8vyCPfbEa2T3KJ9WA8c3xFh5aTFde/UldOP1l9H11zpfr7vmUqqqKpM61lveXGu+TOO68pabbqbrWFxVVFa4tkYPcXxjNnWJhWix58+fp66uLllIsrCgUBJBuEEiGxgaJPPkBNVU1UgFfPrMaVkIed/e/VSQn+/aM3jg0Z1vPi/hFLbU18v5zzWco53bd4rTdv9gP/X29NLOHTspPT3d9a3ggYzf1tEu60PV8m/GWlGhwMaCpr2zjVtU41TN58GyCcGmta2Venp6qIDTz9YtW/jeztHZ8w2UzYK5sqJSCqz3j5yiP//6v0jhZpCSmkwH9m+jez9xgyxeivS3HuAj2NXTxdewVRZA3Yi0HAgYEoVv4Vpbyv4gfh6ctoIxpI58KrNkQ1jq4Zkh3Ib62SlrZY4bE2PjY1wO0cKqGRh76O4ZpD/6X/9KR4+dXebikZefQ88/8e+UnWVybVkd5AeJ8cf1KGL+YTkb+ItiliBiIMbFzYs7CZaz8ZaeMUkH4WYCLadQd6HBhDprnH9nWkoadXZ00tatW2nHjh2uvTYvm15YwUG7gSvA3t5eeShlZWXSWxNukMi7e7tpcGiIhVW1zGBram6macu0rAyOMAHBZiVhhYSO+9La0kqHDh2SVceDTTQJK6zpiOHT7u5uuvzQ5bxlfomwQgHU0NhCf/inf8cF3rQUeCAn20R33nENffa+u6QVtt74VZtNWI2MjFBXb5cs2roIrtm9WHH9hoVN+MP9d/kqgngf/g89roiGX5hf4Nq+doaGh2iI8wnKDV9nXS+YIVpSVCIx1xRlLaC8aW5tlhnG6WnpUg7AreOxp16jv/y/38IelIAs5JaNcvNy6OEf/RNlZWa4tqwO6qe+/j5xW0HjCHUKvJ5wLpwzDrmEz+EUVcbJnPkX/wqLCiW0DBrygeIUVgMiINNT0qmjvSNqhFX0NKnw8BOWzswKqyUmiKAzkh4i1RprLyGThBsk+nhu6SDjaLDK1cnLy5NCDCu3exMzKHBstmneh6Rr3GRKp4KCHBbyueSYmaLUGA0KmpiUSJmmLMrJynGz7GXvsUL+6iy97yjM0dOKWGTBmgCCvIoAr0nc0kZr25fJGp9cgQTyD+kGrXcI/0gXxErks7wneJ6Gh8e5HJrhNBbPaQ2LHi+1QECaxfFxHtQTVpuF/7aSdcZCM3ab6282m1U+d9rUwt9T/Dc6FFA2GobjeRq2+yY680n0CKsIA705cKhH1+pGhDtAwY4KAlHH47kyUVYGPnKIOearWxvb0DV+YP92uvrKC+mSi/bSZZdeQJdevJcKC7Jde8UeSGN5OblUkF+wosEPUVq6KGSRHeTV/b2xzfU3gynemSaTrCCAaPjBANcL38NsFns+LTNb9sN6m2gU+WtII0YsM23MKOvFECsL8J8I2InREBjS2xJz7eY3yG58fIgf8ZOUV8Pw3tu2pZ9DnAH0AKM3uL+/X3rADOsf6KfxifGlvyMGUGEVItA1mpqWSulpadw6Dv7Q1WogIaN1XltbK+sVKiuD+3X48GE6dvyYFDSe4F5u37aNvvbV36QvfeET9Pu/+8v0td/8HP3S5+6lj931URFksYgU5/jPW0HvZhApQyNDNDgy6J8ND9LI2Ij0+AazUYtGBoasIdR8WmoqWaYtUjH09vX6bSOjI1zhOY+v/lVKLDE5NSll51vvvkVvv/v2gr31zlvU2NTktUyNZjT3hwh0kWKm2TAXthsV/XzGZqPOjo6F7lrFN1jgGZUh/HkgBLxhfI7eiIz0NK6E+W8W0LEkqpCOWltb6fXXX6cOTlvhWC6JpZnrr8BBTxL8544ePyr+YNJ77M/heLdA84yz9a75TIk9IJwsVotM1nI3BKieQeDsGKt/VFiFCCQkMU5wG5GoUMhj7BzDW7GWqNcCxFJObg4l8avRve0JBBdm6MCXDvtDaGFbLPVOIC3B0RU9NGilRnpLFM8SPiKjI6OSH3w922ChOU2JOTjRI1+hkYUhwSXG29C4iTVUWIUIVLZwksWwwkq9ICGDE7v4eLkSdtjPv8mAD5Bz4WTNEqsBx+7NcpvQ26XO5Ep0gEZcHDduNo+A92zUi28W10cwrKcbrY1+rUVCBRfkRgLaiEIdwi7TlEkZGSYa4dZ6dCbf4AFfHgzd4nU9Q0+xgIRWmIuTFikmaUQy6FHDUDx62XRIXNnMoBrJNKXRLOc5h2OO6xbPGXiRnbaR9ybMExJeAQan9tkwuBJsBCqsQgSGAG02q8ySGBoaDnuBjvNxe0CGtjDDKZznt885aGB6lCyO0A+9BAss6TA4NEjTFsuSe4UePwwlhcsQvT2ixQoX7vn5+VRVXS2TMiJ9gW9p1PB/Fn6+8PeI9KFLRfFNHO3ZVU87t9dyuYQ07eDyatHwPtKLW/hhWWxs/IryDh0P0YgKq1Ah5bnRa7UxqhznRnytjIx0XE5YmLJb6XDfGXqy7W16tesIjVjNm0RcOX2lkpIWp8lDYKEAwGyvUQ8ztuHV2+eGGZ977udrG3pXMIQbqSBNJ6ckS0iB5CREZg5Xylo7uEY0LmLJF06JPpDVttRV0C03Xk6XXLiXDlywe4nt27NdZi9HKihP0VBFfEf7rNOkEcnVA3q/owktaUIE/Drgt4NwB2WlZa6t4WZeZq1hDcVwVICQTz1TQ/TXh++n33ntn+kP3/wmnRpqkSi+kU5WVhbV19c7I/cvVMDzInQ6OzuoI1DrYuvupE4PwzbP7e7vEfcFQ1aRrEUHBwflNyKWTmKEx0iTwpwL7bLSEiosLIz461UiA6SbSDBP0tNS6Zc/fxf9n//9m/S3f/k1+hs3+7M//jKlpiW79tw8QFxZrVbXu+hAhVWIcGDtJatF/FGg0DeiZY8eq4HBAZnFFha4IHix4306O9JKNoeNOsz99EjTyzTDLZNIl1YoxDAdf3h4eMlwEURWYlLSMkOIBW9/y/vkZMrNzae6mjqqr6n3y+pcrxDhiKUUyb0rGP5LTExgi3yncLTgcY0DLAbhZ+WtslIUd1BuYjmwU6dP0alTG2Onz56h8fGJZUPtSMtoHGRlmSgnB4vsL1p2Vkb4yvoggt84aZ50vYsOVFiFDGeFs2EzH/j0qFRwbjg5hgNuY1HTeBeN2CZk9sek3cIiq0WcLfFpJANBNTgwKM9rkThZUqWwsMinYQ1Gb9sL8vJlDcec7JyALMNkcooBV/qJRNATi7X7MBwY6bMokf4RVR9LFWENP75g1yeK4h00rOAbiwXsPYPAhsv6+/rIyg1zlKmeYGYglnhKSV5q2LYZkzfEImbP5+XnOfNoFKDCKkRgSjqGA40Wc7jBObF4p3Px5fCJGlluQUSB8zUxoiXCIggQilkq7kva4BUzK8tLygKysuJSbk3mSKyrQA09VRuRXgIBYhP3BdfqreD3Bn4TYoAhP4jh75XMtc967wUqSWMNSKzQH8jxsO8SW+Gf7I9/kf3oFD+AGDeCW0qjeCNMchZeNwErpPkl+c3HfihHCgoLqLKyksvN6FgeTIVViEAhm5ycIuJmLSt/rxdUSsXFxXTJxZdQXm6ea2voubr8AOWlZkmGSk5IomurL6WkePz+yK5xSkpKqKCggMu0pYUZutaR8QO2Tdgl7w+4P2fPnqVHfv4InTx10hl6wQ8wfGHKMFFmeqbTMpyGbd4M+2SkrX/NPVRO7R3t9PQzT0sEdn+dZGVBd3ehB+PfgCVx8Jm7YTvyOBY9N0SWsvlB/MHde3bT3n37wm679+xhkZHL5Wj0V9EoL1FHoRc8MzPLtXVzo8IqRKDAzc7OomyXAvessEMNzjc+MUEnTp6k48ePh3yauW3WTi92vk9tE71UlJZLxem5VGUqoqaxLnqi7S0ZHozk9tf42LjcIxSmnrj3WkBItLW3UVd3FzU1NUkvF94jVEN3TzdNTk6Kw/vwyIisAD82Pk4TrvhY8OHCQqWbfYox0pZ79Hl/QO8tCk4Yeo94Cx093kynTrfSydMtS+zEyRZqaRvgQjZbepnWi9VilckJJpPJ7+vF8GFleaVYeWk5paVl8bOfJ5t1lmyWuUWzzhHmGqSnZVJRQaH8TmVzY5TVEMxYAByVftgtJ09m3aJhYCx4HGwzwrogT6BhsBZDQwLlJq61qqKKtm7ZSlvrF21L/RYqKiqSe4r98Irba5hRKeBeY7TA3/wZ6aiwCiGoQBF00jxplgQVTpCIcW6s64Zp/KHuVm4d76bn2t6hk4NNci608DEseHq4mZ5qe5ve7GFxF9HxmeLEJyozM9Nn5xruKZYIam5uFhEFXwiLxcJ/98h7zJSD4IL19/ex2Bqizq5OfgYtMtSI4QUILxxnM4PCL4sbDaZM/4UKCmHxI8vJYZGTzffBRi+/eoTeOXyS7ZSbnaQ33z5OR442cUGbLIXtuuBkj9hgUnmwEPS3Rwm9ZoUslGB5efk0ODjB19RIJ08208lTTjsBO8F/sxAcGDDL71tvD5sSWSBMBxpb4TZneJA4KTPQQB7nBlooTCZ0zDkX7F+L2Weca+JiVl82p3+4nkBILRi/h/8UAoPifDO2GbK72Qx/f7M3NL2R8HXG9femBJUUHI9RYWEoBy3NJeO6YQLXIRGeOSOggEVibWxspKNHj4pPSllZeUjU+PDosLTq8/Ly+NzT0iOCygA9CmPjozTC92b//v1SoQV7mAICCj0yiP30wuARer7zMJntFmoc7aSB6REatkxw5osj84yVjg+dp09vu5kFFzyvArsOZLzxiTHpLcK9hWgLNrg/KABgcM5Gc2qI7x0WWs5mIQAQBgHDSU3NTdJCS05N4YKjkHpYVKHQGBsbpyEWU8P8DBx8zZNTZmpvbxchhsIyNzdXjgOnbxRK3kDQPBR2WF4H17IRaXkl0EBobmnmgtRGdbW1IkRFKPqh241ev1nOG0ePN9C//deDXChPUG/vIN/DAbHu7kFqbu3h522h22+7krJMcJCPE8GyFtGCuDlnz52VvAgfjmx+ztLIWeV6cU7kV5jd7qCfPPg0/eCBJ6mxuZ1Onm4SO8V24tR5OnaikeJZOF579cX8XJ3fwbX6esZKZIPyprWtVZ4jwuWEorxZDTRCEdYEvdyoV0JlKGuQf420Hqhh/U0IK9S/KB9x7zwN5bYRcR0O+chP2NcwTG5CnWXicjFa0B6rEIIEi4IdbEQFieGn3v4+6uruDmmPGY7cOdFHEzMWahrvJvu8g7fFUU5qNlVklkpv1pnhVv48cqfU4lmdOnOK+gf7fVa6cdyCRNTxKy67gioqKmjHtu3iQyfDReXlvK2c8lg8lSJkAouulOQUqqpydo9DuEFQGU7fmxmIxKysTHEKX89v8ZhJ7oI3+iF8/AWzPCFyariCRMNr7WLH+wUtXmpkCWBl/QS7IRoIaBgXFxVTZUUllyvRYBVSxtpsM1RVWUU11bULVltVI50P0YQKqxCCQhy9FNJbFGZhBSGFCN4ZnGBDnWhRsUzbrTQ1M0XjlnFn3C4+f0pCMmUlm3j7NJmtkzSzQRHo/QH3C93UaMF5A5/brHYaHbPQuNlOI2NW6ukdo9b2PpqjBC4ES5wFRk0NVbOYqiivkJhU1ZXVtGXLFkJwSvQsIljr5u/J4LTM6RlCc13pegXxtMJHAYHrw7BKQUE+pbEI3ogGjqIECtIpesrRk4Ne8c1u+B0AdRIap56foSEaTaiwChEYJkNLGTPznENz4RdWqPwwzl1aUiItoFCBX1aQlkN5KSYq5tfi9ByqNPF5TXmUn5pFlZlFVJ1VSokb0KUeCBA9vmaN2blAaGrtovc+OEuvvHGU3n3/HD3/8mF66bUP6Nz5Tr7fzhZmdVW1CCqILIgrPH+8YmhP/DWSUzZ15Y50he77aRag6OKXdBbBoEcN/l2S/uHjF6LLjey7oAQEZ8/FPLoxeRXnR0wnDLWjlzsaDL8JxQV6ujGRxDD05EfbpA8VViEE4+RxKNjX4BuyXtCbgIp8dm5u/Q7AKwH9xi931V9DXzlwL/32RZ+m37nw0/R7F3+GfnnPHXR1+T5+/yn600u/RLkpmc7vRCDwBYCogm+UJxAP4xOT9B/fepj+49sP0g8feGLBvvuDX9C//9dD9OIrh2W/zSya/IJ/Hvwp+vr7xG8C9y2SwfADHGvb2ttpdHRM3oeCKH/qMQXyMCp6lNtRn5+VkKDCKkTAt0Mc97hQx8yxsMOCZ25ulmZmbNTb2xviGXlxVJtdStdXXES3Vh2iW6svo9vYbq68hK4pP0i38Laryy+QHquN9FtYCVS+EFa4Os9emP9/e2ceHNl1nfcDoNFoAI0daOzbrMQMSc9wSA4p7rQkypISyZYTSdZiqyrOH0nKicuKq+xs/8Zx2XKiSlKuxI4dl6yK7JIlpyJbK0mJ5JDUwtn3Gew70EB3o/duIPc73Y0BZrD08hrobny/4SGA192v73vvvnu/d+655+Lv+Xm3nL94w5xT856y+LrJWkzc7iW5fn3EfL70ZrdsRXW1Q+Mmcp1IAK/ufada2WJT1qiQMp0jPLd4OsYDRzagTFaWixQuqNPHjh7TIfxij4ck+wNrTR7B8AMEFqZ77/WQCb5tdTWxCLN2Lnn4egwFLS25ZWFhXoJLK9JR2SidtibpcbRJuTsiMh8yv7dKy2qtrC2HNJMxUhHA01FoIC4MM/twTPeDRaS9Pr8RV0tS46iUmurNtmZE68LCUsF7byzB1CO47hsbGhKe0Cx0Cj5ir8J5WzPnO2ruD/MAkLJIXIddKysrdAZprsDhUGmzSX1dnflOe1bCHp/A5yCc4QHG/ZQy/B2PwVOJjPmJ95PiBmIKi7F3dnbueQgHKQ0orPIE3MgIVsa0/HzGN21PYlgKY/SYmZYPl7bX45VbN2/JlctX5L3z72mqh6npKc2b9d3vfVf+3999S9Mx3Bm+I+fePqevvXXuLRkfH0/uoXBAQPnMzIxOQX6g7zViAustribPaaKj3WAHqPHFsWKR6BX/igrRdDOZbwT5eZoanGK3VYrPHzaCO7JufmPRyKoRbk5d/yxXcF3tVVXrC6Jn94CTGBoKh2MSjsRUYMEgALENgrDKCEVzcpLvJ8UM6jja7/0I4SClAYVVntAA32BAcx3pEMReN7qm/0C6hampKU1UiWEXq4EnDl4oPOGh00IOpxs3b8qVK1c0B1NdnVM0HUFPry4Zg3xjKBOyle+1B283ECh6/NhxzWFVqMOVhQCum9fr08SAmG2aTeeDe+HQYI/88ifeL33dndLe2rpuXe0uOXN6SD720efNfZN71nVUs+Xl5ZwSs9psFXLm8ZPS0tQkbnfA3E8ragsLfvH6wtLa2iwPnzxC7wYhRKGwyiPIYYXkaRBYey0k0HmhoUfeECQrzQeI22psalzvsJDMDkJrxRwzErUizYTdjif9sJahqsqhM+ay9xzkD5Sv1lmrZcxMhB6szhT1Cks1tba2qRjN5oEBn2lsrJeP/4MX5fOf+ah87lc+ssk+9Y9ekSfOnLTEY4BriZgwXbMT+8viciHp54mHDmlZf+WTvyCf+scp+5B85lMflk9+4gPyyMnD5p0UVoQQCqu8AS8OxAMySyMb+54LCdPGY1YgvAo16ADz0OhjeARJF22VNl3eBMNC6GwRg4O8TVjOADFeiXXzgroGFhJpIuVAoYH4KAhFrPFItgeiCNcW8ScQKtnWa8Q9PX32Ufnspz8in//sR9ftc0a8fOyjL0hfL9YTzB0MwyNvDpbgQX3NRgjiXu7ubJN/8oWPyb/855/ebP/sU0ZsvSKD/V1m38kPEEIONOxF8gQ6aXQ6yN/RUNegjfNeAiGF4bgeI2RqavOTGBEeqWAopJ3s4MCgLhnSZoQWcjkN9A9otms9btP3ItAZhpgrvHevz8duVCFBnSmnBqBvoxU4RJhAU3gkPZHZBuyjOsKjinqw2cxZNj+tqq8Qf7gHcUljq7i22QlBlA0PKG0tTeJqvWctzY2ahDcf9xchpDihsMoTEBEdHZ3S39+vHpy9Bh0BhA8SVOYr8zo8Yu262Ga7JseEN+rw4cMqtOAlaGlu1g6nr69XTg6dkCZTHoiq1Jp5hUSqY4SH44FO0vxZU1MlR470Sl9vp/T2bLQOc40xg6hVP6cpBJL/ShE8LCDAf2R4WBekznUmJE41ztsmS75mBfCiInDdZ8qMIWqIwmyB6MOwIALi71lCDBJCSAoKqzwBYdNQX6/B0NrN7vFQIDooNPxYJFNXMM/D9+MY680xavbcmtr1JRiwDUOCmBWJciDrOMQWBB6WMIAnrdBAdw4xDLG4EQToYyjX4aiUl194TJ566hF56uzD6/a0+fuZ9z0qDw31SzAc1NlyeD+C9EsSoyGqzfVDLBrOFepAIYN7D/cBYqzws0T1LiGkgKCwyhNYEwlP86FwSJ/w85ug80EgpPz+gNy5c0fGxsaSW/MBXA6JH8UMBCA6XwQ6p8A5XDEiaX5xTmyVa/KJX3xOPvyh98kv3Gcf+fD75PTpw7K4tCiz83NqvhXfnovpvQAePQzznn3iSR3y1VxWBQzSnbQ0tehC2K0tuSzCTAgh6UFhlUeWPcuas2m7hX3zDToRDNHldeitREZBIHz9gYAOb91jTUKhoC6Fgin7yNvk9W5hZrvHvI7PwvDefcm2v0fAS4XYJYhRxehHiMh8Wraox7S1RSdZqDcSRabXihCSRyis8gQ6HsyC6+nulabGJn3S30vQoThra+XQ4CFpbm5ObiXbgaFAjRdKiYUk2BaNRpIW3cVS74vkHHtUyKBupQzHvexdFveye1dbXMrc8DnsH0Pa2YJZqKlhy3gsJgEjlv3BwO5mhDaGddO3xOeC4ZDEEShPCDmQUFjlCQirjvYOeej4cZ2ejk5oL8H3IaYJAeXIKbXX31+MIJ5qf7LkFy8IDoeo8Pl9O9uKTwVSpuZd8WoeOCw5ZAXRqBFWZn+IhdvJUF7Pikc8Pm/ahrLiswiWx1JWhJCDCXuRPENBUxxguGl+bl6H8XIZejpoVFVV6eQEV6trR0OcE9IVYOJCOpbKhwZvLzy/WEbHCnBtV+NxWVtd3dYgirAoN2YRrhiBla4FjMCMGQGo+ymg8UbWZkL2FgorQgzoCDFMBK8V2ZmNcU8YXkOAOIbbdjLzhKFrSWJZo3QMyyMhbg0iB/vPJeh8Y3kxJAgPLmawbmdYYBqPQ/BaZWLI61VTXSvOWqcmxt1vcMyheEQC0WAihxchZE+gsCK5USKPw4ixQs6v+ro6/EG2AQIUaz1OTk2K1+fVzhviqqK8YkfD5zCJw7+ykp75V3R5JCyXhM/j+mQDPo9FwSenpnR/yDulHjFHIh3IdgZPM4RSJoa4upTI3O80FPG1VRlfmZO/vfND+etbP5B3Zq5IOG7NcCohZGcorAqE1FN1pmaFsMF+NEg7Fs3I8Jk1pJEoAXGFjvTYsWPS1dHFOKsdQF2Zmp6SCxcvyOzsbOZB+tBH6RhI/cyB1dW4jI6NanmxluVquutmZlGnzR2p/wqBiBFRb01fkt9587/Jb/3wv8j/uPK34g55CqZ8hJQy7EEKADxVI6HkVk/Bu9m9TNLZ90L47vn5eRkbH8vYVlZWZA2BukXeXiPdwrXr12RmZkavB9keeGQgsIojfrBM7LZKKMLNoq3EWYkG5G9uvybTAbf4zO8/mbkiP5j4adHfp3vF+oMrIVlAYWUhZbrOmWm5zX/onGHp3JyYSo7hitm52cxsflan9gN0cujwWlpaxV5ll4rKCl0ceTersCXeV1lVaT5XlbE1NDZq5vX9HvrIFYjLkBGqev02gOPCDM91q9jCNr6etGI/H9tiqjMEfTSS8FoWeueD8qG8iJ1LeFgPRmeJYb87nkkJw7u8GpfFkFfGfbPJV8lOoN2em5vTh02KK5INFFYWgeEjzJDCgq+ICUHGdcSUwBOCwNudDKIInRQEViYGMYDZU7qAsAGxIZ3tHfoTQbpYKHc3w/uwD8y+wnIzmVpnR6cu24PjKGYQf+Mw1w8pKjZ6Yhx2hy6ijYDnGkdiWRQ7grHNrVNRUanXHHE1GhBt3pd6L+J4isOjkznoeMoryjXVQqF799AtYvgL1wLlPQgdZWq4z2Gr0uMuN096tnKbVJu/ye4gB9nE5IRMTU0VfP0mhQmFlUXAQ9Ha3CKD/QPa2c4vLMjY+LjEojHtrHcyTFc/cviInDhxImM7OXRS82WhAcX3Ymo6PFfo7NMyCCsjxCCs2lrasrBWFZPF7qFBIDauRZURRCnKjFjGQtZYwgXLt+A6xeOr5j214g/GTfdl01lgON8DfQP6Pn1vb79eh1IE9ay1rVU6Ojq008k4xmqPqTD1st3cH1jOBuU9CB0lAv2dldXybPfPic3UYZu5Zp01zfJ01yPqTSc7s7a6ZtrveZ2ZSo8VyQYKK4tAh2OzwQNUpd4rTN3HMB2eHiE6djIMHSFPT2pGUiYGz0hqvTZ9OjX7w8+M/uH9yc9mY/hssYOhrRgC+O9bPBnHh/NbYZ74p6dn5Ctf/br86Z//jXztr78tf/GV/yt/8ZffkAsXL6knSxdxTgpWeC1LEdRnz7JHvaXwzhX6WoGrpmPE8kJY0qalpUVsRe5Z3Q0c74x/Ub5x53Xz0y2DDV1yvHXQ1OMKeW38p/Lm1EUNbCfbAzEFAY6fKe8fIZlAYWUhKXFiflm/OXFfpoTLTobPpaamZ2qcxZY7GL7r6uwUV5tLr0cKc3X0/GJbKByVK1eH5cc/uSyXL9+S985fk/cu3BD3ki9xDZPvS1mpgli0YCCo8Xla3wsYXAVdCN3nS96LpX2vRFdj8sOp8/LaxE9lOrCooQjxtbi4Q1750eQF+fboO3JjaYyeGELyCHtkQgydRlQ9+vCjMjQ0tKUogsBy1DjFVlkvsWg8OQyGoSUjbm21EjBCA+vmlTo4D/bKSu2wY/FYcmvhAuGH4crR0RHxeL1a7lImHIvI125+X24sjxkx5ZNRz4zcWBiVqZV5ueYeke8YYfXqxM8EueEJIfmBwoqQNICQWlhYlnAovOlpPxAIyY9/8p5885vflLvDd5NbSxt49U6fOi0dro6C91hheBfD5Shvu8tV8OXNFXishj1TshINyWJwWWetwqvdWt2ox46Zglfcd5mJPQ3o1bOOg3YuKawISRP4sRDDshE4txC83tTcpLMrSx3EnGBpmosXL+jMKcy0S4fUUOn9w9g7mTVD3GuytLSkOcpQ7rSD1811LU8O6aZlqX/m9/0EtTMYC0swEpKo+YkEvhXmPDoq7GIzzX0kFpFg1GzXd5J0gCig5WYHjdISVrh+xra6sHtpiYKQUgIdZk11lVRUbO44MfGgu7tTHnn4Yc0hVvKYqo38PpeuXNbM67FYep4PCCXEsdU763UWaXVVjcTjaH4QTL7Z1tawhI1Namtqcw+ON+X1eDxy89ZNI7CW0xZWmC3rNOWsq3Wq2W12s69yU7YHDdsrK+06q3S/4x0xC/JQQ7e0VzdKr7NNBura5UhDl/7eY+xoY4/01m2OIyT3kTw1qCuoO2peWk5mzmGhzyC2kjIjBIpaBeCJ+cbNGzI9PS3Hjh+Trs4ufXLcT/yBgGnIb4jX45UTQyd0ajrJnnAkIqPjI+Z8eqS/b0AqkUk7z8TjMblm6lWDEQO9Pb3aKFy9flN++3d/T3wr97w0TY218ksff1k+++lP6IyzXDusJe+yzBnBcuzIMU31UGgdIDqbd3/8rkxOTiaG19rbNdYKU9R3Ap9DDFrq4WPR7ZHL10eNeNq8WDFao3h8TWfXPnpy0IiVar3eSCUCyxTMXvzRGz8y12xFnnz8CWloapQYyrFLeZFXTr1x5m0o+8TknMzMLT74KGpex4zQtpZGUze7NP4MYnDjbN29BDP+vj36tgx7JvRkpo4S3jeA3FaPth2XJ9qH9l0EFiqoM9/7wfd0pnBzS7Peg/vdpxQ7qIlYUkrWyuRDr7yiDy6lTNELKzSAN27ckLGxMWk0jSaygO/3TYAOBJUIN+TQQ0PS1dWVfIVkQyEIK3SyFy5dkj/5X1+R6lqXzMzMm7pWLR2uBjk02CGf+dQn1XuVK8UgrF597VW5dfuWPPvMs9LfP2C2xXcVKgCfBQj6P/fuJfnSl78irjZzv244RLRGoXBMWppb5Xe++KvSagQLhEu2wgpZ17/1939nhNyCvPzSy+JytWsqlN3KmxKAIByOyFf/6u/l1R++a4Te5g4B+ykrq5Anzjwqv/bZj2pZNX3KPgkrBOfPBZckEA2iN1sXVoo5zzZT1voqpzQao1jYGgirV19/VeMpbeYa8jxZQWIFBKT9oLAqAiBirl2/LiMjw9qgYQr4foPGFuXC0MBDDz0k3V3dyVdINqSE1fLysvT39GcsYPSJM2npspXHanR8VN772UVx1rfJ7OyCCqumxhqpspfL2SfPaqeaK4UurJCV+rXXX5Ph4WF57tnnpKenR0VnOsIqRTQWN2LnTfmN3/qP5t5AUPW9Y0Rz5PdHzcNIt/zP//5vpaujVYOusxVWwVBIvv2db4vX65EXX3xRh2vT8VhtJBgMyX/60p/JX/3Nd6SxfnMcHUQihi8/8PPPyr//nV83dbNC68FeC6ul5SVZXlrWNgfLMiFBLa4L2iFkEHdUO4yodCW8BgaUDykzmpub9TPkHjhvV69dNQKL+b6sZGZm2jxcrVFYFQMR03BcV2E1okMxhSCsUsB7dvjwYc2MTrInIaxGxb24aM5lp3ZemYD4HnTK6c4Iwy0BL8x1I6wQFwRhldiO9AqJ5VHQoUIQpIRPpsJtOwpeWBmB+fa7b8ui6aCfMmKyvr5en0QzF1ZvyL/4zd8z53bzMaaEVWdnl/zpH/+73IVVMCjn3jmnnpszpx/TzPqRDMsbMMLq9//wT+VrX/+uNDZsFiGoB2tSLh80wuo//O4/3TdhdenyJblh2sGu7m71DD7y8COy7FlW8fTGm2+Iq90lTz/9tFy+fFmFA1YRWHQvyomHTki3+Qy5B+og2hzc78QizO325rk3JeAPUlgVA1HTSGAocHJqQp+ekV3ZKtctTky2e8JphWfFWevURpZkD1zz45PjaggSzvT6VpvzjzUN07kOuG7oeBB/guGuurq6DR5HDA8lf70PqwRQMQwFQlgtLS/LE48/YYRnXUELK3hsfvbez1TkHD92XMqN8Ck1YYVzhjiy6ekp6e3rl/GxMfWUX7l6RcuxuOjWPG0vvfiiTE5MysjYiG6HVwvn9sTQkNlLYdWz/SY1bE2sAXX0tR++Jv6VwIEQVkUfvYjmAO0yGoja2lptLArCzBNhQ31DyVegvQAdFdYy7Ovp00Wm4QHMxNpa23SGGTpmLB20nSU67jWZnZvR78X6chBW90h4pbaygwRyI2Hpn4Dfrx4s67HuWQ/lw2LoiMHE7KRS7TBRdxHv5nYvqqDDWncQlTj+1tYWIwgbVEwGQ0HTJmF2q00X0saQN0XVg6A/oVlrB6mdLJlpIbho6IDhJULDYoWlZvhkY6nPokKR3MA5hEjt7e5NWk9GBnEF0a2LUxuhu53hdfTpWEAbNDU1qceRPAieQFVU5aCB7s1Zyx9xI6QwHIjp3uFI2GzJ7jvxqfyXNktMf1Vv7o8GI55QSNRbeF1xz+D3rq5O85DQohN94GlEu4TZlpj15nCUfu41QvYa9vqk4EmJ5o3CNROD2N745LSTmS9b98LgO3UbWQdiCGsFIvYMnXZuMY35lyqoOxg+PnLkqLS1tJnrWTgxmFZRZv7V19fphAIsyYQFp+FtxfXBg0hXR5cGqa+aeh0I+I0oXlUPLma9IYs+IcRa2GsQch/wxnh9Xln2Lu+5BQIBnXlXsBgt5F/xy8joiMbuZDMUiEmA9qpKc5yIX4pK1Owjav6ARaJxTbdgsyFLuzXNE7xVmDWc7VAgBjAg0LAIt8ZUmfoBQxb+mPk7HImrCN/PoQ4Eoz/22GOaM6+/r1+OHD4iJ0+c1MD01tY2aWho1GHtM6fPyNDxIc33d/ToUc4IJCQPUFgRch/oIN3LS/tiKysric6/UMMRkuWCoMp21hTOb4erRfq6O4yQMsIkDIurRSKrGi909EifVFdnHqx+P9A6yO2UKG92HjJ4LXtMWZE/LRiKSTB4zyACEZ/X1bW/2cwRjI4h75rqGp2piYkPmMiDmclYagnnFLFVSOia2g6PFjy6hBBrobAiZAPoRNE5IR4nFArtuSGYGPFehTwEWeus0eEmdM7ZlBOfGezvlOefPS3tbW3S3Ni8bvC8HDs6KM89c0qctbnH/0DsOOucmsMpseRM5uIHw52PPvKQHDnUJ3V1Deb4nWo4/saGRhWBj5w8rCJuv9ko7vZT6BFykCmdJW1mpuX48eM6NZ5LNZBswfIsyP2znzcF+kN4GTD7rtCANw3r7iHRJKb0Q6xkmm4BYI3BqekF8fhWMPaa3GowB2+32YwQajKipV7PBYQYPC6JWZuZEYlG5PKVy6bca3L82DHNpJ1pugU0kYFASIbHpsTvR0bze5+FeKmrq5Xeno51IYhhwb1Mt0BIoYN7CNnsV3x+5rEqBiisiJXgdiiEWwLZs/Gv0ICwGp8YV+8ahpXQQGJaf6bCCqcY+9J4so0fNYeM44aXKOVdykVYoX0YGx8Tr9crA/0DYndUaaqIzMu7ZkRaTPd3f3kxOcJeaVv3EFFYFR+4vqjH2cTgZQvqi83UGyQwLnVwfimsiggKK0L2DsQqIScUhkoxvR/DYeiMMhUqmZCLsEKKgfHxcZmdnZX+/n6pN2VOZ63AXKCwKj4g8FFHkIx4r0DMHta31WWIoNBLGAqrIoPCipC9A/cblk+Znp7WGWd9fX0qfApVWCEh5vnz52Vufk6OHT0uXd1daOUprMgmMGT85ptvis/nS27JPxBUJ06c0Kz4FFalBRUIISRtIHLg+TkxlFhjrtAbSJQP5T31c6eky3RgmS7gTQ4G6PhTqUOQFLjOWZc3w/4RP7maTN1BSg96rAghGYFhEwyZQKSgM8omeD0TcvFYAZQP8SyI28Ki7ZGQKW8emz16rIoL9CGhcEjeeustXXv26OEjeg3zBe6ZmZkZ9aaePJnINUaPVWlBYUUIyZqQ6RyCwVDekpqiw4GwclQ7pNqC5VcCpryhYDDvQ4EY5in1zqNUWFpe0sS8Fy9eVPH94vMv5lUUI0j+6tWrMjc3JydOJjy/FFalBYUVISRrfD6vpl7Ak36+QCeHhJdY+y5XkN3es+xZH/bJB1hzEkvIIGUGKWzQ/b333nu6aDXSrNQ4a+SlF17Kq7CCt5fCisKqoKGwImT/wNP+7OyMhNOYTZVpQ5PqatAIu9rapcWIlVxBO4HAe3gN8gUW/O7t6U0sikwKGnR/594+J3Ozczq71VnvpLDKAwdNWFGBEEKyBvm2EGuFjmgnK68o1xQND1g4aVu8hngozfVjM58vt6apgrhDI7+bwaOFVA2ZGB7ysHwOPk8IObjQY0UIyRqIIgT+7hazFAgFZHR0NPlXekCQtbW16bIxWI8v2+D1jWAtRt+Kb9dEkPAqYAq+kVlpu9pSQesYCqyvq9ffSWGD7o8eq/yD80yPFSGE7ECmz2Nx02mtBFZkxZ++BYIBfXCystMpt1UYgeZQobaTBYNBfVjD7K2Z2fQMw6J4qEOnYZWHjRBSfPDuJ4SkDQTVwsKC3Lx1SxYXF9OeDYjPQSRtNYS2nWHdxkwF3P3AC4HyYlkbiDVQYUQPvEs7GcqK6fAQd+kavHeJ/VesL29DCDl4UFgRQtIGQ2NT09Ny/vx76qXJ5+w6K4CwQjlvGSHo8/rSFmo4zkxFnX4m+Tsh5OBCYUUIyQgErMdW40UhIuA5QqwTvFAod2Jj4gchhOQDCitCSMZU2e2qT3Idqss38Fh5vV61SCRa8OUlhBQ/FFaEkIyodjikpblFvUDFIFSQvDQcjWgKBworQki+obAihKQNZuhBVPUP9EulvbLghQqG/xrq66W62iFRI652S7NACCG5QmFFCMmIhcUFGb47jGht9VoVMhB+yFvVUN+ogtBW4OUlhBQ/FFaEkIxAGgKkFkDG9ULP14Tg9XgsLhFNhVCGDYkXCNkCeDT9fr8mkr0/r5olZvbrD/g1nQjnkJYuFFaEkLTRoT94qmwVKqoKPWM0EnZiViCWmllNM+cWObjEjAifnZtNJH1FclirzewXGdex4DMpXbikDSEkbfBEf/36dbk7cleOHD4iXV1dKrZ2W9LG5/fJ5auXM4rJcjiqpa+nV1ytLl3OJpslbdA+uN1uzYbudDolGo+p92q38o6Oj8rk9GTyr/TA/g8NHJaG5HI2+VwWhVgD6uPGJW0Sa1Pa8prgFd+J73JUO+Tkwye1z+KSNqUFhRUpSVCtvT6veTIMZNSZWwG+zapmssI08s1NzdrYFwLoEJAcdGx8XIaGhlRYYdtuQgXDhxBjqdEPXBMdCtnmYwg6x5p7rjaXNDU2ZS2sotGoCrqpySl5+OGHpaW1VeKmzditvGMTYzI1M6W/p1t/6px1MjhwSOrNTwqr4gDXdqOwgie2oaEhr8JKMbvHg8OhwUFpNXWSwqq0oLAiJQkayfHxMZlfmJd4vDhngqGprTJPtceOHJPq6urExn0G5/Xtd96WGzduyJkzZ2RgYCAhknYRKogpcS+5VUjh/e4lr9y6PSblGkt+r1NJtEZrUltbI0PHB42obJKa6pqshRUWUn79h6/L8PCwPP/c89Ld0yOr8fiu5UW9WXAv6O8oE1I1RKPxbUK04OWoMAKwQTrbO7W8FFbFAeriRmFVVV0lx48eN/Uyz32IqUc2W6W0mIem2tra5MbSBeeZwqqIoLAiW4FG8tKlSzI6Nmo60oSLfy/A7ZS6pawI7K511srZJ8/qMNNeHcNO4Ly+8cYbKlaefe45OX3qlJZrN6GyEQjdd39yRf7ov/6lVDkQp2VIHhpOXTy+Jv19PfLF3/iMEVYNeh5zElavv64xVo+dfsx0Yk5Nu5COEIS3C+CYp2fmxb3sTV7TzZ8tM+1NQ71Tero7xGGvUu8ihVVxgHt1o7Bymuv40gsv8dpZDM4zhVURQWFFtiIlrMYnxqWtrU3q6owwSfXeeQI3EoJSEfxqMw1ze7tL7OapdDdSN+BWpaussktvd29WoiIfYG3Ac++ck4mJCTl79ilpd7lUgGQirBAg/N0fvCO//W/+SFyuuk3CCicjEIzqffzlP/yidLhachJW8DR9+zvflonxCXn/+98vXd3daQ0FollUM//CoYj82V98U77/+jtGmG32HKKeQVi97+wp+fUv/JKKKqSgoLAqDnCNKazyD87zQRJWVCCkpEGn3NzcLJ2dXRoPlG9raW3RxJnoWNvb27d8z/3WnbQHX+s2wqW9YOKrALxTNTW1Wr7G+oQ3KVMgaSJGjHk8KypEg8GQ+ZmwgDG/P2ga4KDp6NIXa9sBAYUOE9cDwixdrx/eh2OrKK/Q32dnFs0D3IjcvjO2wUbl1u2Ezcy6VWARQghbAlLSJIRAjTQYEdDQ0Jhna9B4CXgsKittGsy89fvStQbdRyEl4cT5xNM8AsuzEVXrGM20ra8cr6n8yh08KdsqbNLR0SH19fXZCUEtT4Iy89s9w/kw/1szf+kbrCkzIaS4obAiJF+k5xwpKuD9cbsXZWx8TDOaQ7hYC/Zn3T4RhIxp7Sp4E5Hy1kJBRQi5DworQkj6GLEYCARk0YgrZJCG0CpojOaptFWKx+vRjNoFX15CSNFDYUUISR91zpRJVZVDh9hycctpaPgWzh4r/T86pGiKmG5sVTZYWV5CSPFDYUUIyQgMq/X19UljU5NUZJHvBxKnvBxxSWuaBgE/U4aAdRgShFoyi9Oonlg0Ji0tLeKsc+Y0Y3g7EYjtedRthJAig8KKEJI28PwgeScy2nuWlzXdSaZAVLW2NGrMk9sdkGVPcJMFghFprK8VhyP3KdkQax6PR9NDYAFcCLmMgWgyx41yRaJxzcOVskgkLuFwzBxTYvYgIYRQWJFtQc4iLEWC2JSis4BfYnF0+mWm84vo31u+L2XmdXTCBxVca5/PZ4TN8npizO0IhyMSCoV1hl02HiAIkJ7udvmFD75PDg32Sl9f97oN9PfIqUePywvPPSbV1bnn7sJ3JRZgTnjGsqHCHOehwW6pstuNOIuIb93CEgxGNdN6X2+HeSeFFSleUl7jg9wOWgUThJJtgahaXl5WYVJsoFqjTvi8Puns7JS6uroHPAqoOxrMbDYjYV1PV09OqQ0Qz7OwsCCXLl/SJWgeffRRqa0ujuUqwuGwni/87Ors0vO1FThfSKiIhY3Pnj2rKQzwmUwShALksXr77Yvyk/euJ0RPcnvKm/XcM6fl0EB3clsOCUJN2b7/6ve1Ppx94qzUOGslaupzJuWF6Lx4+Zb8/h/+b1laXtmknzBcOdDfKV/4/D+Uxx8b0jrGBKHFA+oFE4QmzkMoFNK2PpXzzUqwf2ZeLyIorPLH0vKSLgmDIZT1ni/Vqez291bs9p509nE/W30muQ0dIrwV6Oi0Tmx4D6o9PDTBYFD/drW3y1Om482lQS1mYYVrfPPmTfXcPXT8Ic1WvxU4b1PTU/r+nu4eTV4aCocyFlbYTyQaMyInpuctBS4RUiTYzXXA+nsgJ2EVCcvFSxc12/vJEyek0jTokQyFIFpIePFm5hZNfdn4kLGmQqqmxiGu1ibTWSTqDoVV8YB6SGGV6EcnJidkenpa4yfxcHX/g2gu4DxTWBURFFb5IxAMyJJ7STvOoiNVq7dpG1Dtv/V339JGtcx03L/6uc/Lyy++fKCF1fXr13VYdOjEkLjaXMlXHgRiFO/D+oU4v9l4rDIhF2EVX43L2NiYirR2V4fEjdDOVFgBtJJoayDWNwMPVbmpN/ey41NYFQ8UVgmwNubd4bsyPjYuh48ckYG+fgqrHKACIduC/D8YEmpqbMqrISt6Y0Ojfhd+IuN444bXsa2+rn7dUtvUGpM/jWG7s9ZpRE2N1Jt9NDVt/p77bXFxUc5fOC8XL17QTpPsDhpICCn3klvFGDqjQgYPWbi2gUBQhzmyfY5EHwPx5HBU3Wf2TaKKkKLE3Ba4l3GvrBX4PV0MUFiRbcETC0yDlPNkAB0ebmh4QhBwnvIMbDR05jDEAeBvvCcSjWhjgKctXQjYdJp43ev16utbfV/KcFz6WfO51GdJesA7DC/xwuKCXotCBtd4dnZWrt+4roH57DQIIfmGworsiJXu4K1AxzwzOyOzc7Ny5+4duXHjhk6Nvzt8R66bzvv2ndsyNz8nt+/e1s78Z+ffk1u3b6lh6AoxAeMT4+a91/V9CLjHkish8zNTNsb6kK1Bfejv65dnnn5GYzEKaYHo7ah1OnUY0OGoTrieeJkJ2YS2fbwvLIPCiuwrCY9YmQokLJUyPDKcDKKc0XillJfK708so4L16abMe+E1gZDCeycnp+T27du6Dd4rrA2H4GeSH7CoNYZZkWZAhTfa5DXTNOfTsmz1Ub7uri7p7+/XxKblKC8hO6C1bas6WMqWPHZiDRRWZF/BsJzTWSexeFzjoxBUDC8W+j/Msqozr1VW2s1rtRoQ3tjQoK/hcwgwjUaiOtwTj8X190qbTZqbmhPeCZIx2sSm0cqmPJm4VvASQhTny7B/DO1mA+oJAvE7Ozqk2uEwnUiizPk2dFak+EBbgthBr897oGzF5zMPscWXVqdQ4axAsi04t/AWZduppQv2j/gqLGMS8Ad09teqqZbou6uNQEInnuqwVEStGuFl/uEnrjU6T8RJYaYJxBf+hqU6/63Afr70n78kX/0/X9VZXH/w+38gH/zAB8VuRFy2QJQU+6zAFf+KDA0NSVvr1ukW7gdxVhiKDYXDyS3W4zD1Aff1TjMV0wUeT+Q2w/XPFxD8DY0NptyO5BZSqKD7e+edd2RuLjEr0FZpk46O9h3bjlIEy0ihDUDc6vFjx2VwYNDSc4DzzHQLRQSFVf7YK2GFKpjq6CCeAAKOMcz35BNPrt/geN/G6pr6Ha/jd/yESEpt2wkKq82khNX8wrzmsMKwWToETf1YMWIldd3yAa5Pba1Tasw5zRXUZ4j4fKaHqLBVSE1tjc6qJYUN2g3EdPpXEisv4IGsSpdSOljCCqCdx0PBsePHZLCfwioXKKzItuyVsEqBqohZgej0rl6/JhcuXJRPffKTuqTIRtFkBRRWm4GwwsSByalJ9RhWVKQXlL6G5WKw/p4FrUiqKXqgQTd/4p4us+C+jpu6rEsd5bHVg+fVZjqodNuhxHEnHgxKoUMvruNZUy95qo3DZIyW1pYH6+ABAfd+d3e3tLe3mytn3TlAnaCwKiIorPLHXgurcCSiwqSsvEJ+9t4F+elPfypf+LXPi62iXGOssHyKVVBYbQYZ1+/euStTU1PJLXsLmiEM58bNdcGafPAcHBSQbgQeP3uVXRemLnaQ7R4LVGMItxiuI2L4Vk15ATyNj595XL2OBxFcLwxhZ5OMdycorIoMCqv8sZfCCtUQLvk/+bM/l2i8Siam3OLzemRwoEca6srlhWeflueff96yJ0kKq83gGiObOtJU7EeDEI3G9PojB9ng4IClIrqQgaAavjusHsPBQ4ekoaG4jxv38a3bt8Xr8WisXm2Nqf8F7PxBO3Dt6jWtdyh7bX2tPP/s8wd2GBftK8xqQYxzS2FVRFBY5Y+9FlbjE5PypS//sWmYZ8UfjJqnyLg4HJUy0Nsqn/uVj8sz73uKwipP4PzjnMD2AwzPIRM+MqS72l3mvNUkXyltMAFjdmZWvSYdHR0JIVLEoB5hLUmI9N7eXnP/OiwdUrIa1Lt333lXFxVH2Q/qkjb5Buf2IAkrKhBSEOhTUoXNWK0se/wSCSMbe1z8KyGJxm1iryruDqfQwfmHwESHsh+G4QeXyyV9pjOuq3Vu+Z5StCp7lbR3tGuy1URqka3fVyyGDrOzo1MGBgZUJOJBZav3FYohpsqqhzVCUlBYkYIATzTBYFgmp+bN78mNBvzq8wVkemYhsYGUJOjc0NElAucPTnwLjhviCmlFSuW4Ia6QPPYgXUdCNkJhRQqGxHDUgyPT2A7LN4U8ZHEQwPk/iN4DHHMpHXepHQ8hmUJhRQqGykqbNDY4TaOc3JAEeWXq6/IQc2O+hx0AIYQQK6GwIlmBIGfMaMJSNBst2+BnCBxHlV3aWurFZqvQWSnYVqGpFqqkqcn62VIOu0OcTqcaBRYhhBAroLAiO7LVEBzE04o/IHPzbpmdXVi3OWM+f3DL4bzdSMRY+WVxcUK6O5uM2KmRmhqHtLXVS0VZyOzb2vxKEFInTp6Qj3z4I/LKB17h8iOEEEIsgekWyLZg3Sgs/4HkeSmPDkTVxcu35NUf/kRmpuc0JUIKnPYXnj8rL7/4pFQ70k8wh8zd+A5Mef7RG29Kuc0hHm9IPWD1TocRPWVyeHBAr+8DmGIhqWKmHidU+5nZGa03WIS0palFnjr7lAZQZ0sxp1sg5CASjUXl3FvnNNUH2gSmW8gPOLdMt0CIYT2PFZYASRKJxuStdy7K177+Xfmrr39H/vob3123r3/je3L56m1N9pguECP4Ho/XoyLpiSfOGIFzSl587oy8+PwZeeZ9j8mZx05Jc0uzeDwefd9GQ2JFNI6ZAiGGaeEQa/39/TrtGt9PCCGE5AKFFdkWeKvgRQqHwsktIn5/UH78k6sqaFpa6sXlalq3NmP19dVSnon3aM18TyAoI2MjMjY+JrPzicWX5xdnZWlpQaamJ2VqZkompiZkeGxYhkc326R5PRAIJHeWG5wVSAghJFcorMj2rCWzcWOR3STwLsFrBfGE9bQQXJ4yBJzrMGyG+gT7x37hGdvONFAe77nPsD01mo0s1pFY1JRvs2ENumyD6gkhhJBMoLAi25LQK5tD8CBi1oxIgXen3AgoDKmlrNxsyMRZtY75CuwXAkv3v4VpHNaWZl7HLsxP95JbRkaG5e7wnU0GzxYWGcZ7CCGEkHxCYUVKAois6ZkZDRw/f+H8JsO21CKrhBBCSD6hsCIlQywWlWAopAvabrRQOCSrq/dmLxJCCCH5gsKKZEcBxnljWFBjwrYweqsIIYTsBRRWJCMQoI7FVZEENB43ZkTLusWNiCloAYPyxjWYHTm6IpGIBsATQgghVkFhRTKi0l4pDofdCJK4hCNGoERi9ywal3hsVYPRCxWIKe+KN5EHy+eRYDBAbxYhhBDLoLAiGVFT7ZCXXnhcBgd7jSCpkGh0bbPFE7P0ChV4qBBzlTJ4riisCCGEWAWFFcmIykqbPPn4SfnEx35efvmXPiC//IsfXLdPfPwD8vCJI/qeQgUiCsOB6/mxVpnfqlA4qPFwOGbUyVI5bsY1koMOhRXJCCQGPXKoVz736Q/LF3/jc/Lbv/mr6/av/9Xn5YVnHpMqO9fZIpmBThgexBX/iiZ9PSjocYdC4vf7VeiXApiJi5UZIK4IOYhQWJGssNkqNNaqquqe4W9sz3RB5D2HD9IFB4ZoxyfG5erVa+Jb8SW3lj7wVI2OjZrjvloSudYgpu4O39XccVgSi14rchChsCJZsTHbespS2wjJFCR4DQVD4l9ZkXjsYHmsIEAgJkthhioiLLF2p8/nO1CeR0I2QmFFSgYj64ywS/7xABR8Bc1aMtbIdMYQWQcFCBE9biMmS8W7g7QruoYnLiohB5DSEVa4h5OGBoqWu+lpzXPbmPqebFG5hPLqX/CkJReD3mhmW8KTtrO4uv/4M7UH+hFsSr1GyAFiy/uBkANCmbkBirr6w31+4+YNmZqakoHBAXG52umbsAiPxyNut1sa6hukrq4uudVaUP28Pq/cHbmblaeixlEjXZ1dpnz1Mjc/J4uLCw8EzVaUV0hPT4/UOes0OBr5qzYOU6ytrukw1IkTJzT5aS4sLS/JrZu3pMpRJcePHReHw6Hb7ZV2sdvtKvTIg4TDYbl67arMz83LqdOnxNXmSr5S2kRiEbl44aIsLCzIqVOnpB3tVxEPpyNm7J133xX34qI8+8yz0tDQUNDHE41F5dxb50y7sahtkbPeKS+98JJUVnICjpXg3L76+quy4vPLh155RdvCUqZkhNXY6Jg0NDZIrbMWA0LJVzMFpyL12Y2/55vdviubsqT7me3etyaRSFTCkbDUVNeoUMgL5usxG2xxKdGwZQoES70RVY4qh5YVCUDv3w8a9urqarFV2PQ9mLW0ScSZt0fCEWlublbv1ma2Oz8pNr+OeBl0kjabTdraWvUnXm9qapKO9g422NtAYUVhtR9QWO0NOLcUVkUEpijfvn1bRoZHSma6cqEAUWCrtEl5RWooLT+gAq6trpqfmVdFlEttR/FzD1R3/Z77vgodQjQUzUrcPUBqF6ZI2B88aD09vTI09JCKVPIgFFYUVvsBhdXegHNLYVVEYEhnZmZGZmZnZDW+qp0ZsQYMW5UlZ/vlm6yroSlaph7KLQWcqTqWzGIyu07tH+cNOYq8Hq90dHQYYTUkNTUUVltBYUVhtR9QWO0NFFZFBrwB6LwwBHOQZhPtBWgQVbQUbzufPhBE5lbYUnTlgGfZIyMjIzqUevToUWltSQ0P7g+4XzAUioSU6VJTU2useothUuugsKKw2g8orPYGCqsixupO8aCTqSeo2MlH/VmYX9DkjxAzA4OD0t/XJ9WO6uSrew9iEufn52Vqejq5ZSfM+TCdIrxt7S6XxqjlCworCqv9gMJqbzhowqqkpigl/Cv8Z9W/g8bGY7fqn+7XdCzhUNg0KvufNBEeK2T4Hh8bS8PGZXx0TDxLy4lhdkIIIbvCud+E5BHEVCHVw5EjRwpiViDSSWD2I8qzm7W52qTCVkFPMCGEZACFFSF5pKqqStra2qS7u1tTLuRzOC0dMCEBOclQnt2sqdGUdx/jwQghpBihsCIkj0CYQMg0NjZKbW1tzglIcwXDkkhaCpG3k6G88LYxoSkhhGQGW01CyJYUcxA1IYTsFxRWhBBCCCEWQWFFCCGEEGIRFFaEEEIIIRZBYUUIIYQQYhEUVoQQQgghFkFhRQghhBBiERRWhBBCCCEWQWFFCCGEEGIRFFaEEEIIIRZBYUUIIYQQYhEUVoQQQgghFkFhRQghhBBiERRWhBBCCCEWQWFFCNmBsqSJrK2t6U9CCCHbQ2FFCNkeI6Z8Xq9MTk7K+MS4jI2P5cWw/5WVleSXEkJI8UJhRQjZEW9KWI2P580mp4yw8lFYEUKKHworQsgDlJWVqdlsNgmHw7K0tCTuRXfebMm9pN9DCCHFTtkaAycIIVvg8XhkYXFBItGIGJmV3JofYrGYzM/PSzQSlVOnT4mrzZV8pbSJxCJy8cJFWVhYkFOnTkm7q10FbbESX43LO+++a8Tyojz7zLPS0NBQ0McTjUXl3FvnZNGUF12hs94pL73wklRWVibfQawA5/bV11+VFZ9fPvTKK2K325OvlCb0WBFCtqS6plpcLpd0dXZJZ2dnXq29vV1qamqS30wIIcULhRUhZEvslXapc9ZJQ31D3q2+rl4q7fQSEEKKHworQkhBkO/hRkII2QsorAghhBBCLILCihBCCCHEIiisCCGEEEIsgsKKEEIIIXnjoGV1orAihJB9gwH7hJQaFFaEELIPxONxiUQi5ueqrsmI5KjIPh8KhdTCkbCsrprXiCXAa4LznTq/eo7N+eY5zh9I/ItznDjPB8drRWFFCCH7QDAYlCW3W8Kmg4+bzh2Z7ufm5tYN2cDRMRFrgIDC0kzI8J86x8h4H41Gk+8gVuMP+GVufk7PefwA1WUKK0JIwVHqMRlr5p/H65GxsTHx+bwSi8ZkampK7ty5I7dv31YbHR3VJ/1iORdazgIuaiwe18W+U+f39p3bcvfOXfVcpTg4PpX8g/oAIYtzjPMdDmEt0DVZXSt9DyHXCiSE7DsQEFevXZXZmVk5fvy4NDU1JV9Jj6qqqsT6Y2mELEHUBP1BHYrbTyanJmRkZFTKy8o3rZ2GJjkQCIit0iaPPPyIOJ3Oolk/EF6hy1euiMezLKdPnZba2tqCKXs4EpErly8bIeuT6upqqaioSL6SOOcrKytSVe2QJ848rouPb0d5Rbk4a51SXp4/vwTOo9/v3/c6misjoyOmjo9Ilb1KV1bAeX366af171KGwooQsu+khNXkxKSuT4h1CtdBC7VD34yM7c2tzdLY2Gg6pLh5e5kRK2Zr0u4HwmpyfHKTp2J3sB9rm0oM/eGJvrWlVYUkOmo0x1jIeGJ8QuOBOjo6VDRuPv5tyrLpPFlY3tRuNpXBsP59G77L/JienpZgKCjdXd1ir7I/eA3WP3cfun3Dvnbi/rdstb8UyfdCpKBsOMc9PT16XlE21Ad4DO8O3zW7KZPe3l4jniC6ti4HPjcwMCj2PC7UjPthYmJCAsFAcsv9bHee7t++2/k0r0MC7HT+tmW3fYu43W5Zci9JR2eHLsgNYTVozt1OwrUUoLAihOw76EiuXb8qI8Oj2uhm4g1A59g30Gcab5csLizIaplNaqsdUllpNx17lVRUJHqN1JI5GIq4dP6Sei526RfyCjp6iKiHjj+knXnKgxKJRuT8+fPaIeFcbCUOCxnELMHjAi9cIZUdXR1i1rDY96lTp6Suri75ikgoHJJz587pcNVG7+EDmMPB58+ePSvVjg3i32JW/Cty4cIF8Xq8Wu5iJRaPqWh95NFHpLu7W+9reKuKrU5nCoUVIWTfQWc8MTkuMzOzyS3pg0a6o6NNls3T8dTMjNQ3t4uruV5q6xtlbn5Kmlpc0tLYJOXJthxN3p3bdyTg384bsHeg7P39/dLual8Xk+j8b92+pR4tNs/WA2F09MhR/ZkCYvby5csq8HfDYUT7yaGTOwuwHIHHb3h4WIcD91P85wriBz1GHJ4+fVrreakLqhQUVoSQfQceDq9phDGLKNMmCY21s7Zabl67LgvuJWnt6BVXU504jZi6ffeauNp7pau9XSpSjbrZvXvZrWJuv5s/lL2hvkFqa+7FIunsteUl9aKwebYee6VdmpuaNw1HwXOoMwRjO88QxDWyVdh0+HZjjJbVwNMDj6rOWCziKuBecsvC/IIcOXJE2s09SGFFCCGEEEIygukWCCGEEEIsgsKKEEIIIcQiKKwIIYQQQiyCwooQQgghxCIorAghhBBCLILCihBCCCHEIiisCCGEEEIsgsKKEEIIIcQiKKwIIYQQQiyCwooQQgghxCIorAghhBBCLILCihBCCCHEIiisCCGEEEIsgsKKEEIIIcQiKKwIIYQQQiyCwooQQgghxCIorAghhBBCLILCihBCCCHEIiisCCGEEEIsgsKKEEIIIcQiKKwIIYQQQiyCwooQQgghxCIorAghhBBCLILCihBCCCHEIiisCCGEEEIsgsKKEEIIIcQSRP4/aQFnIBzuMfUAAAAASUVORK5CYII=;" vertex="1" parent="1">
          <mxGeometry x="140" y="50" width="598" height="488" as="geometry" />
        </mxCell>
        <mxCell id="cgG15gPhDWwo4B0szn4L-4" value="&lt;b style=&quot;font-size: 22px;&quot;&gt;&lt;font style=&quot;font-size: 22px;&quot;&gt;Time filters&lt;/font&gt;&lt;/b&gt;" style="text;html=1;align=center;verticalAlign=middle;resizable=0;points=[];autosize=1;strokeColor=#006EAF;fillColor=#1ba1e2;fontSize=22;fontColor=#ffffff;" vertex="1" parent="1">
          <mxGeometry x="160" y="570" width="140" height="40" as="geometry" />
        </mxCell>
        <mxCell id="cgG15gPhDWwo4B0szn4L-5" value="" style="dashed=0;labelPosition=right;align=left;shape=mxgraph.gmdl.checkbox;strokeColor=none;fillColor=#009587;strokeWidth=2;aspect=fixed;sketch=0;html=1;" vertex="1" parent="1">
          <mxGeometry x="180" y="666" width="28" height="28" as="geometry" />
        </mxCell>
        <mxCell id="cgG15gPhDWwo4B0szn4L-6" value="&lt;span style=&quot;font-size: 18px;&quot;&gt;&lt;font style=&quot;font-size: 18px;&quot;&gt;Monday&lt;/font&gt;&lt;/span&gt;" style="text;html=1;align=center;verticalAlign=middle;resizable=0;points=[];autosize=1;strokeColor=none;fillColor=none;fontSize=18;fontStyle=1" vertex="1" parent="1">
          <mxGeometry x="210" y="660" width="90" height="40" as="geometry" />
        </mxCell>
        <mxCell id="cgG15gPhDWwo4B0szn4L-7" value="&lt;span style=&quot;font-size: 18px;&quot;&gt;&lt;font style=&quot;font-size: 18px;&quot;&gt;Tuesday&lt;/font&gt;&lt;/span&gt;" style="text;html=1;align=center;verticalAlign=middle;resizable=0;points=[];autosize=1;strokeColor=none;fillColor=none;fontSize=18;fontStyle=1" vertex="1" parent="1">
          <mxGeometry x="345" y="660" width="100" height="40" as="geometry" />
        </mxCell>
        <mxCell id="cgG15gPhDWwo4B0szn4L-9" value="" style="dashed=0;labelPosition=right;align=left;shape=mxgraph.gmdl.checkbox;strokeColor=#666666;fillColor=none;strokeWidth=2;aspect=fixed;sketch=0;html=1;" vertex="1" parent="1">
          <mxGeometry x="320" y="664" width="30" height="30" as="geometry" />
        </mxCell>
        <mxCell id="cgG15gPhDWwo4B0szn4L-10" value="&lt;span style=&quot;font-size: 18px;&quot;&gt;&lt;font style=&quot;font-size: 18px;&quot;&gt;Wednesday&lt;br&gt;&lt;/font&gt;&lt;/span&gt;" style="text;html=1;align=center;verticalAlign=middle;resizable=0;points=[];autosize=1;strokeColor=none;fillColor=none;fontSize=18;fontStyle=1" vertex="1" parent="1">
          <mxGeometry x="490" y="660" width="120" height="40" as="geometry" />
        </mxCell>
        <mxCell id="cgG15gPhDWwo4B0szn4L-11" value="" style="dashed=0;labelPosition=right;align=left;shape=mxgraph.gmdl.checkbox;strokeColor=none;fillColor=#009587;strokeWidth=2;aspect=fixed;sketch=0;html=1;" vertex="1" parent="1">
          <mxGeometry x="460" y="666" width="28" height="28" as="geometry" />
        </mxCell>
        <mxCell id="cgG15gPhDWwo4B0szn4L-14" value="&lt;span style=&quot;font-size: 18px;&quot;&gt;&lt;font style=&quot;font-size: 18px;&quot;&gt;Thursday&lt;/font&gt;&lt;/span&gt;" style="text;html=1;align=center;verticalAlign=middle;resizable=0;points=[];autosize=1;strokeColor=none;fillColor=none;fontSize=18;fontStyle=1" vertex="1" parent="1">
          <mxGeometry x="670" y="660" width="100" height="40" as="geometry" />
        </mxCell>
        <mxCell id="cgG15gPhDWwo4B0szn4L-15" value="" style="dashed=0;labelPosition=right;align=left;shape=mxgraph.gmdl.checkbox;strokeColor=#666666;fillColor=none;strokeWidth=2;aspect=fixed;sketch=0;html=1;" vertex="1" parent="1">
          <mxGeometry x="630" y="664" width="30" height="30" as="geometry" />
        </mxCell>
        <mxCell id="cgG15gPhDWwo4B0szn4L-19" value="&lt;span style=&quot;font-size: 18px;&quot;&gt;&lt;font style=&quot;font-size: 18px;&quot;&gt;Friday&lt;/font&gt;&lt;/span&gt;" style="text;html=1;align=center;verticalAlign=middle;resizable=0;points=[];autosize=1;strokeColor=none;fillColor=none;fontSize=18;fontStyle=1" vertex="1" parent="1">
          <mxGeometry x="830" y="660" width="80" height="40" as="geometry" />
        </mxCell>
        <mxCell id="cgG15gPhDWwo4B0szn4L-20" value="" style="dashed=0;labelPosition=right;align=left;shape=mxgraph.gmdl.checkbox;strokeColor=#666666;fillColor=none;strokeWidth=2;aspect=fixed;sketch=0;html=1;" vertex="1" parent="1">
          <mxGeometry x="780" y="664" width="30" height="30" as="geometry" />
        </mxCell>
        <mxCell id="cgG15gPhDWwo4B0szn4L-21" value="&lt;span style=&quot;font-size: 22px;&quot;&gt;&lt;font style=&quot;font-size: 22px;&quot;&gt;Days:&lt;/font&gt;&lt;/span&gt;" style="text;html=1;align=center;verticalAlign=middle;resizable=0;points=[];autosize=1;strokeColor=none;fillColor=none;fontSize=22;" vertex="1" parent="1">
          <mxGeometry x="165" y="620" width="80" height="40" as="geometry" />
        </mxCell>
        <mxCell id="cgG15gPhDWwo4B0szn4L-23" value="" style="endArrow=none;html=1;rounded=0;" edge="1" parent="1">
          <mxGeometry width="50" height="50" relative="1" as="geometry">
            <mxPoint x="169" y="610" as="sourcePoint" />
            <mxPoint x="939" y="610" as="targetPoint" />
          </mxGeometry>
        </mxCell>
        <mxCell id="cgG15gPhDWwo4B0szn4L-24" value="&lt;span style=&quot;font-size: 22px;&quot;&gt;&lt;font style=&quot;font-size: 22px;&quot;&gt;Hours range:&lt;/font&gt;&lt;/span&gt;" style="text;html=1;align=center;verticalAlign=middle;resizable=0;points=[];autosize=1;strokeColor=none;fillColor=none;fontSize=22;" vertex="1" parent="1">
          <mxGeometry x="170" y="710" width="150" height="40" as="geometry" />
        </mxCell>
        <mxCell id="cgG15gPhDWwo4B0szn4L-25" value="" style="rounded=0;whiteSpace=wrap;html=1;" vertex="1" parent="1">
          <mxGeometry x="175" y="780" width="725" height="30" as="geometry" />
        </mxCell>
        <mxCell id="cgG15gPhDWwo4B0szn4L-26" value="" style="rounded=0;whiteSpace=wrap;html=1;fillColor=#66B2FF;strokeColor=#0e8088;" vertex="1" parent="1">
          <mxGeometry x="380" y="780" width="380" height="30" as="geometry" />
        </mxCell>
        <mxCell id="cgG15gPhDWwo4B0szn4L-28" value="" style="shape=image;verticalLabelPosition=bottom;labelBackgroundColor=default;verticalAlign=top;aspect=fixed;imageAspect=0;image=https://www.shutterstock.com/image-vector/swipe-right-260nw-689771101.jpg;clipPath=inset(6.43% 6.54% 12.5% 9.62%);" vertex="1" parent="1">
          <mxGeometry x="435" y="730" width="38.41" height="40" as="geometry" />
        </mxCell>
        <mxCell id="cgG15gPhDWwo4B0szn4L-29" value="&lt;span style=&quot;font-size: 18px;&quot;&gt;&lt;font style=&quot;font-size: 18px;&quot;&gt;Slide to select hours&lt;/font&gt;&lt;/span&gt;" style="text;html=1;align=center;verticalAlign=middle;resizable=0;points=[];autosize=1;strokeColor=none;fillColor=none;fontSize=18;fontColor=#4D4D4D;fontStyle=1" vertex="1" parent="1">
          <mxGeometry x="470" y="730" width="200" height="40" as="geometry" />
        </mxCell>
        <mxCell id="cgG15gPhDWwo4B0szn4L-32" value="12 am" style="text;html=1;align=center;verticalAlign=middle;resizable=0;points=[];autosize=1;strokeColor=none;fillColor=none;" vertex="1" parent="1">
          <mxGeometry x="160" y="828" width="60" height="30" as="geometry" />
        </mxCell>
        <mxCell id="cgG15gPhDWwo4B0szn4L-33" value="6 am" style="text;html=1;align=center;verticalAlign=middle;resizable=0;points=[];autosize=1;strokeColor=none;fillColor=none;" vertex="1" parent="1">
          <mxGeometry x="360" y="828" width="50" height="30" as="geometry" />
        </mxCell>
        <mxCell id="cgG15gPhDWwo4B0szn4L-34" value="12 pm" style="text;html=1;align=center;verticalAlign=middle;resizable=0;points=[];autosize=1;strokeColor=none;fillColor=none;" vertex="1" parent="1">
          <mxGeometry x="545" y="828" width="60" height="30" as="geometry" />
        </mxCell>
        <mxCell id="cgG15gPhDWwo4B0szn4L-35" value="6 pm" style="text;html=1;align=center;verticalAlign=middle;resizable=0;points=[];autosize=1;strokeColor=none;fillColor=none;" vertex="1" parent="1">
          <mxGeometry x="735" y="828" width="50" height="30" as="geometry" />
        </mxCell>
        <mxCell id="cgG15gPhDWwo4B0szn4L-36" value="" style="endArrow=none;html=1;rounded=0;strokeColor=#FF3333;strokeWidth=6;" edge="1" parent="1">
          <mxGeometry width="50" height="50" relative="1" as="geometry">
            <mxPoint x="278" y="405" as="sourcePoint" />
            <mxPoint x="228" y="465" as="targetPoint" />
          </mxGeometry>
        </mxCell>
        <mxCell id="cgG15gPhDWwo4B0szn4L-37" value="" style="endArrow=none;html=1;rounded=0;strokeColor=#FF3333;strokeWidth=6;" edge="1" parent="1">
          <mxGeometry width="50" height="50" relative="1" as="geometry">
            <mxPoint x="353" y="379" as="sourcePoint" />
            <mxPoint x="273" y="409" as="targetPoint" />
          </mxGeometry>
        </mxCell>
        <mxCell id="cgG15gPhDWwo4B0szn4L-38" value="" style="endArrow=none;html=1;rounded=0;strokeColor=#FF3333;strokeWidth=6;" edge="1" parent="1">
          <mxGeometry width="50" height="50" relative="1" as="geometry">
            <mxPoint x="446" y="220" as="sourcePoint" />
            <mxPoint x="351" y="380" as="targetPoint" />
          </mxGeometry>
        </mxCell>
        <mxCell id="cgG15gPhDWwo4B0szn4L-39" value="" style="endArrow=none;html=1;rounded=0;strokeColor=#00CC00;strokeWidth=6;" edge="1" parent="1">
          <mxGeometry width="50" height="50" relative="1" as="geometry">
            <mxPoint x="311" y="450" as="sourcePoint" />
            <mxPoint x="228" y="465" as="targetPoint" />
          </mxGeometry>
        </mxCell>
        <mxCell id="cgG15gPhDWwo4B0szn4L-40" value="" style="endArrow=none;html=1;rounded=0;strokeColor=#00CC00;strokeWidth=6;" edge="1" parent="1">
          <mxGeometry width="50" height="50" relative="1" as="geometry">
            <mxPoint x="411" y="370" as="sourcePoint" />
            <mxPoint x="311" y="450" as="targetPoint" />
          </mxGeometry>
        </mxCell>
        <mxCell id="cgG15gPhDWwo4B0szn4L-41" value="" style="endArrow=none;html=1;rounded=0;strokeColor=#00CC00;strokeWidth=6;" edge="1" parent="1">
          <mxGeometry width="50" height="50" relative="1" as="geometry">
            <mxPoint x="401" y="220" as="sourcePoint" />
            <mxPoint x="411" y="370" as="targetPoint" />
          </mxGeometry>
        </mxCell>
        <mxCell id="cgG15gPhDWwo4B0szn4L-42" value="" style="endArrow=none;html=1;rounded=0;strokeColor=#00CC00;strokeWidth=6;" edge="1" parent="1">
          <mxGeometry width="50" height="50" relative="1" as="geometry">
            <mxPoint x="492" y="110" as="sourcePoint" />
            <mxPoint x="399" y="225" as="targetPoint" />
          </mxGeometry>
        </mxCell>
        <mxCell id="cgG15gPhDWwo4B0szn4L-44" value="" style="dashed=0;labelPosition=right;align=left;shape=mxgraph.gmdl.checkbox;strokeColor=none;fillColor=#009587;strokeWidth=2;aspect=fixed;sketch=0;html=1;" vertex="1" parent="1">
          <mxGeometry x="180" y="1196" width="28" height="28" as="geometry" />
        </mxCell>
        <mxCell id="cgG15gPhDWwo4B0szn4L-45" value="G - Glaucoma" style="text;html=1;align=center;verticalAlign=middle;resizable=0;points=[];autosize=1;strokeColor=none;fillColor=none;fontSize=18;fontStyle=1" vertex="1" parent="1">
          <mxGeometry x="210" y="1190" width="140" height="40" as="geometry" />
        </mxCell>
        <mxCell id="cgG15gPhDWwo4B0szn4L-46" value="R - Retina" style="text;html=1;align=center;verticalAlign=middle;resizable=0;points=[];autosize=1;strokeColor=none;fillColor=none;fontSize=18;fontStyle=1" vertex="1" parent="1">
          <mxGeometry x="460" y="1190" width="110" height="40" as="geometry" />
        </mxCell>
        <mxCell id="cgG15gPhDWwo4B0szn4L-47" value="" style="dashed=0;labelPosition=right;align=left;shape=mxgraph.gmdl.checkbox;strokeColor=#666666;fillColor=none;strokeWidth=2;aspect=fixed;sketch=0;html=1;" vertex="1" parent="1">
          <mxGeometry x="420" y="1194" width="30" height="30" as="geometry" />
        </mxCell>
        <mxCell id="cgG15gPhDWwo4B0szn4L-48" value="&lt;font style=&quot;&quot;&gt;C - Cataract&lt;br&gt;&lt;/font&gt;" style="text;html=1;align=center;verticalAlign=middle;resizable=0;points=[];autosize=1;strokeColor=none;fillColor=none;fontSize=18;fontStyle=1" vertex="1" parent="1">
          <mxGeometry x="650" y="1190" width="120" height="40" as="geometry" />
        </mxCell>
        <mxCell id="cgG15gPhDWwo4B0szn4L-49" value="" style="dashed=0;labelPosition=right;align=left;shape=mxgraph.gmdl.checkbox;strokeColor=none;fillColor=#009587;strokeWidth=2;aspect=fixed;sketch=0;html=1;" vertex="1" parent="1">
          <mxGeometry x="620" y="1196" width="28" height="28" as="geometry" />
        </mxCell>
        <mxCell id="cgG15gPhDWwo4B0szn4L-50" value="S - Staff" style="text;html=1;align=center;verticalAlign=middle;resizable=0;points=[];autosize=1;strokeColor=none;fillColor=none;fontSize=18;fontStyle=1" vertex="1" parent="1">
          <mxGeometry x="855" y="1190" width="90" height="40" as="geometry" />
        </mxCell>
        <mxCell id="cgG15gPhDWwo4B0szn4L-51" value="" style="dashed=0;labelPosition=right;align=left;shape=mxgraph.gmdl.checkbox;strokeColor=#666666;fillColor=none;strokeWidth=2;aspect=fixed;sketch=0;html=1;" vertex="1" parent="1">
          <mxGeometry x="810" y="1194" width="30" height="30" as="geometry" />
        </mxCell>
        <mxCell id="cgG15gPhDWwo4B0szn4L-54" value="&lt;span style=&quot;font-size: 22px;&quot;&gt;&lt;font style=&quot;font-size: 22px;&quot;&gt;Type:&lt;/font&gt;&lt;/span&gt;" style="text;html=1;align=center;verticalAlign=middle;resizable=0;points=[];autosize=1;strokeColor=none;fillColor=none;fontSize=22;" vertex="1" parent="1">
          <mxGeometry x="165" y="1150" width="80" height="40" as="geometry" />
        </mxCell>
        <mxCell id="cgG15gPhDWwo4B0szn4L-55" value="" style="endArrow=none;html=1;rounded=0;" edge="1" parent="1">
          <mxGeometry width="50" height="50" relative="1" as="geometry">
            <mxPoint x="169" y="1140" as="sourcePoint" />
            <mxPoint x="939" y="1140" as="targetPoint" />
          </mxGeometry>
        </mxCell>
        <mxCell id="cgG15gPhDWwo4B0szn4L-56" value="&lt;span style=&quot;font-size: 22px;&quot;&gt;&lt;font style=&quot;font-size: 22px;&quot;&gt;Age:&lt;/font&gt;&lt;/span&gt;" style="text;html=1;align=center;verticalAlign=middle;resizable=0;points=[];autosize=1;strokeColor=none;fillColor=none;fontSize=22;" vertex="1" parent="1">
          <mxGeometry x="170" y="1240" width="70" height="40" as="geometry" />
        </mxCell>
        <mxCell id="cgG15gPhDWwo4B0szn4L-57" value="" style="rounded=0;whiteSpace=wrap;html=1;" vertex="1" parent="1">
          <mxGeometry x="175" y="1340" width="735" height="30" as="geometry" />
        </mxCell>
        <mxCell id="cgG15gPhDWwo4B0szn4L-58" value="" style="rounded=0;whiteSpace=wrap;html=1;fillColor=#66B2FF;strokeColor=#0e8088;" vertex="1" parent="1">
          <mxGeometry x="250" y="1340" width="190" height="30" as="geometry" />
        </mxCell>
        <mxCell id="cgG15gPhDWwo4B0szn4L-59" value="" style="shape=image;verticalLabelPosition=bottom;labelBackgroundColor=default;verticalAlign=top;aspect=fixed;imageAspect=0;image=https://www.shutterstock.com/image-vector/swipe-right-260nw-689771101.jpg;clipPath=inset(6.43% 6.54% 12.5% 9.62%);" vertex="1" parent="1">
          <mxGeometry x="430" y="1290" width="38.42" height="40" as="geometry" />
        </mxCell>
        <mxCell id="cgG15gPhDWwo4B0szn4L-60" value="&lt;span style=&quot;font-size: 16px;&quot;&gt;&lt;font style=&quot;font-size: 16px;&quot;&gt;Slide to select age range&lt;/font&gt;&lt;/span&gt;" style="text;html=1;align=center;verticalAlign=middle;resizable=0;points=[];autosize=1;strokeColor=none;fillColor=none;fontSize=16;fontColor=#4D4D4D;fontStyle=1" vertex="1" parent="1">
          <mxGeometry x="468.41999999999996" y="1295" width="210" height="30" as="geometry" />
        </mxCell>
        <mxCell id="cgG15gPhDWwo4B0szn4L-61" value="30 yrs" style="text;html=1;align=center;verticalAlign=middle;resizable=0;points=[];autosize=1;strokeColor=none;fillColor=none;" vertex="1" parent="1">
          <mxGeometry x="160" y="1388" width="60" height="30" as="geometry" />
        </mxCell>
        <mxCell id="cgG15gPhDWwo4B0szn4L-62" value="40 yrs" style="text;html=1;align=center;verticalAlign=middle;resizable=0;points=[];autosize=1;strokeColor=none;fillColor=none;" vertex="1" parent="1">
          <mxGeometry x="310" y="1388" width="60" height="30" as="geometry" />
        </mxCell>
        <mxCell id="cgG15gPhDWwo4B0szn4L-63" value="50 yrs" style="text;html=1;align=center;verticalAlign=middle;resizable=0;points=[];autosize=1;strokeColor=none;fillColor=none;" vertex="1" parent="1">
          <mxGeometry x="460" y="1388" width="60" height="30" as="geometry" />
        </mxCell>
        <mxCell id="cgG15gPhDWwo4B0szn4L-64" value="60 yrs" style="text;html=1;align=center;verticalAlign=middle;resizable=0;points=[];autosize=1;strokeColor=none;fillColor=none;" vertex="1" parent="1">
          <mxGeometry x="600" y="1388" width="60" height="30" as="geometry" />
        </mxCell>
        <mxCell id="cgG15gPhDWwo4B0szn4L-65" value="&lt;b style=&quot;font-size: 22px;&quot;&gt;&lt;font style=&quot;font-size: 22px;&quot;&gt;Patient filters&lt;/font&gt;&lt;/b&gt;" style="text;html=1;align=center;verticalAlign=middle;resizable=0;points=[];autosize=1;strokeColor=#006EAF;fillColor=#1ba1e2;fontSize=22;fontColor=#ffffff;" vertex="1" parent="1">
          <mxGeometry x="160" y="1100" width="160" height="40" as="geometry" />
        </mxCell>
        <mxCell id="cgG15gPhDWwo4B0szn4L-69" value="70 yrs" style="text;html=1;align=center;verticalAlign=middle;resizable=0;points=[];autosize=1;strokeColor=none;fillColor=none;" vertex="1" parent="1">
          <mxGeometry x="750" y="1388" width="60" height="30" as="geometry" />
        </mxCell>
        <mxCell id="cgG15gPhDWwo4B0szn4L-70" value="80 yrs" style="text;html=1;align=center;verticalAlign=middle;resizable=0;points=[];autosize=1;strokeColor=none;fillColor=none;" vertex="1" parent="1">
          <mxGeometry x="855" y="1388" width="60" height="30" as="geometry" />
        </mxCell>
        <mxCell id="cgG15gPhDWwo4B0szn4L-71" value="" style="dashed=0;labelPosition=right;align=left;shape=mxgraph.gmdl.checkbox;strokeColor=none;fillColor=#009587;strokeWidth=2;aspect=fixed;sketch=0;html=1;" vertex="1" parent="1">
          <mxGeometry x="180" y="1486" width="28" height="28" as="geometry" />
        </mxCell>
        <mxCell id="cgG15gPhDWwo4B0szn4L-72" value="Male" style="text;html=1;align=center;verticalAlign=middle;resizable=0;points=[];autosize=1;strokeColor=none;fillColor=none;fontSize=18;fontStyle=1" vertex="1" parent="1">
          <mxGeometry x="250" y="1480" width="60" height="40" as="geometry" />
        </mxCell>
        <mxCell id="cgG15gPhDWwo4B0szn4L-73" value="Female" style="text;html=1;align=center;verticalAlign=middle;resizable=0;points=[];autosize=1;strokeColor=none;fillColor=none;fontSize=18;fontStyle=1" vertex="1" parent="1">
          <mxGeometry x="470" y="1480" width="90" height="40" as="geometry" />
        </mxCell>
        <mxCell id="cgG15gPhDWwo4B0szn4L-74" value="" style="dashed=0;labelPosition=right;align=left;shape=mxgraph.gmdl.checkbox;strokeColor=#666666;fillColor=none;strokeWidth=2;aspect=fixed;sketch=0;html=1;" vertex="1" parent="1">
          <mxGeometry x="420" y="1484" width="30" height="30" as="geometry" />
        </mxCell>
        <mxCell id="cgG15gPhDWwo4B0szn4L-75" value="&lt;font style=&quot;&quot;&gt;Other&lt;br&gt;&lt;/font&gt;" style="text;html=1;align=center;verticalAlign=middle;resizable=0;points=[];autosize=1;strokeColor=none;fillColor=none;fontSize=18;fontStyle=1" vertex="1" parent="1">
          <mxGeometry x="675" y="1480" width="70" height="40" as="geometry" />
        </mxCell>
        <mxCell id="cgG15gPhDWwo4B0szn4L-76" value="" style="dashed=0;labelPosition=right;align=left;shape=mxgraph.gmdl.checkbox;strokeColor=none;fillColor=#009587;strokeWidth=2;aspect=fixed;sketch=0;html=1;" vertex="1" parent="1">
          <mxGeometry x="620" y="1486" width="28" height="28" as="geometry" />
        </mxCell>
        <mxCell id="cgG15gPhDWwo4B0szn4L-77" value="N/A" style="text;html=1;align=center;verticalAlign=middle;resizable=0;points=[];autosize=1;strokeColor=none;fillColor=none;fontSize=18;fontStyle=1" vertex="1" parent="1">
          <mxGeometry x="875" y="1480" width="50" height="40" as="geometry" />
        </mxCell>
        <mxCell id="cgG15gPhDWwo4B0szn4L-78" value="" style="dashed=0;labelPosition=right;align=left;shape=mxgraph.gmdl.checkbox;strokeColor=#666666;fillColor=none;strokeWidth=2;aspect=fixed;sketch=0;html=1;" vertex="1" parent="1">
          <mxGeometry x="810" y="1484" width="30" height="30" as="geometry" />
        </mxCell>
        <mxCell id="cgG15gPhDWwo4B0szn4L-79" value="&lt;span style=&quot;font-size: 22px;&quot;&gt;&lt;font style=&quot;font-size: 22px;&quot;&gt;Gender:&lt;/font&gt;&lt;/span&gt;" style="text;html=1;align=center;verticalAlign=middle;resizable=0;points=[];autosize=1;strokeColor=none;fillColor=none;fontSize=22;" vertex="1" parent="1">
          <mxGeometry x="170" y="1440" width="100" height="40" as="geometry" />
        </mxCell>
        <mxCell id="cgG15gPhDWwo4B0szn4L-80" value="" style="dashed=0;labelPosition=right;align=left;shape=mxgraph.gmdl.checkbox;strokeColor=none;fillColor=#009587;strokeWidth=2;aspect=fixed;sketch=0;html=1;" vertex="1" parent="1">
          <mxGeometry x="180" y="1596" width="28" height="28" as="geometry" />
        </mxCell>
        <mxCell id="cgG15gPhDWwo4B0szn4L-81" value="Caucasian" style="text;html=1;align=center;verticalAlign=middle;resizable=0;points=[];autosize=1;strokeColor=none;fillColor=none;fontSize=18;fontStyle=1" vertex="1" parent="1">
          <mxGeometry x="225" y="1590" width="110" height="40" as="geometry" />
        </mxCell>
        <mxCell id="cgG15gPhDWwo4B0szn4L-82" value="Asian" style="text;html=1;align=center;verticalAlign=middle;resizable=0;points=[];autosize=1;strokeColor=none;fillColor=none;fontSize=18;fontStyle=1" vertex="1" parent="1">
          <mxGeometry x="480" y="1590" width="70" height="40" as="geometry" />
        </mxCell>
        <mxCell id="cgG15gPhDWwo4B0szn4L-83" value="" style="dashed=0;labelPosition=right;align=left;shape=mxgraph.gmdl.checkbox;strokeColor=#666666;fillColor=none;strokeWidth=2;aspect=fixed;sketch=0;html=1;" vertex="1" parent="1">
          <mxGeometry x="420" y="1594" width="30" height="30" as="geometry" />
        </mxCell>
        <mxCell id="cgG15gPhDWwo4B0szn4L-84" value="&lt;font style=&quot;&quot;&gt;Other&lt;br&gt;&lt;/font&gt;" style="text;html=1;align=center;verticalAlign=middle;resizable=0;points=[];autosize=1;strokeColor=none;fillColor=none;fontSize=18;fontStyle=1" vertex="1" parent="1">
          <mxGeometry x="675" y="1590" width="70" height="40" as="geometry" />
        </mxCell>
        <mxCell id="cgG15gPhDWwo4B0szn4L-85" value="" style="dashed=0;labelPosition=right;align=left;shape=mxgraph.gmdl.checkbox;strokeColor=none;fillColor=#009587;strokeWidth=2;aspect=fixed;sketch=0;html=1;" vertex="1" parent="1">
          <mxGeometry x="620" y="1596" width="28" height="28" as="geometry" />
        </mxCell>
        <mxCell id="cgG15gPhDWwo4B0szn4L-86" value="N/A" style="text;html=1;align=center;verticalAlign=middle;resizable=0;points=[];autosize=1;strokeColor=none;fillColor=none;fontSize=18;fontStyle=1" vertex="1" parent="1">
          <mxGeometry x="875" y="1590" width="50" height="40" as="geometry" />
        </mxCell>
        <mxCell id="cgG15gPhDWwo4B0szn4L-87" value="" style="dashed=0;labelPosition=right;align=left;shape=mxgraph.gmdl.checkbox;strokeColor=#666666;fillColor=none;strokeWidth=2;aspect=fixed;sketch=0;html=1;" vertex="1" parent="1">
          <mxGeometry x="810" y="1594" width="30" height="30" as="geometry" />
        </mxCell>
        <mxCell id="cgG15gPhDWwo4B0szn4L-88" value="&lt;font style=&quot;&quot;&gt;Ethnicity:&lt;/font&gt;" style="text;html=1;align=center;verticalAlign=middle;resizable=0;points=[];autosize=1;strokeColor=none;fillColor=none;fontSize=22;" vertex="1" parent="1">
          <mxGeometry x="165" y="1550" width="110" height="40" as="geometry" />
        </mxCell>
        <mxCell id="cgG15gPhDWwo4B0szn4L-92" value="" style="group" vertex="1" connectable="0" parent="1">
          <mxGeometry x="250" y="1157.5" width="100" height="25" as="geometry" />
        </mxCell>
        <mxCell id="cgG15gPhDWwo4B0szn4L-89" value="Colourise&amp;nbsp;&amp;nbsp;" style="rounded=1;whiteSpace=wrap;html=1;fillColor=#B500B5;strokeColor=none;fontColor=#FFFFFF;fontStyle=1;align=right;verticalAlign=middle;fontFamily=Helvetica;fontSize=12;" vertex="1" parent="cgG15gPhDWwo4B0szn4L-92">
          <mxGeometry width="100" height="25" as="geometry" />
        </mxCell>
        <mxCell id="cgG15gPhDWwo4B0szn4L-90" value="" style="html=1;verticalLabelPosition=bottom;align=center;labelBackgroundColor=#ffffff;verticalAlign=top;strokeWidth=2;strokeColor=#FFFFFF;shadow=0;dashed=0;shape=mxgraph.ios7.icons.shuffle;pointerEvents=1" vertex="1" parent="cgG15gPhDWwo4B0szn4L-92">
          <mxGeometry x="10" y="3.25" width="15" height="18.5" as="geometry" />
        </mxCell>
        <mxCell id="cgG15gPhDWwo4B0szn4L-93" value="" style="group;rounded=1;align=right;verticalAlign=middle;fontFamily=Helvetica;fontSize=12;fontColor=#FFFFFF;fontStyle=1;fillColor=#B500B5;" vertex="1" connectable="0" parent="1">
          <mxGeometry x="240" y="1247.5" width="100" height="25" as="geometry" />
        </mxCell>
        <mxCell id="cgG15gPhDWwo4B0szn4L-94" value="Colourise&amp;nbsp;&amp;nbsp;" style="rounded=1;whiteSpace=wrap;html=1;fillColor=#B500B5;strokeColor=none;fontColor=#FFFFFF;fontStyle=1;align=right;verticalAlign=middle;fontFamily=Helvetica;fontSize=12;" vertex="1" parent="cgG15gPhDWwo4B0szn4L-93">
          <mxGeometry width="100" height="25" as="geometry" />
        </mxCell>
        <mxCell id="cgG15gPhDWwo4B0szn4L-95" value="" style="html=1;verticalLabelPosition=bottom;align=right;labelBackgroundColor=#ffffff;verticalAlign=middle;strokeWidth=2;strokeColor=#FFFFFF;shadow=0;dashed=0;shape=mxgraph.ios7.icons.shuffle;pointerEvents=1;rounded=1;fontFamily=Helvetica;fontSize=12;fontColor=#FFFFFF;fontStyle=1;fillColor=#B500B5;" vertex="1" parent="cgG15gPhDWwo4B0szn4L-93">
          <mxGeometry x="10" y="3.25" width="15" height="18.5" as="geometry" />
        </mxCell>
        <mxCell id="cgG15gPhDWwo4B0szn4L-96" value="" style="group;rounded=1;align=right;verticalAlign=middle;fontFamily=Helvetica;fontSize=12;fontColor=#FFFFFF;fontStyle=1;fillColor=#B500B5;" vertex="1" connectable="0" parent="1">
          <mxGeometry x="270" y="1450" width="100" height="25" as="geometry" />
        </mxCell>
        <mxCell id="cgG15gPhDWwo4B0szn4L-97" value="Colourise&amp;nbsp;&amp;nbsp;" style="rounded=1;whiteSpace=wrap;html=1;fillColor=#B500B5;strokeColor=none;fontColor=#FFFFFF;fontStyle=1;align=right;verticalAlign=middle;fontFamily=Helvetica;fontSize=12;" vertex="1" parent="cgG15gPhDWwo4B0szn4L-96">
          <mxGeometry width="100" height="25" as="geometry" />
        </mxCell>
        <mxCell id="cgG15gPhDWwo4B0szn4L-98" value="" style="html=1;verticalLabelPosition=bottom;align=right;labelBackgroundColor=#ffffff;verticalAlign=middle;strokeWidth=2;strokeColor=#FFFFFF;shadow=0;dashed=0;shape=mxgraph.ios7.icons.shuffle;pointerEvents=1;rounded=1;fontFamily=Helvetica;fontSize=12;fontColor=#FFFFFF;fontStyle=1;fillColor=#B500B5;" vertex="1" parent="cgG15gPhDWwo4B0szn4L-96">
          <mxGeometry x="10" y="3.25" width="15" height="18.5" as="geometry" />
        </mxCell>
        <mxCell id="cgG15gPhDWwo4B0szn4L-99" value="" style="group" vertex="1" connectable="0" parent="1">
          <mxGeometry x="280" y="1560" width="100" height="25" as="geometry" />
        </mxCell>
        <mxCell id="cgG15gPhDWwo4B0szn4L-100" value="Colourise&amp;nbsp;&amp;nbsp;" style="rounded=1;whiteSpace=wrap;html=1;fillColor=#B500B5;strokeColor=none;fontColor=#FFFFFF;fontStyle=1;align=right;verticalAlign=middle;fontFamily=Helvetica;fontSize=12;" vertex="1" parent="cgG15gPhDWwo4B0szn4L-99">
          <mxGeometry width="100" height="25" as="geometry" />
        </mxCell>
        <mxCell id="cgG15gPhDWwo4B0szn4L-101" value="" style="html=1;verticalLabelPosition=bottom;align=center;labelBackgroundColor=#ffffff;verticalAlign=top;strokeWidth=2;strokeColor=#FFFFFF;shadow=0;dashed=0;shape=mxgraph.ios7.icons.shuffle;pointerEvents=1" vertex="1" parent="cgG15gPhDWwo4B0szn4L-99">
          <mxGeometry x="10" y="3.25" width="15" height="18.5" as="geometry" />
        </mxCell>
        <mxCell id="cgG15gPhDWwo4B0szn4L-102" value="" style="group" vertex="1" connectable="0" parent="1">
          <mxGeometry x="240" y="630" width="100" height="25" as="geometry" />
        </mxCell>
        <mxCell id="cgG15gPhDWwo4B0szn4L-103" value="Colourise&amp;nbsp;&amp;nbsp;" style="rounded=1;whiteSpace=wrap;html=1;fillColor=#B500B5;strokeColor=none;fontColor=#FFFFFF;fontStyle=1;align=right;" vertex="1" parent="cgG15gPhDWwo4B0szn4L-102">
          <mxGeometry width="100" height="25" as="geometry" />
        </mxCell>
        <mxCell id="cgG15gPhDWwo4B0szn4L-104" value="" style="html=1;verticalLabelPosition=bottom;align=center;labelBackgroundColor=#ffffff;verticalAlign=top;strokeWidth=2;strokeColor=#FFFFFF;shadow=0;dashed=0;shape=mxgraph.ios7.icons.shuffle;pointerEvents=1" vertex="1" parent="cgG15gPhDWwo4B0szn4L-102">
          <mxGeometry x="10" y="3.25" width="15" height="18.5" as="geometry" />
        </mxCell>
        <mxCell id="cgG15gPhDWwo4B0szn4L-106" value="Colour legend&amp;nbsp; &amp;nbsp; &amp;nbsp; &amp;nbsp; &amp;nbsp; &amp;nbsp;&amp;nbsp;" style="rounded=1;whiteSpace=wrap;html=1;fillColor=#B500B5;strokeColor=none;fontColor=#FFFFFF;fontStyle=1;align=right;verticalAlign=middle;fontFamily=Helvetica;fontSize=12;" vertex="1" parent="1">
          <mxGeometry x="790" y="80" width="180" height="25" as="geometry" />
        </mxCell>
        <mxCell id="cgG15gPhDWwo4B0szn4L-107" value="" style="html=1;verticalLabelPosition=bottom;align=center;labelBackgroundColor=#ffffff;verticalAlign=top;strokeWidth=2;strokeColor=#FFFFFF;shadow=0;dashed=0;shape=mxgraph.ios7.icons.shuffle;pointerEvents=1" vertex="1" parent="1">
          <mxGeometry x="820" y="83.25" width="15" height="18.5" as="geometry" />
        </mxCell>
        <mxCell id="cgG15gPhDWwo4B0szn4L-110" value="" style="whiteSpace=wrap;html=1;aspect=fixed;fillColor=#FF0000;strokeColor=none;" vertex="1" parent="1">
          <mxGeometry x="795" y="120" width="20" height="20" as="geometry" />
        </mxCell>
        <mxCell id="cgG15gPhDWwo4B0szn4L-111" value="G - Glaucoma" style="text;html=1;align=center;verticalAlign=middle;resizable=0;points=[];autosize=1;strokeColor=none;fillColor=none;fontSize=20;" vertex="1" parent="1">
          <mxGeometry x="815" y="110" width="150" height="40" as="geometry" />
        </mxCell>
        <mxCell id="cgG15gPhDWwo4B0szn4L-112" value="" style="whiteSpace=wrap;html=1;aspect=fixed;fillColor=#00CC00;strokeColor=none;" vertex="1" parent="1">
          <mxGeometry x="795" y="160" width="20" height="20" as="geometry" />
        </mxCell>
        <mxCell id="cgG15gPhDWwo4B0szn4L-113" value="R - Retina" style="text;html=1;align=center;verticalAlign=middle;resizable=0;points=[];autosize=1;strokeColor=none;fillColor=none;fontSize=20;" vertex="1" parent="1">
          <mxGeometry x="820" y="150" width="110" height="40" as="geometry" />
        </mxCell>
        <mxCell id="cgG15gPhDWwo4B0szn4L-114" value="" style="dashed=0;labelPosition=right;align=left;shape=mxgraph.gmdl.checkbox;strokeColor=none;fillColor=#009587;strokeWidth=2;aspect=fixed;sketch=0;html=1;" vertex="1" parent="1">
          <mxGeometry x="190" y="1816" width="28" height="28" as="geometry" />
        </mxCell>
        <mxCell id="cgG15gPhDWwo4B0szn4L-115" value="" style="dashed=0;labelPosition=right;align=left;shape=mxgraph.gmdl.checkbox;strokeColor=#666666;fillColor=none;strokeWidth=2;aspect=fixed;sketch=0;html=1;" vertex="1" parent="1">
          <mxGeometry x="430" y="1814" width="30" height="30" as="geometry" />
        </mxCell>
        <mxCell id="cgG15gPhDWwo4B0szn4L-116" value="" style="dashed=0;labelPosition=right;align=left;shape=mxgraph.gmdl.checkbox;strokeColor=none;fillColor=#009587;strokeWidth=2;aspect=fixed;sketch=0;html=1;" vertex="1" parent="1">
          <mxGeometry x="630" y="1816" width="28" height="28" as="geometry" />
        </mxCell>
        <mxCell id="cgG15gPhDWwo4B0szn4L-117" value="" style="dashed=0;labelPosition=right;align=left;shape=mxgraph.gmdl.checkbox;strokeColor=#666666;fillColor=none;strokeWidth=2;aspect=fixed;sketch=0;html=1;" vertex="1" parent="1">
          <mxGeometry x="820" y="1814" width="30" height="30" as="geometry" />
        </mxCell>
        <mxCell id="cgG15gPhDWwo4B0szn4L-118" value="&lt;span style=&quot;font-size: 22px;&quot;&gt;&lt;font style=&quot;font-size: 22px;&quot;&gt;Rooms:&lt;/font&gt;&lt;/span&gt;" style="text;html=1;align=center;verticalAlign=middle;resizable=0;points=[];autosize=1;strokeColor=none;fillColor=none;fontSize=22;" vertex="1" parent="1">
          <mxGeometry x="165" y="1770" width="100" height="40" as="geometry" />
        </mxCell>
        <mxCell id="cgG15gPhDWwo4B0szn4L-119" value="" style="endArrow=none;html=1;rounded=0;" edge="1" parent="1">
          <mxGeometry width="50" height="50" relative="1" as="geometry">
            <mxPoint x="179" y="1760" as="sourcePoint" />
            <mxPoint x="949" y="1760" as="targetPoint" />
          </mxGeometry>
        </mxCell>
        <mxCell id="cgG15gPhDWwo4B0szn4L-120" value="&lt;b style=&quot;font-size: 22px;&quot;&gt;&lt;font style=&quot;font-size: 22px;&quot;&gt;Location filters&lt;/font&gt;&lt;/b&gt;" style="text;html=1;align=center;verticalAlign=middle;resizable=0;points=[];autosize=1;strokeColor=#006EAF;fillColor=#1ba1e2;fontSize=22;fontColor=#ffffff;" vertex="1" parent="1">
          <mxGeometry x="160" y="1720" width="180" height="40" as="geometry" />
        </mxCell>
        <mxCell id="cgG15gPhDWwo4B0szn4L-132" value="&lt;span style=&quot;font-size: 22px;&quot;&gt;&lt;font style=&quot;font-size: 22px;&quot;&gt;Visit length:&lt;/font&gt;&lt;/span&gt;" style="text;html=1;align=center;verticalAlign=middle;resizable=0;points=[];autosize=1;strokeColor=none;fillColor=none;fontSize=22;" vertex="1" parent="1">
          <mxGeometry x="175" y="870" width="140" height="40" as="geometry" />
        </mxCell>
        <mxCell id="cgG15gPhDWwo4B0szn4L-133" value="" style="rounded=0;whiteSpace=wrap;html=1;" vertex="1" parent="1">
          <mxGeometry x="175" y="960" width="725" height="30" as="geometry" />
        </mxCell>
        <mxCell id="cgG15gPhDWwo4B0szn4L-134" value="" style="rounded=0;whiteSpace=wrap;html=1;fillColor=#66B2FF;strokeColor=#0e8088;" vertex="1" parent="1">
          <mxGeometry x="290" y="960" width="380" height="30" as="geometry" />
        </mxCell>
        <mxCell id="cgG15gPhDWwo4B0szn4L-135" value="" style="shape=image;verticalLabelPosition=bottom;labelBackgroundColor=default;verticalAlign=top;aspect=fixed;imageAspect=0;image=https://www.shutterstock.com/image-vector/swipe-right-260nw-689771101.jpg;clipPath=inset(6.43% 6.54% 12.5% 9.62%);" vertex="1" parent="1">
          <mxGeometry x="440" y="900" width="38.41" height="40" as="geometry" />
        </mxCell>
        <mxCell id="cgG15gPhDWwo4B0szn4L-136" value="&lt;span style=&quot;font-size: 18px;&quot;&gt;&lt;font style=&quot;font-size: 18px;&quot;&gt;Slide to select length&lt;/font&gt;&lt;/span&gt;" style="text;html=1;align=center;verticalAlign=middle;resizable=0;points=[];autosize=1;strokeColor=none;fillColor=none;fontSize=18;fontColor=#4D4D4D;fontStyle=1" vertex="1" parent="1">
          <mxGeometry x="475" y="900" width="200" height="40" as="geometry" />
        </mxCell>
        <mxCell id="cgG15gPhDWwo4B0szn4L-137" value="10 minutes" style="text;html=1;align=center;verticalAlign=middle;resizable=0;points=[];autosize=1;strokeColor=none;fillColor=none;" vertex="1" parent="1">
          <mxGeometry x="180" y="1008" width="80" height="30" as="geometry" />
        </mxCell>
        <mxCell id="cgG15gPhDWwo4B0szn4L-138" value="30 minutes" style="text;html=1;align=center;verticalAlign=middle;resizable=0;points=[];autosize=1;strokeColor=none;fillColor=none;" vertex="1" parent="1">
          <mxGeometry x="390" y="1008" width="80" height="30" as="geometry" />
        </mxCell>
        <mxCell id="cgG15gPhDWwo4B0szn4L-139" value="60 minutes&amp;nbsp;" style="text;html=1;align=center;verticalAlign=middle;resizable=0;points=[];autosize=1;strokeColor=none;fillColor=none;" vertex="1" parent="1">
          <mxGeometry x="610" y="1008" width="90" height="30" as="geometry" />
        </mxCell>
        <mxCell id="cgG15gPhDWwo4B0szn4L-140" value="80 minutes" style="text;html=1;align=center;verticalAlign=middle;resizable=0;points=[];autosize=1;strokeColor=none;fillColor=none;" vertex="1" parent="1">
          <mxGeometry x="810" y="1008" width="80" height="30" as="geometry" />
        </mxCell>
        <mxCell id="cgG15gPhDWwo4B0szn4L-141" value="" style="group" vertex="1" connectable="0" parent="1">
          <mxGeometry x="310" y="880" width="100" height="25" as="geometry" />
        </mxCell>
        <mxCell id="cgG15gPhDWwo4B0szn4L-142" value="Colourise&amp;nbsp;&amp;nbsp;" style="rounded=1;whiteSpace=wrap;html=1;fillColor=#B500B5;strokeColor=none;fontColor=#FFFFFF;fontStyle=1;align=right;" vertex="1" parent="cgG15gPhDWwo4B0szn4L-141">
          <mxGeometry width="100" height="25" as="geometry" />
        </mxCell>
        <mxCell id="cgG15gPhDWwo4B0szn4L-143" value="" style="html=1;verticalLabelPosition=bottom;align=center;labelBackgroundColor=#ffffff;verticalAlign=top;strokeWidth=2;strokeColor=#FFFFFF;shadow=0;dashed=0;shape=mxgraph.ios7.icons.shuffle;pointerEvents=1" vertex="1" parent="cgG15gPhDWwo4B0szn4L-141">
          <mxGeometry x="10" y="3.25" width="15" height="18.5" as="geometry" />
        </mxCell>
        <mxCell id="cgG15gPhDWwo4B0szn4L-144" value="Stats&amp;nbsp; &amp;nbsp; &amp;nbsp; &amp;nbsp; &amp;nbsp; &amp;nbsp; &amp;nbsp; &amp;nbsp; &amp;nbsp; &amp;nbsp; &amp;nbsp;&amp;nbsp;" style="rounded=1;whiteSpace=wrap;html=1;fillColor=#B500B5;strokeColor=none;fontColor=#FFFFFF;fontStyle=1;align=right;verticalAlign=middle;fontFamily=Helvetica;fontSize=12;" vertex="1" parent="1">
          <mxGeometry x="790" y="210" width="180" height="25" as="geometry" />
        </mxCell>
        <mxCell id="cgG15gPhDWwo4B0szn4L-145" value="&lt;b&gt;336 &lt;/b&gt;patient" style="text;html=1;align=center;verticalAlign=middle;resizable=0;points=[];autosize=1;strokeColor=none;fillColor=none;fontSize=16;" vertex="1" parent="1">
          <mxGeometry x="795" y="245" width="100" height="30" as="geometry" />
        </mxCell>
        <mxCell id="cgG15gPhDWwo4B0szn4L-152" value="&lt;b&gt;68 &lt;/b&gt;minutes average&lt;br&gt;&lt;div style=&quot;text-align: left;&quot;&gt;&lt;span style=&quot;background-color: initial;&quot;&gt;&amp;nbsp; &amp;nbsp; &amp;nbsp;visit time&lt;/span&gt;&lt;/div&gt;" style="text;html=1;align=center;verticalAlign=middle;resizable=0;points=[];autosize=1;strokeColor=none;fillColor=none;fontSize=16;" vertex="1" parent="1">
          <mxGeometry x="805" y="275" width="160" height="50" as="geometry" />
        </mxCell>
        <mxCell id="cgG15gPhDWwo4B0szn4L-154" value="ALL" style="text;html=1;align=center;verticalAlign=middle;resizable=0;points=[];autosize=1;strokeColor=none;fillColor=none;fontSize=18;fontStyle=1" vertex="1" parent="1">
          <mxGeometry x="230" y="1809" width="60" height="40" as="geometry" />
        </mxCell>
        <mxCell id="cgG15gPhDWwo4B0szn4L-155" value="&lt;font style=&quot;font-size: 18px;&quot;&gt;(Only show paths which went through these rooms)&lt;/font&gt;" style="text;html=1;align=center;verticalAlign=middle;resizable=0;points=[];autosize=1;strokeColor=none;fillColor=none;fontSize=18;fontColor=#6B6B6B;" vertex="1" parent="1">
          <mxGeometry x="370" y="1720" width="430" height="40" as="geometry" />
        </mxCell>
        <mxCell id="cgG15gPhDWwo4B0szn4L-156" value="WC" style="text;html=1;align=center;verticalAlign=middle;resizable=0;points=[];autosize=1;strokeColor=none;fillColor=none;fontSize=18;fontStyle=1" vertex="1" parent="1">
          <mxGeometry x="468.40999999999997" y="1809" width="50" height="40" as="geometry" />
        </mxCell>
        <mxCell id="cgG15gPhDWwo4B0szn4L-157" value="13" style="text;html=1;align=center;verticalAlign=middle;resizable=0;points=[];autosize=1;strokeColor=none;fillColor=none;fontSize=18;fontStyle=1" vertex="1" parent="1">
          <mxGeometry x="670" y="1809" width="40" height="40" as="geometry" />
        </mxCell>
        <mxCell id="cgG15gPhDWwo4B0szn4L-158" value="5" style="text;html=1;align=center;verticalAlign=middle;resizable=0;points=[];autosize=1;strokeColor=none;fillColor=none;fontSize=18;fontStyle=1" vertex="1" parent="1">
          <mxGeometry x="880" y="1809" width="30" height="40" as="geometry" />
        </mxCell>
        <mxCell id="cgG15gPhDWwo4B0szn4L-159" value="" style="dashed=0;labelPosition=right;align=left;shape=mxgraph.gmdl.checkbox;strokeColor=none;fillColor=#009587;strokeWidth=2;aspect=fixed;sketch=0;html=1;" vertex="1" parent="1">
          <mxGeometry x="190" y="1867" width="28" height="28" as="geometry" />
        </mxCell>
        <mxCell id="cgG15gPhDWwo4B0szn4L-160" value="" style="dashed=0;labelPosition=right;align=left;shape=mxgraph.gmdl.checkbox;strokeColor=#666666;fillColor=none;strokeWidth=2;aspect=fixed;sketch=0;html=1;" vertex="1" parent="1">
          <mxGeometry x="630" y="1866" width="30" height="30" as="geometry" />
        </mxCell>
        <mxCell id="cgG15gPhDWwo4B0szn4L-161" value="" style="dashed=0;labelPosition=right;align=left;shape=mxgraph.gmdl.checkbox;strokeColor=none;fillColor=#009587;strokeWidth=2;aspect=fixed;sketch=0;html=1;" vertex="1" parent="1">
          <mxGeometry x="430" y="1867" width="28" height="28" as="geometry" />
        </mxCell>
        <mxCell id="cgG15gPhDWwo4B0szn4L-162" value="" style="dashed=0;labelPosition=right;align=left;shape=mxgraph.gmdl.checkbox;strokeColor=#666666;fillColor=none;strokeWidth=2;aspect=fixed;sketch=0;html=1;" vertex="1" parent="1">
          <mxGeometry x="820" y="1865" width="30" height="30" as="geometry" />
        </mxCell>
        <mxCell id="cgG15gPhDWwo4B0szn4L-163" value="9" style="text;html=1;align=center;verticalAlign=middle;resizable=0;points=[];autosize=1;strokeColor=none;fillColor=none;fontSize=18;fontStyle=1" vertex="1" parent="1">
          <mxGeometry x="245" y="1860" width="30" height="40" as="geometry" />
        </mxCell>
        <mxCell id="cgG15gPhDWwo4B0szn4L-164" value="1" style="text;html=1;align=center;verticalAlign=middle;resizable=0;points=[];autosize=1;strokeColor=none;fillColor=none;fontSize=18;fontStyle=1" vertex="1" parent="1">
          <mxGeometry x="478.40999999999997" y="1860" width="30" height="40" as="geometry" />
        </mxCell>
        <mxCell id="cgG15gPhDWwo4B0szn4L-165" value="4" style="text;html=1;align=center;verticalAlign=middle;resizable=0;points=[];autosize=1;strokeColor=none;fillColor=none;fontSize=18;fontStyle=1" vertex="1" parent="1">
          <mxGeometry x="675" y="1860" width="30" height="40" as="geometry" />
        </mxCell>
        <mxCell id="cgG15gPhDWwo4B0szn4L-166" value="3" style="text;html=1;align=center;verticalAlign=middle;resizable=0;points=[];autosize=1;strokeColor=none;fillColor=none;fontSize=18;fontStyle=1" vertex="1" parent="1">
          <mxGeometry x="880" y="1860" width="30" height="40" as="geometry" />
        </mxCell>
        <mxCell id="cgG15gPhDWwo4B0szn4L-167" value="" style="dashed=0;labelPosition=right;align=left;shape=mxgraph.gmdl.checkbox;strokeColor=none;fillColor=#009587;strokeWidth=2;aspect=fixed;sketch=0;html=1;" vertex="1" parent="1">
          <mxGeometry x="190" y="1917" width="28" height="28" as="geometry" />
        </mxCell>
        <mxCell id="cgG15gPhDWwo4B0szn4L-168" value="" style="dashed=0;labelPosition=right;align=left;shape=mxgraph.gmdl.checkbox;strokeColor=#666666;fillColor=none;strokeWidth=2;aspect=fixed;sketch=0;html=1;" vertex="1" parent="1">
          <mxGeometry x="630" y="1916" width="30" height="30" as="geometry" />
        </mxCell>
        <mxCell id="cgG15gPhDWwo4B0szn4L-169" value="" style="dashed=0;labelPosition=right;align=left;shape=mxgraph.gmdl.checkbox;strokeColor=none;fillColor=#009587;strokeWidth=2;aspect=fixed;sketch=0;html=1;" vertex="1" parent="1">
          <mxGeometry x="430" y="1917" width="28" height="28" as="geometry" />
        </mxCell>
        <mxCell id="cgG15gPhDWwo4B0szn4L-170" value="" style="dashed=0;labelPosition=right;align=left;shape=mxgraph.gmdl.checkbox;strokeColor=#666666;fillColor=none;strokeWidth=2;aspect=fixed;sketch=0;html=1;" vertex="1" parent="1">
          <mxGeometry x="820" y="1915" width="30" height="30" as="geometry" />
        </mxCell>
        <mxCell id="cgG15gPhDWwo4B0szn4L-171" value="18" style="text;html=1;align=center;verticalAlign=middle;resizable=0;points=[];autosize=1;strokeColor=none;fillColor=none;fontSize=18;fontStyle=1" vertex="1" parent="1">
          <mxGeometry x="240" y="1910" width="40" height="40" as="geometry" />
        </mxCell>
        <mxCell id="cgG15gPhDWwo4B0szn4L-172" value="20" style="text;html=1;align=center;verticalAlign=middle;resizable=0;points=[];autosize=1;strokeColor=none;fillColor=none;fontSize=18;fontStyle=1" vertex="1" parent="1">
          <mxGeometry x="473.40999999999997" y="1910" width="40" height="40" as="geometry" />
        </mxCell>
        <mxCell id="cgG15gPhDWwo4B0szn4L-173" value="21" style="text;html=1;align=center;verticalAlign=middle;resizable=0;points=[];autosize=1;strokeColor=none;fillColor=none;fontSize=18;fontStyle=1" vertex="1" parent="1">
          <mxGeometry x="670" y="1910" width="40" height="40" as="geometry" />
        </mxCell>
        <mxCell id="cgG15gPhDWwo4B0szn4L-174" value="11" style="text;html=1;align=center;verticalAlign=middle;resizable=0;points=[];autosize=1;strokeColor=none;fillColor=none;fontSize=18;fontStyle=1" vertex="1" parent="1">
          <mxGeometry x="875" y="1910" width="40" height="40" as="geometry" />
        </mxCell>
        <mxCell id="cgG15gPhDWwo4B0szn4L-175" value="Time-lapse&amp;nbsp; &amp;nbsp; &amp;nbsp; &amp;nbsp; &amp;nbsp; &amp;nbsp; &amp;nbsp; &amp;nbsp; &amp;nbsp; &amp;nbsp;&amp;nbsp;" style="rounded=1;whiteSpace=wrap;html=1;fillColor=#B500B5;strokeColor=none;fontColor=#FFFFFF;fontStyle=1;align=right;verticalAlign=middle;fontFamily=Helvetica;fontSize=12;" vertex="1" parent="1">
          <mxGeometry x="780" y="450" width="200" height="25" as="geometry" />
        </mxCell>
        <mxCell id="cgG15gPhDWwo4B0szn4L-176" value="" style="dashed=0;verticalLabelPosition=bottom;verticalAlign=top;align=center;shape=mxgraph.gmdl.sliderFocused;barPos=50;strokeColor=#3F51B5;opacity=100;strokeWidth=2;fillColor=#3F51B5;handleSize=30;shadow=0;html=1;" vertex="1" parent="1">
          <mxGeometry x="780" y="490" width="200" height="30" as="geometry" />
        </mxCell>
        <mxCell id="cgG15gPhDWwo4B0szn4L-182" value="" style="rounded=0;whiteSpace=wrap;html=1;fillColor=none;" vertex="1" parent="1">
          <mxGeometry x="160" y="1760" width="790" height="230" as="geometry" />
        </mxCell>
      </root>
    </mxGraphModel>
  </diagram>
</mxfile>
